<?xml version="1.0" encoding="UTF-8" standalone="no"?>
<svg
   xmlns:dc="http://purl.org/dc/elements/1.1/"
   xmlns:cc="http://creativecommons.org/ns#"
   xmlns:rdf="http://www.w3.org/1999/02/22-rdf-syntax-ns#"
   xmlns:svg="http://www.w3.org/2000/svg"
   xmlns="http://www.w3.org/2000/svg"
   id="svg4625"
   height="20"
   width="13.642765"
   y="0px"
   x="0px"
   version="1.0">
  <metadata
     id="metadata4631">
    <rdf:RDF>
      <cc:Work
         rdf:about="">
        <dc:format>image/svg+xml</dc:format>
        <dc:type
           rdf:resource="http://purl.org/dc/dcmitype/StillImage" />
        <dc:title></dc:title>
      </cc:Work>
    </rdf:RDF>
  </metadata>
  <defs
     id="defs4629" />
  <path
     d="M 8.8507077,7.8215596 A 1.5173753,1.5173753 0 0 1 7.3333326,9.338935 1.5173753,1.5173753 0 0 1 5.8159574,7.8215596 1.5173753,1.5173753 0 0 1 7.3333326,6.3041843 1.5173753,1.5173753 0 0 1 8.8507077,7.8215596 Z M 5.8333336,17.634764 c 0,-1.946075 -0.028323,-2.174733 -0.3333306,-2.365235 -0.3085395,-0.192684 -0.3333401,-0.119523 -0.3333401,-2.365236 0,-2.962982 0.2303907,-3.543928 1.4166683,-3.572334 H 7.3333326 8.083334 c 1.1882715,0.0377 1.4166682,0.610371 1.4166682,3.572347 0,2.245711 -0.024815,2.172547 -0.3333315,2.365231 -0.3050476,0.190501 -0.3333391,0.419157 -0.3333391,2.365232 V 20 H 7.3333326 5.8333336 Z M 0,10.000001 V 0 l 13.322949,2.1666671 c 0.07805,0 0.319816,0.2994281 0.319816,0.6660949 0,0.422832 -0.254129,0.6668198 -0.386301,0.666095 L 2.3715649,2.5 V 11.25 20 H 1.0000022 0 Z"
     style="opacity:1;vector-effect:none;fill:#de7233;fill-opacity:1;stroke:none;stroke-width:0.48750424;stroke-linecap:butt;stroke-linejoin:miter;stroke-miterlimit:4;stroke-dasharray:none;stroke-dashoffset:0;stroke-opacity:1;paint-order:markers stroke fill"
     id="path5207" />
</svg>
