<?xml version="1.0" encoding="UTF-8" standalone="no"?>
<svg
   xmlns:dc="http://purl.org/dc/elements/1.1/"
   xmlns:cc="http://creativecommons.org/ns#"
   xmlns:rdf="http://www.w3.org/1999/02/22-rdf-syntax-ns#"
   xmlns:svg="http://www.w3.org/2000/svg"
   xmlns="http://www.w3.org/2000/svg"
   id="svg6456"
   height="10.088883"
   width="10"
   version="1.1">
  <metadata
     id="metadata6462">
    <rdf:RDF>
      <cc:Work
         rdf:about="">
        <dc:format>image/svg+xml</dc:format>
        <dc:type
           rdf:resource="http://purl.org/dc/dcmitype/StillImage" />
        <dc:title></dc:title>
      </cc:Work>
    </rdf:RDF>
  </metadata>
  <defs
     id="defs6460" />
  <rect
     ry="1.4310473"
     y="0"
     x="1.4852686"
     height="10.088883"
     width="8.5147314"
     id="rect6365-6"
     style="opacity:1;vector-effect:none;fill:#333333;fill-opacity:1;stroke:none;stroke-width:0.66126972;stroke-linecap:butt;stroke-linejoin:miter;stroke-miterlimit:4;stroke-dasharray:none;stroke-dashoffset:0;stroke-opacity:1;paint-order:stroke markers fill" />
  <rect
     y="1.6099281"
     x="1.4852686"
     height="8.4789553"
     width="8.5147314"
     id="rect6365"
     style="opacity:1;vector-effect:none;fill:#333333;fill-opacity:1;stroke:none;stroke-width:0.60621721;stroke-linecap:butt;stroke-linejoin:miter;stroke-miterlimit:4;stroke-dasharray:none;stroke-dashoffset:0;stroke-opacity:1;paint-order:stroke markers fill" />
  <rect
     y="1.3594952"
     x="3.2025263"
     height="3.5731463"
     width="5.0802178"
     id="rect6367"
     style="opacity:1;vector-effect:none;fill:#f9f9f9;fill-opacity:1;stroke:none;stroke-width:0.51736087;stroke-linecap:butt;stroke-linejoin:miter;stroke-miterlimit:4;stroke-dasharray:none;stroke-dashoffset:0;stroke-opacity:1;paint-order:stroke markers fill" />
  <path
     id="path7020"
     d="m 0.18112703,9.9214503 c -0.1090856,-0.657349 0.098597,-1.356683 0.5322171,-1.859529 0.1710256,-0.101497 -0.040311,-0.305397 -0.083903,-0.444821 -0.083213,-0.09933 0.027015,-0.20929 0.046777,-0.314279 0.092518,-0.240963 0.1573554,-0.54714 0.44057587,-0.629209 0.7123935,-0.336297 1.4241146,-0.674632 2.1281002,-1.028147 -0.1301367,-0.370972 -0.3594353,-0.701456 -0.4819223,-1.075587 0.1621347,-0.161005 0.4347438,-0.03448 0.6194179,0.04502 0.087598,0.02139 0.1873434,0.162591 0.2657152,0.093 0.1818299,-0.135826 0.3337824,-0.228342 0.5595317,-0.283045 0.1725109,0.182131 0.021499,0.495629 0.047451,0.727935 0.034418,0.15165 0.1987729,-0.216331 0.3480716,-0.08006 0.1985471,0.08697 0.6536544,0.01788 0.6736779,0.26565 -0.2349186,0.234056 -0.5475962,0.375812 -0.8384162,0.528862 -0.3650915,0.162367 -1.1377037,0.359938 -1.1377037,0.359938 0,0 0.228824,-0.01065 0.296924,0.05668 0.085306,0.08433 0.1241772,0.203624 0.1241772,0.203624 0,0 0.2127241,-0.429494 0.3257883,-0.141281 0.1021649,0.140661 0.21389,0.489892 0.2998792,0.509527 -0.043266,-0.241741 -0.3110848,-0.50695 -0.1945316,-0.739911 0.2607128,0.127342 0.4038317,0.4191 0.6131742,0.616572 0.3461563,0.409603 0.7811779,0.8042 0.8904224,1.351339 -0.028472,0.298207 0.2029734,0.503268 0.3363275,0.739723 0.1627759,0.345809 0.068309,0.740716 -0.024872,1.091712 l -5.78688007,0.0063 z"
     style="fill:#f9f9f9;stroke:#333333;stroke-width:0.30448169;stroke-linecap:butt;stroke-linejoin:miter;stroke-miterlimit:4;stroke-dasharray:none;paint-order:markers stroke fill" />
</svg>
