<?xml version="1.0" encoding="UTF-8" standalone="no"?>
<svg
   xmlns:dc="http://purl.org/dc/elements/1.1/"
   xmlns:cc="http://creativecommons.org/ns#"
   xmlns:rdf="http://www.w3.org/1999/02/22-rdf-syntax-ns#"
   xmlns:svg="http://www.w3.org/2000/svg"
   xmlns="http://www.w3.org/2000/svg"
   id="svg34"
   height="11.75"
   width="17"
   version="1.1">
  <metadata
     id="metadata40">
    <rdf:RDF>
      <cc:Work
         rdf:about="">
        <dc:format>image/svg+xml</dc:format>
        <dc:type
           rdf:resource="http://purl.org/dc/dcmitype/StillImage" />
        <dc:title></dc:title>
      </cc:Work>
    </rdf:RDF>
  </metadata>
  <defs
     id="defs38" />
  <path
     style="fill:#0088aa;fill-opacity:1"
     id="path26"
     d="M 0.944,11.75 C 0.423,11.75 0,11.327 0,10.807 V 0.944 C 0,0.423 0.423,0 0.944,0 1.465,0 1.888,0.423 1.888,0.944 v 9.861 C 1.889,11.327 1.466,11.75 0.944,11.75 Z" />
  <path
     style="fill:#0088aa;fill-opacity:1"
     id="path28"
     d="M 5.981,11.75 C 5.46,11.75 5.037,11.327 5.037,10.807 V 0.944 C 5.037,0.423 5.46,0 5.981,0 6.502,0 6.925,0.423 6.925,0.944 v 9.861 C 6.926,11.327 6.503,11.75 5.981,11.75 Z" />
  <path
     style="fill:#0088aa;fill-opacity:1"
     id="path30"
     d="m 11.02,11.75 c -0.522,0 -0.945,-0.423 -0.945,-0.943 V 0.944 C 10.075,0.423 10.498,0 11.02,0 c 0.521,0 0.943,0.423 0.943,0.944 v 9.861 c 0,0.522 -0.423,0.945 -0.943,0.945 z" />
  <path
     style="fill:#0088aa;fill-opacity:1"
     id="path32"
     d="m 16.057,11.75 c -0.522,0 -0.945,-0.423 -0.945,-0.943 V 0.944 C 15.112,0.423 15.535,0 16.057,0 16.578,0 17,0.423 17,0.944 v 9.861 c 0,0.522 -0.423,0.945 -0.943,0.945 z" />
</svg>
