<?xml version="1.0" encoding="UTF-8" standalone="no"?>
<svg
   xmlns:dc="http://purl.org/dc/elements/1.1/"
   xmlns:cc="http://creativecommons.org/ns#"
   xmlns:rdf="http://www.w3.org/1999/02/22-rdf-syntax-ns#"
   xmlns:svg="http://www.w3.org/2000/svg"
   xmlns="http://www.w3.org/2000/svg"
   id="svg10"
   height="20"
   width="20"
   version="1.1">
  <metadata
     id="metadata16">
    <rdf:RDF>
      <cc:Work
         rdf:about="">
        <dc:format>image/svg+xml</dc:format>
        <dc:type
           rdf:resource="http://purl.org/dc/dcmitype/StillImage" />
        <dc:title></dc:title>
      </cc:Work>
    </rdf:RDF>
  </metadata>
  <defs
     id="defs14" />
  <g
     transform="matrix(1.0810811,0,0,1.0810811,-0.81081082,-0.81081083)"
     style="opacity:0.8"
     id="g6">
    <path
       style="fill:#a0cc3a"
       id="path2"
       d="M 11.559,19.25 C 8.839,19.25 6.444,17.561 5.556,15.031 2.718,14.328 0.75,11.842 0.75,8.939 c 0,-3.467 2.853,-6.287 6.36,-6.287 0.381,0 0.762,0.034 1.136,0.1 1.203,-1.274 2.888,-2.002 4.645,-2.002 3.508,0 6.359,2.82 6.359,6.287 0,1.529 -0.563,2.997 -1.591,4.148 0.173,0.576 0.26,1.174 0.26,1.776 0,3.469 -2.855,6.289 -6.36,6.289 z" />
  </g>
</svg>
