<?xml version="1.0" encoding="UTF-8" standalone="no"?>
<svg
   xmlns:dc="http://purl.org/dc/elements/1.1/"
   xmlns:cc="http://creativecommons.org/ns#"
   xmlns:rdf="http://www.w3.org/1999/02/22-rdf-syntax-ns#"
   xmlns:svg="http://www.w3.org/2000/svg"
   xmlns="http://www.w3.org/2000/svg"
   id="svg10"
   height="4.1361113"
   width="10"
   version="1.1">
  <metadata
     id="metadata16">
    <rdf:RDF>
      <cc:Work
         rdf:about="">
        <dc:format>image/svg+xml</dc:format>
        <dc:type
           rdf:resource="http://purl.org/dc/dcmitype/StillImage" />
        <dc:title></dc:title>
      </cc:Work>
    </rdf:RDF>
  </metadata>
  <defs
     id="defs14" />
  <g
     transform="matrix(0.55555556,0,0,0.55555556,-0.55555556,0)"
     id="g6">
    <polygon
       style="fill:#de7233"
       id="polygon2"
       points="2.647,2.549 1.25,2.549 1.25,0.25 18.75,0.25 18.75,2.549 17.354,2.549 17.354,7.195 15.055,7.195 15.055,2.549 4.946,2.549 4.946,7.195 2.647,7.195 " />
    <path
       style="fill:#ffffff"
       id="path4"
       d="M 18.5,0.5 V 2.299 H 17.104 V 6.945 H 15.305 V 2.299 H 4.696 V 6.945 H 2.897 V 2.299 H 1.5 V 0.5 h 17 M 19,0 H 18.5 1.5 1 v 0.5 1.799 0.5 h 0.5 0.897 v 4.146 0.5 h 0.5 1.799 0.5 v -0.5 -4.146 h 9.607 v 4.146 0.5 h 0.5 1.799 0.5 V 6.945 2.799 H 18.5 19 V 2.299 0.5 Z" />
  </g>
  <polygon
     transform="matrix(0.55555556,0,0,0.55555556,-0.55555556,0)"
     style="fill:#de7233"
     id="polygon8"
     points="15.305,6.945 17.104,6.945 17.104,2.299 18.5,2.299 18.5,0.5 1.5,0.5 1.5,2.299 2.897,2.299 2.897,6.945 4.696,6.945 4.696,2.299 15.305,2.299 " />
</svg>
