<?xml version="1.0" encoding="UTF-8" standalone="no"?>
<svg
   xmlns:dc="http://purl.org/dc/elements/1.1/"
   xmlns:cc="http://creativecommons.org/ns#"
   xmlns:rdf="http://www.w3.org/1999/02/22-rdf-syntax-ns#"
   xmlns:svg="http://www.w3.org/2000/svg"
   xmlns="http://www.w3.org/2000/svg"
   id="svg34"
   height="20"
   width="21.241106"
   version="1.1">
  <metadata
     id="metadata40">
    <rdf:RDF>
      <cc:Work
         rdf:about="">
        <dc:format>image/svg+xml</dc:format>
        <dc:type
           rdf:resource="http://purl.org/dc/dcmitype/StillImage" />
        <dc:title></dc:title>
      </cc:Work>
    </rdf:RDF>
  </metadata>
  <defs
     id="defs38" />
  <g
     transform="matrix(1.1111111,0,0,1.1111111,-0.30333333,-1.1111111)"
     id="g6">
    <path
       style="fill:#de7233"
       id="path2"
       d="M 4.319,18.75 3.631,14.786 H 0.691 L 3.496,9.576 3.299,8.472 c -0.262,0.724 -0.628,1.73 -0.865,2.357 -0.136,0.368 -0.43,0.598 -0.766,0.598 -0.226,0 -0.44,-0.109 -0.571,-0.292 C 0.945,10.923 0.917,10.645 1.017,10.351 1.35,9.414 1.608,8.671 1.91,7.802 L 2.285,6.724 C 2.776,5.337 3.332,5.066 4.129,5.066 h 1.727 c 0.796,0 1.354,0.271 1.847,1.657 L 8.178,8.09 c 0.259,0.75 0.494,1.429 0.789,2.258 0.103,0.296 0.075,0.575 -0.076,0.787 -0.13,0.184 -0.343,0.292 -0.569,0.292 C 7.988,11.428 7.693,11.198 7.552,10.829 7.315,10.203 6.949,9.199 6.687,8.475 l -0.195,1.101 2.805,5.21 H 6.356 L 5.659,18.75 Z" />
    <path
       style="fill:#ffffff"
       id="path4"
       d="m 5.856,5.315 c 0.689,0 1.151,0.197 1.612,1.491 0.489,1.403 0.804,2.332 1.263,3.625 0.156,0.454 -0.109,0.746 -0.41,0.746 -0.202,0 -0.42,-0.132 -0.536,-0.437 C 7.38,9.674 6.604,7.508 6.604,7.508 L 6.23,9.618 8.878,14.536 H 6.146 L 5.449,18.5 H 4.53 L 3.842,14.536 H 1.109 L 3.757,9.618 3.381,7.508 c 0,0 -0.778,2.166 -1.181,3.232 -0.113,0.305 -0.33,0.437 -0.532,0.437 -0.301,0 -0.569,-0.292 -0.414,-0.746 C 1.713,9.138 2.032,8.209 2.522,6.806 2.98,5.513 3.444,5.315 4.13,5.315 h 1.726 m 0,-0.5 H 4.129 C 3.084,4.815 2.52,5.309 2.05,6.639 L 1.674,7.721 c -0.302,0.868 -0.56,1.61 -0.891,2.543 -0.127,0.373 -0.086,0.741 0.111,1.017 0.178,0.248 0.467,0.396 0.774,0.396 0.172,0 0.335,-0.044 0.48,-0.125 L 0.669,14.299 0.273,15.036 H 1.11 3.422 L 4.038,18.586 4.109,19 H 4.53 5.449 5.869 L 5.942,18.587 6.566,15.036 H 8.879 9.716 L 9.32,14.299 7.84,11.551 c 0.146,0.082 0.31,0.126 0.482,0.126 0.307,0 0.596,-0.147 0.773,-0.396 0.197,-0.276 0.237,-0.645 0.11,-1.012 C 8.909,9.436 8.675,8.758 8.415,8.008 L 7.94,6.642 C 7.466,5.31 6.901,4.815 5.856,4.815 Z" />
  </g>
  <g
     transform="matrix(1.1111111,0,0,1.1111111,-0.30333333,-1.1111111)"
     id="g12">
    <path
       style="fill:#de7233"
       id="path8"
       d="M 16.051,18.75 15.108,13.992 14.162,18.75 H 11.958 L 13.624,9.794 13.407,8.627 c -0.261,0.657 -0.623,1.578 -0.855,2.201 -0.142,0.37 -0.437,0.599 -0.771,0.599 -0.227,0 -0.439,-0.108 -0.57,-0.291 -0.151,-0.213 -0.18,-0.491 -0.079,-0.785 0.317,-0.893 0.566,-1.609 0.851,-2.426 L 12.401,6.724 C 12.89,5.337 13.448,5.066 14.245,5.066 h 1.729 c 0.794,0 1.35,0.271 1.846,1.656 l 0.482,1.391 c 0.257,0.741 0.489,1.415 0.78,2.235 0.103,0.296 0.075,0.575 -0.076,0.787 -0.131,0.184 -0.344,0.292 -0.569,0.292 -0.335,0.001 -0.63,-0.229 -0.771,-0.598 -0.233,-0.618 -0.593,-1.531 -0.854,-2.188 l -0.22,1.242 1.694,8.867 z" />
    <path
       style="fill:#ffffff"
       id="path10"
       d="m 15.971,5.315 c 0.688,0 1.147,0.197 1.61,1.491 0.489,1.403 0.804,2.332 1.263,3.625 0.156,0.454 -0.109,0.746 -0.41,0.746 -0.203,0 -0.421,-0.132 -0.537,-0.437 -0.402,-1.066 -1.18,-3.009 -1.18,-3.009 L 16.344,9.84 17.983,18.5 H 16.256 L 15.108,12.708 13.956,18.5 H 12.258 L 13.869,9.84 13.494,7.732 c 0,0 -0.778,1.94 -1.178,3.009 -0.116,0.305 -0.334,0.437 -0.537,0.437 -0.301,0 -0.567,-0.292 -0.413,-0.746 0.46,-1.293 0.778,-2.222 1.269,-3.625 0.456,-1.293 0.918,-1.491 1.607,-1.491 h 1.729 m 0,-0.501 h -1.729 c -1.047,0 -1.61,0.495 -2.079,1.824 l -0.419,1.203 c -0.284,0.817 -0.533,1.533 -0.849,2.421 -0.128,0.373 -0.087,0.741 0.11,1.017 0.178,0.249 0.467,0.396 0.773,0.396 0.441,0 0.826,-0.29 1.004,-0.759 0.144,-0.384 0.338,-0.884 0.527,-1.366 L 13.36,9.837 11.765,18.407 11.656,19 h 0.602 1.698 0.41 l 0.08,-0.402 0.66,-3.322 0.659,3.322 0.081,0.402 h 0.41 1.727 0.604 l -0.112,-0.593 -1.622,-8.57 0.05,-0.281 c 0.188,0.479 0.383,0.978 0.527,1.361 0.179,0.47 0.563,0.76 1.005,0.76 0.307,0 0.596,-0.148 0.772,-0.396 0.197,-0.276 0.237,-0.645 0.11,-1.012 C 19.025,9.445 18.792,8.772 18.536,8.032 L 18.054,6.642 C 17.576,5.309 17.013,4.815 15.971,4.815 Z" />
  </g>
  <g
     transform="matrix(1.1111111,0,0,1.1111111,-0.30333333,-1.1111111)"
     id="g18">
    <circle
       style="fill:#de7233"
       id="circle14"
       r="2.0209999"
       cy="3.2709999"
       cx="15.074" />
    <path
       style="fill:#ffffff"
       id="path16"
       d="m 15.074,1.5 c 0.979,0 1.771,0.793 1.771,1.771 0,0.978 -0.793,1.771 -1.771,1.771 -0.978,0 -1.771,-0.793 -1.771,-1.771 0,-0.978 0.793,-1.771 1.771,-1.771 m 0,-0.5 c -1.253,0 -2.271,1.019 -2.271,2.271 0,1.252 1.019,2.271 2.271,2.271 1.252,0 2.271,-1.019 2.271,-2.271 C 17.345,2.019 16.327,1 15.074,1 Z" />
  </g>
  <g
     transform="matrix(1.1111111,0,0,1.1111111,-0.30333333,-1.1111111)"
     id="g24">
    <circle
       style="fill:#de7233"
       id="circle20"
       r="2.0209999"
       cy="3.2709999"
       cx="4.9250002" />
    <path
       style="fill:#ffffff"
       id="path22"
       d="m 4.925,1.5 c 0.978,0 1.771,0.793 1.771,1.771 0,0.978 -0.793,1.771 -1.771,1.771 C 3.947,5.042 3.154,4.249 3.154,3.271 3.154,2.293 3.947,1.5 4.925,1.5 m 0,-0.5 C 3.673,1 2.654,2.019 2.654,3.271 c 0,1.252 1.019,2.271 2.271,2.271 1.252,0 2.271,-1.019 2.271,-2.271 C 7.196,2.019 6.178,1 4.925,1 Z" />
  </g>
  <path
     style="fill:#de7233;stroke-width:1.11111116"
     id="path26"
     d="M 4.7311111,19.444444 3.9666667,15.04 H 0.93 L 3.8722222,9.5755556 3.4544444,7.2311111 c 0,0 -0.8644444,2.4066667 -1.3122222,3.5911109 C 1.8311111,11.664444 0.8033333,11.321111 1.0911111,10.478889 1.6011111,9.0422222 1.9555556,8.01 2.5,6.4511111 3.0077778,5.0144444 3.5244444,4.7944444 4.2855556,4.7944444 h 1.9188888 c 0.7655556,0 1.2788889,0.2188889 1.7911112,1.6566667 C 8.5388889,8.01 8.8888889,9.0422222 9.3988889,10.478889 9.69,11.321111 8.6677778,11.664444 8.3477778,10.822222 7.8977778,9.6377778 7.0355556,7.2311111 7.0355556,7.2311111 L 6.62,9.5755556 9.5622222,15.04 H 6.5266667 l -0.7744445,4.404444 z" />
  <path
     style="fill:#de7233;stroke-width:1.11111116"
     id="path28"
     d="m 15.204444,19.444444 h -1.886666 l 1.79,-9.6222218 L 14.691111,7.48 c 0,0 -0.864444,2.1555556 -1.308889,3.343333 -0.321111,0.842223 -1.343333,0.498889 -1.055555,-0.343333 0.511111,-1.4366667 0.864444,-2.4688889 1.41,-4.0277778 0.506666,-1.4366666 1.02,-1.6566666 1.785555,-1.6566666 h 1.921111 c 0.764445,0 1.274445,0.2188888 1.788889,1.6566666 0.543334,1.5588889 0.893334,2.5911111 1.403334,4.0277778 0.291111,0.842222 -0.731112,1.185556 -1.052223,0.343333 C 19.136667,9.6388889 18.272222,7.48 18.272222,7.48 l -0.414444,2.3422222 1.821111,9.6222218 H 17.76 l -1.275556,-6.435555 z" />
  <circle
     style="fill:#de7233;stroke-width:1.11111116"
     id="circle30"
     r="1.9677778"
     cy="2.5233331"
     cx="16.446665" />
  <circle
     style="fill:#de7233;stroke-width:1.11111116"
     id="circle32"
     r="1.9677778"
     cy="2.5233331"
     cx="5.1700006" />
</svg>
