<?xml version="1.0" encoding="UTF-8" standalone="no"?>
<svg
   xmlns:dc="http://purl.org/dc/elements/1.1/"
   xmlns:cc="http://creativecommons.org/ns#"
   xmlns:rdf="http://www.w3.org/1999/02/22-rdf-syntax-ns#"
   xmlns:svg="http://www.w3.org/2000/svg"
   xmlns="http://www.w3.org/2000/svg"
   id="svg18"
   height="7.1577201"
   width="10"
   version="1.1">
  <metadata
     id="metadata24">
    <rdf:RDF>
      <cc:Work
         rdf:about="">
        <dc:format>image/svg+xml</dc:format>
        <dc:type
           rdf:resource="http://purl.org/dc/dcmitype/StillImage" />
        <dc:title></dc:title>
      </cc:Work>
    </rdf:RDF>
  </metadata>
  <defs
     id="defs22" />
  <path
     style="fill:#0088aa;stroke:none;stroke-width:0.50002116"
     id="path16"
     d="m 4.9965291,0.51693894 c 1.3760581,0.0105 2.8461203,0.4135175 3.807161,1.45056136 0.5070215,0.5385228 0.8065341,1.3010546 0.6300267,2.0395866 -0.211009,1.080045 -1.18055,1.797076 -2.1365905,2.202093 C 5.7365603,6.8332059 3.907483,6.7872039 2.3844185,6.0726739 1.5658839,5.6611569 0.77785052,4.9846279 0.56584155,4.0570889 0.37283337,3.2175529 0.72934847,2.3300156 1.3758758,1.7814924 2.3434168,0.88345444 3.7009742,0.52193914 4.9965291,0.51693894 Z m 0,6.64078096 c 1.5645661,-0.0065 3.2316367,-0.515022 4.279681,-1.733073 0.5535234,-0.640027 0.8635369,-1.523565 0.662028,-2.3641 C 9.7157287,1.914498 8.7606883,1.0779626 7.7486455,0.59544224 5.9870709,-0.22259236 3.8489805,-0.19459116 2.1054067,0.65994494 1.1983683,1.1289648 0.35383257,1.8949972 0.08132103,2.9090399 c -0.25551081,0.989542 0.10700453,2.083088 0.86403658,2.761617 1.06354499,1.039544 2.59110969,1.484563 4.05117149,1.487063 z" />
  <path
     id="path4503"
     d="m 0.0141487,3.5788599 h 9.936861"
     style="fill:#0088aa;stroke:#0088aa;stroke-width:0.50002116px;stroke-linecap:butt;stroke-linejoin:miter;stroke-opacity:1" />
</svg>
