<?xml version="1.0" encoding="UTF-8" standalone="no"?>
<svg
   xmlns:dc="http://purl.org/dc/elements/1.1/"
   xmlns:cc="http://creativecommons.org/ns#"
   xmlns:rdf="http://www.w3.org/1999/02/22-rdf-syntax-ns#"
   xmlns:svg="http://www.w3.org/2000/svg"
   xmlns="http://www.w3.org/2000/svg"
   viewBox="0 0 226.772 264.56668"
   height="264.56668"
   width="226.772"
   xml:space="preserve"
   id="svg2"
   version="1.1"><metadata
     id="metadata8"><rdf:RDF><cc:Work
         rdf:about=""><dc:format>image/svg+xml</dc:format><dc:type
           rdf:resource="http://purl.org/dc/dcmitype/StillImage" /></cc:Work></rdf:RDF></metadata><defs
     id="defs6"><clipPath
       id="clipPath18"
       clipPathUnits="userSpaceOnUse"><path
         id="path16"
         d="M 0,198.425 H 170.079 V 0 H 0 Z" /></clipPath><clipPath
       id="clipPath32"
       clipPathUnits="userSpaceOnUse"><path
         id="path30"
         d="M 0,198.425 H 170.079 V 0 H 0 Z" /></clipPath><clipPath
       id="clipPath74"
       clipPathUnits="userSpaceOnUse"><path
         id="path72"
         d="M 0,198.425 H 170.079 V 0 H 0 Z" /></clipPath></defs><g
     transform="matrix(1.3333333,0,0,-1.3333333,0,264.56667)"
     id="g10"><g
       id="g12"><g
         clip-path="url(#clipPath18)"
         id="g14"><g
           transform="translate(165.8226,198.4252)"
           id="g20"><path
             id="path22"
             style="fill:#254aa5;fill-opacity:1;fill-rule:nonzero;stroke:none"
             d="m 0,0 h -161.566 c -2.351,0 -4.257,-1.905 -4.257,-4.256 v -156.151 -5.416 -26.528 c 0,-3.355 2.72,-6.074 6.074,-6.074 H -1.818 c 3.355,0 6.074,2.719 6.074,6.074 v 26.528 5.416 156.151 C 4.256,-1.905 2.351,0 0,0" /></g><path
           id="path24"
           style="fill:#ffffff;fill-opacity:1;fill-rule:nonzero;stroke:none"
           d="M 8.5,189.925 H 161.579 V 38.018 H 8.5 Z" /></g></g><g
       id="g26"><g
         clip-path="url(#clipPath32)"
         id="g28"><g
           transform="translate(30.39,19.9545)"
           id="g34"><path
             id="path36"
             style="fill:#ffffff;fill-opacity:1;fill-rule:nonzero;stroke:none"
             d="m 0,0 c 0,4.924 3.449,8.398 8.323,8.398 2.474,0 4.549,-0.8 6.024,-2.4 l -2.15,-2.05 C 11.273,4.974 9.947,5.573 8.373,5.573 5.424,5.573 3.374,3.273 3.374,0 c 0,-3.35 2,-5.674 4.874,-5.674 2.624,0 4.449,1.499 4.449,3.674 v 0.425 H 8.773 v 2.724 h 7.223 v -2.524 c 0,-4.149 -3.225,-7.073 -7.848,-7.073 C 3.374,-8.448 0,-4.949 0,0" /></g><g
           transform="translate(49.265,24.1527)"
           id="g38"><path
             id="path40"
             style="fill:#ffffff;fill-opacity:1;fill-rule:nonzero;stroke:none"
             d="m 0,0 h 2.924 v -2.049 h 0.05 c 0.6,1.4 1.7,2.15 3.149,2.15 0.375,0 0.9,-0.051 1.1,-0.125 v -2.95 c -0.35,0.1 -1.025,0.175 -1.525,0.175 -1.574,0 -2.599,-1.2 -2.599,-3.05 v -6.498 H 0 Z" /></g><g
           transform="translate(63.8881,14.2055)"
           id="g42"><path
             id="path44"
             style="fill:#ffffff;fill-opacity:1;fill-rule:nonzero;stroke:none"
             d="M 0,0 C 2,0 3.399,1.55 3.399,3.774 3.399,5.999 2,7.548 0,7.548 -1.999,7.548 -3.399,5.999 -3.399,3.774 -3.399,1.55 -1.999,0 0,0 m -6.573,3.774 c 0,3.774 2.749,6.473 6.573,6.473 3.824,0 6.574,-2.699 6.574,-6.473 C 6.574,0 3.824,-2.699 0,-2.699 -3.824,-2.699 -6.573,0 -6.573,3.774" /></g><g
           transform="translate(73.764,21.5785)"
           id="g46"><path
             id="path48"
             style="fill:#ffffff;fill-opacity:1;fill-rule:nonzero;stroke:none"
             d="M 0,0 H -2.1 V 2.574 H 0 v 1.6 c 0,2.824 1.675,4.474 4.549,4.474 0.35,0 0.875,-0.05 1.15,-0.1 V 5.874 C 5.398,5.948 4.974,5.999 4.624,5.999 3.649,5.999 3.1,5.349 3.1,4.174 v -1.6 H 6.099 V 0 H 3.1 V -9.772 H 0 Z" /></g><g
           transform="translate(94.9125,16.4047)"
           id="g50"><path
             id="path52"
             style="fill:#ffffff;fill-opacity:1;fill-rule:nonzero;stroke:none"
             d="M 0,0 V 0.7 L -2.05,0.675 c -1.624,-0.025 -2.499,-0.6 -2.499,-1.674 0,-0.95 0.75,-1.625 1.8,-1.625 C -1.125,-2.624 0,-1.55 0,0 m -7.673,-1.074 c 0,2.374 1.975,3.799 5.274,3.824 L 0,2.774 v 0.401 c 0,1.449 -0.925,2.199 -2.6,2.199 -1.099,0 -2.074,-0.425 -2.749,-1.2 l -1.875,1.825 c 1.076,1.324 2.8,2.049 4.924,2.049 3.3,0 5.4,-1.799 5.4,-4.674 v -4.898 c 0,-0.451 0.199,-0.65 0.699,-0.65 h 0.225 v -2.425 h -1.45 c -1.175,0 -1.974,0.55 -2.224,1.45 H 0.3 c -0.775,-1.124 -2.05,-1.749 -3.599,-1.749 -2.599,0 -4.374,1.549 -4.374,3.824" /></g><g
           transform="translate(101.9379,21.5785)"
           id="g54"><path
             id="path56"
             style="fill:#ffffff;fill-opacity:1;fill-rule:nonzero;stroke:none"
             d="M 0,0 H -2.1 V 2.574 H 0 v 1.6 c 0,2.824 1.675,4.474 4.549,4.474 0.35,0 0.875,-0.05 1.15,-0.1 V 5.874 C 5.398,5.948 4.974,5.999 4.624,5.999 3.649,5.999 3.1,5.349 3.1,4.174 v -1.6 H 6.099 V 0 H 3.1 V -9.772 H 0 Z" /></g><g
           transform="translate(108.639,24.1527)"
           id="g58"><path
             id="path60"
             style="fill:#ffffff;fill-opacity:1;fill-rule:nonzero;stroke:none"
             d="m 0,0 h 3.374 l 2.874,-8.897 h 0.05 L 9.247,0 h 3.3 L 7.897,-12.347 H 4.573 Z" /></g><g
           transform="translate(129.5121,16.4047)"
           id="g62"><path
             id="path64"
             style="fill:#ffffff;fill-opacity:1;fill-rule:nonzero;stroke:none"
             d="M 0,0 V 0.7 L -2.05,0.675 c -1.624,-0.025 -2.499,-0.6 -2.499,-1.674 0,-0.95 0.75,-1.625 1.8,-1.625 C -1.125,-2.624 0,-1.55 0,0 m -7.673,-1.074 c 0,2.374 1.975,3.799 5.274,3.824 L 0,2.774 v 0.401 c 0,1.449 -0.925,2.199 -2.6,2.199 -1.099,0 -2.074,-0.425 -2.749,-1.2 l -1.875,1.825 c 1.076,1.324 2.8,2.049 4.924,2.049 3.3,0 5.4,-1.799 5.4,-4.674 v -4.898 c 0,-0.451 0.199,-0.65 0.699,-0.65 h 0.225 v -2.425 h -1.45 c -1.175,0 -1.974,0.55 -2.224,1.45 H 0.3 c -0.775,-1.124 -2.05,-1.749 -3.599,-1.749 -2.599,0 -4.374,1.549 -4.374,3.824" /></g><path
           id="path66"
           style="fill:#ffffff;fill-opacity:1;fill-rule:nonzero;stroke:none"
           d="m 135.963,29.926 h 3.099 v -18.12 h -3.099 z" /></g></g><g
       id="g68"><g
         clip-path="url(#clipPath74)"
         id="g70"><g
           transform="translate(136.1655,55.1573)"
           id="g76"><path
             id="path78"
             style="fill:#231f20;fill-opacity:1;fill-rule:nonzero;stroke:none"
             d="m 0,0 c 0,-0.452 -0.314,-0.82 -0.699,-0.82 h -75.202 c -0.386,0 -0.699,0.368 -0.699,0.82 v 38.159 h -1.483 v 0.016 c -5.116,0 -7.406,4.373 -7.406,8.706 0,4.8 3.905,8.705 8.705,8.705 4.801,0 8.706,-3.905 8.706,-8.705 V 32.574 c -1.311,-0.725 -2.212,-2.105 -2.212,-3.707 v -10.7 c 0,-2.345 1.908,-4.252 4.252,-4.252 H -10.7 c 2.345,0 4.252,1.907 4.252,4.252 v 10.7 c 0,1.598 -0.896,2.976 -2.202,3.702 v 14.312 c 0,4.8 3.905,8.705 8.706,8.705 4.8,0 8.706,-3.905 8.706,-8.705 0,-4.333 -2.293,-8.706 -7.414,-8.706 V 38.159 H 0 Z m -37.947,49.285 c -0.51,0 -1.023,-0.025 -1.532,-0.076 0.908,1.025 1.676,2.185 2.253,3.422 0.209,-0.219 0.401,-0.455 0.577,-0.711 0.608,-0.887 0.947,-1.895 1.126,-2.841 -0.794,0.14 -1.607,0.206 -2.424,0.206 m -9.02,-0.185 c -1.976,-0.438 -2.684,-0.12 -2.851,-0.011 -0.102,0.064 -0.218,0.168 -0.31,0.589 -0.166,0.757 0.07,1.97 0.975,2.974 1.168,1.297 3.174,1.979 5.754,1.979 0.589,0 1.211,-0.035 1.857,-0.108 0.23,-0.026 0.455,-0.057 0.672,-0.096 -1.169,-2.596 -3.562,-4.767 -6.097,-5.327 m 1.531,-7.066 c 0.565,1.111 1.926,2.024 3.938,2.639 0.992,0.304 2.246,0.532 3.548,0.532 0.744,0 1.503,-0.074 2.237,-0.253 -0.991,-2.438 -3.448,-4.742 -6.223,-5.763 -1.223,-0.451 -2.28,-0.517 -2.972,-0.19 -0.446,0.211 -0.58,0.516 -0.611,0.604 -0.31,0.893 -0.282,1.711 0.083,2.431 m 34.739,-23.867 h -55.341 v 10.7 H -10.7 Z m -57.408,65.211 c 0,0.446 0.477,0.822 1.042,0.822 h 57.411 c 0.564,0 1.042,-0.376 1.042,-0.822 V 61.725 c -5.102,-2.99 -8.544,-8.517 -8.544,-14.844 V 33.119 h -10.582 c 0.67,1.762 1.61,5.182 0.544,8.659 -0.8,2.608 -2.266,4.452 -4.092,5.66 -0.049,2.011 -0.523,4.565 -1.949,6.693 -0.753,1.124 -1.713,2.053 -2.852,2.769 0.271,3.719 -1.407,6.969 -4.711,9.037 -1.579,0.989 -3.187,1.66 -4.779,1.996 l -0.84,-3.98 c 1.123,-0.238 2.287,-0.73 3.461,-1.464 1.871,-1.172 2.594,-2.665 2.777,-4.054 -0.299,0.053 -0.603,0.097 -0.914,0.131 -6.171,0.691 -9.433,-1.355 -11.086,-3.192 -1.67,-1.855 -2.407,-4.372 -1.925,-6.569 0.306,-1.396 1.011,-2.453 2.093,-3.145 0.947,-0.605 2.102,-0.884 3.517,-0.851 -0.235,-0.325 -0.422,-0.639 -0.571,-0.933 -0.873,-1.719 -0.976,-3.658 -0.299,-5.607 0.439,-1.265 1.428,-2.338 2.714,-2.947 1.193,-0.564 3.223,-1.016 6.117,0.049 3.614,1.329 6.764,4.195 8.312,7.435 0.475,-0.599 0.865,-1.331 1.136,-2.22 0.911,-2.969 -0.476,-6.141 -0.743,-6.709 -0.149,-0.23 -0.264,-0.487 -0.379,-0.758 h -27.369 v 13.762 c 0,6.322 -3.437,11.844 -8.531,14.836 z M 17.799,-6.242 8.504,22.183 v 9.161 c 5.326,2.687 8.762,8.404 8.762,15.537 0,9.489 -7.721,17.209 -17.21,17.209 -0.056,0 -0.111,-0.007 -0.166,-0.008 v 19.296 c 0,5.141 -4.281,9.322 -9.542,9.322 h -4.905 l -10.827,33.108 -9.504,-3.109 9.81,-29.999 h -2.037 l -15.657,32.124 -8.989,-4.382 13.522,-27.742 h -28.824 c -5.262,0 -9.542,-4.181 -9.542,-9.322 V 64.081 c -0.06,10e-4 -0.119,0.009 -0.179,0.009 -9.489,0 -17.209,-7.72 -17.209,-17.209 0,-7.192 3.49,-12.944 8.889,-15.602 V 0 c 0,-5.142 4.128,-9.324 9.203,-9.324 h 75.202 c 3.176,0 5.982,1.639 7.636,4.126 L 8.295,-9.35 Z" /></g><g
           transform="translate(44.4999,140.9107)"
           id="g80"><path
             id="path82"
             style="fill:#231f20;fill-opacity:1;fill-rule:nonzero;stroke:none"
             d="m 0,0 15.086,13.27 -28.757,21.309 -14.714,-12.943 17.196,-31.478 7.84,6.896 3.95,-9.003 -22.172,-74.655 h -5.872 v -8.5 h 16.954 v 8.5 h -6.648 l 22.255,74.937 z" /></g></g></g></g></svg>