<svg xmlns="http://www.w3.org/2000/svg" xmlns:xlink="http://www.w3.org/1999/xlink" version="1.1" width="170.079pt" height="198.425pt" viewBox="0 0 170.079 198.425">
<defs>
<clipPath id="clip_0">
<path transform="matrix(1,0,0,-1,0,198.425)" d="M0 198.425H170.079V0H0Z"/>
</clipPath>
<clipPath id="clip_1">
<path transform="matrix(1,0,0,-1,0,198.425)" d="M0 198.425H170.079V0H0Z"/>
</clipPath>
<clipPath id="clip_2">
<path transform="matrix(1,0,0,-1,0,198.425)" d="M0 198.425H170.079V0H0Z"/>
</clipPath>
</defs>
<g id="layer_1" data-name="Gekleurd kader">
<g clip-path="url(#clip_0)">
<path transform="matrix(1,0,0,-1,165.8226,-.00019836426)" d="M0 0H-161.566C-163.917 0-165.823-1.905-165.823-4.256V-160.407-165.823-192.351C-165.823-195.706-163.103-198.425-159.749-198.425H-1.818C1.537-198.425 4.256-195.706 4.256-192.351V-165.823-160.407-4.256C4.256-1.905 2.351 0 0 0" fill="#a6ce38"/>
<path transform="matrix(1,0,0,-1,0,198.425)" d="M8.5 189.925H161.579V38.018007H8.5Z" fill="#ffffff"/>
</g>
</g>
<g id="layer_1" data-name="Lettercontouren">
<g clip-path="url(#clip_1)">
<path transform="matrix(1,0,0,-1,58.2126,183.9637)" d="M0 0C1.5 0 2.425 .825 2.425 2.199 2.425 3.549 1.5 4.374 0 4.374H-2.35V0ZM-.425 6.823C.85 6.823 1.675 7.623 1.675 8.897 1.675 10.147 .85 10.947-.425 10.947H-2.35V6.823ZM-5.624 13.597H.125C3.049 13.597 4.974 11.797 4.974 9.098 4.974 7.748 4.024 6.323 2.749 5.799V5.749C4.424 5.349 5.724 3.699 5.724 1.975 5.724-.8 3.524-2.649 .2-2.649H-5.624Z" fill="#231f20"/>
<path transform="matrix(1,0,0,-1,66.739,174.2664)" d="M0 0H2.924V-2.049H2.974C3.574-.649 4.674 .101 6.123 .101 6.498 .101 7.023 .05 7.223-.024V-2.974C6.873-2.874 6.198-2.799 5.698-2.799 4.124-2.799 3.099-3.999 3.099-5.849V-12.347H0Z" fill="#231f20"/>
<path transform="matrix(1,0,0,-1,81.362,184.2137)" d="M0 0C2 0 3.399 1.55 3.399 3.774 3.399 5.999 2 7.548 0 7.548-1.999 7.548-3.398 5.999-3.398 3.774-3.398 1.55-1.999 0 0 0M-6.573 3.774C-6.573 7.548-3.824 10.247 0 10.247 3.824 10.247 6.574 7.548 6.574 3.774 6.574 0 3.824-2.699 0-2.699-3.824-2.699-6.573 0-6.573 3.774" fill="#231f20"/>
<path transform="matrix(1,0,0,-1,96.2116,184.2137)" d="M0 0C2 0 3.399 1.55 3.399 3.774 3.399 5.999 2 7.548 0 7.548-1.999 7.548-3.398 5.999-3.398 3.774-3.398 1.55-1.999 0 0 0M-6.573 3.774C-6.573 7.548-3.824 10.247 0 10.247 3.824 10.247 6.574 7.548 6.574 3.774 6.574 0 3.824-2.699 0-2.699-3.824-2.699-6.573 0-6.573 3.774" fill="#231f20"/>
<path transform="matrix(1,0,0,-1,114.5358,180.4393)" d="M0 0C0 2.225-1.375 3.699-3.399 3.699-5.449 3.699-6.823 2.199-6.823 0-6.823-2.2-5.449-3.699-3.399-3.699-1.375-3.699 0-2.225 0 0M-9.998-.051C-9.998 3.773-7.474 6.473-3.899 6.473-2.25 6.473-.9 5.748-.05 4.424H0V11.946H3.1V-6.174H.175V-4.249H.125C-.675-5.649-2.175-6.474-3.899-6.474-7.474-6.474-9.998-3.8-9.998-.051" fill="#231f20"/>
</g>
</g>
<g id="layer_1" data-name="Icoon">
<g clip-path="url(#clip_2)">
<path transform="matrix(1,0,0,-1,103.4912,114.3413)" d="M0 0C-8.311-2.689-13.98-10.378-13.98-19.248V-22.417H-51.706C-51.958-22.417-52.163-22.212-52.163-21.959V42.437L-54.48 43.62C-60.844 46.871-64.095 53.874-63.399 62.833-62.8 70.55-52.98 80.156-41.218 80.976-35.466 81.376-29.722 79.024-25.448 74.524-23.507 72.48-20.899 71.355-18.103 71.355-15.307 71.355-12.699 72.48-10.759 74.524-6.484 79.024-.733 81.372 5.012 80.976 14.533 80.312 25.738 72.413 26.481 62.833 26.899 57.452 26.379 47.799 18.197 43.62L15.88 42.437V15.728C7.206 14.945 .545 8.394 0 0M34.956 63.492C33.839 77.876 18.877 88.53 5.603 89.455-2.69 90.037-10.895 86.724-16.922 80.377-17.331 79.946-17.79 79.855-18.103 79.855-18.415 79.855-18.874 79.946-19.284 80.377-25.311 86.724-33.519 90.04-41.809 89.455-55.147 88.525-70.775 77.634-71.874 63.491-72.752 52.181-68.595 42.633-60.663 37.4V-21.959C-60.663-26.898-56.645-30.917-51.706-30.917H-9.703V-22.417H-9.73V-19.248C-9.73-11.792-4.66-5.392 2.601-3.683L4.294-3.284 4.238-1.546C4.235-1.448 4.229-1.353 4.222-1.256L4.214-1.115C4.214 6.109 9.982 11.557 17.631 11.557H24.415V15.807H24.38V37.409C32.029 42.52 35.859 51.863 34.956 63.492" fill="#231f20"/>
</g>
</g>
</svg>
