<?xml version="1.0" encoding="UTF-8" standalone="no"?>
<svg
   xmlns:dc="http://purl.org/dc/elements/1.1/"
   xmlns:cc="http://creativecommons.org/ns#"
   xmlns:rdf="http://www.w3.org/1999/02/22-rdf-syntax-ns#"
   xmlns:svg="http://www.w3.org/2000/svg"
   xmlns="http://www.w3.org/2000/svg"
   id="svg5"
   version="1.1"
   viewBox="0 0 30 30">
  <metadata
     id="metadata11">
    <rdf:RDF>
      <cc:Work
         rdf:about="">
        <dc:format>image/svg+xml</dc:format>
        <dc:type
           rdf:resource="http://purl.org/dc/dcmitype/StillImage" />
        <dc:title></dc:title>
      </cc:Work>
    </rdf:RDF>
  </metadata>
  <defs
     id="defs9" />
  <path
     fill-rule="nonzero"
     fill="#FFFFFF"
     id="Oval"
     d="M15,30 C23.2842712,30 30,23.2842712 30,15 C30,6.71572875 23.2842712,0 15,0 C6.71572875,0 -5.32907052e-15,6.71572875 -5.32907052e-15,15 C-5.32907052e-15,23.2842712 6.71572875,30 15,30 Z M15,28.125 C7.75126266,28.125 1.875,22.2487373 1.875,15 C1.875,7.75126266 7.75126266,1.875 15,1.875 C22.2487373,1.875 28.125,7.75126266 28.125,15 C28.125,22.2487373 22.2487373,28.125 15,28.125 Z" />
  <ellipse
     ry="13.438025"
     rx="13.393082"
     cy="14.944019"
     cx="14.921151"
     id="path816"
     style="fill:#d45500;fill-opacity:1;stroke-width:0.14936933;stroke-miterlimit:4;stroke-dasharray:none" />
  <g
     transform="matrix(0.83570573,0,0,0.83648772,2.8304653,2.2866977)"
     id="g833">
    <path
       style="fill:#f2f2f2;fill-opacity:1;stroke-width:0.00898865;stroke-miterlimit:4;stroke-dasharray:none"
       d="m 10.369223,15.116446 c -0.09919,-0.06826 -0.144397,-0.375313 -0.182855,-1.241909 -0.05497,-1.2386 -0.116504,-1.454102 -0.6560846,-2.297603 -0.377904,-0.590758 -0.786934,-0.985683 -1.302167,-1.257262 -0.233369,-0.123008 -0.406345,-0.286009 -0.438746,-0.4134444 -0.02942,-0.115707 -0.03164,-0.8235628 -0.0049,-1.5730129 C 7.8610804,6.183099 8.1887344,5.2568355 9.2297824,4.2473879 10.210943,3.296009 10.59901,3.14284 12.293068,3.0383175 c 1.828666,-0.1128278 5.501883,-0.013923 6.200666,0.1669586 1.224565,0.3169823 2.108831,1.0128472 2.650416,2.0857195 0.524958,1.0399377 0.55707,1.2017821 0.610974,3.0794485 l 0.05051,1.7594119 -0.285248,0.118153 c -0.536799,0.22235 -1.005276,0.639789 -1.394858,1.242896 -0.538202,0.833185 -0.691263,1.337045 -0.747462,2.460568 -0.02637,0.527177 -0.07281,0.99873 -0.10319,1.047894 -0.0774,0.125235 -8.728508,0.238968 -8.905613,0.117079 z"
       id="path818" />
    <path
       style="fill:#f2f2f2;fill-opacity:1;stroke-width:0.00898865;stroke-miterlimit:4;stroke-dasharray:none"
       d="m 4.8857044,25.445766 c -0.111976,-0.07082 -0.137678,-0.66114 -0.167939,-3.857242 l -0.03573,-3.77363 -0.281494,-0.104365 c -0.392495,-0.14552 -0.790658,-0.358595 -0.987829,-0.528634 -0.417692,-0.360214 -0.956564,-1.937905 -0.956564,-2.800594 0,-0.829568 0.585841,-2.200391 1.241974,-2.906124 0.132634,-0.14266 0.504071,-0.380594 0.825415,-0.52874 0.766283,-0.353273 1.881453,-0.439343 2.615704,-0.201882 0.978269,0.316377 1.732008,0.950207 2.074869,1.744788 0.170675,0.395541 0.180777,0.688925 0.229642,6.669233 l 0.05111,6.255491 -0.216032,0.0578 c -0.338471,0.09057 -4.245357,0.06735 -4.393132,-0.02611 z"
       id="path820" />
    <path
       style="fill:#f2f2f2;fill-opacity:1;stroke-width:0.00898865;stroke-miterlimit:4;stroke-dasharray:none"
       d="m 10.240945,17.929374 c -0.03001,-0.0782 -0.05456,-0.538644 -0.05456,-1.02321 0,-0.837677 0.01,-0.883697 0.202245,-0.935229 0.365585,-0.09797 8.604969,-0.06387 8.79231,0.03639 0.15293,0.08185 0.173863,0.194599 0.173863,0.936456 0,0.463874 -0.02455,0.907389 -0.05456,0.985588 -0.04874,0.127017 -0.531872,0.142182 -4.529649,0.142182 -3.997776,0 -4.480908,-0.01517 -4.529649,-0.142182 z"
       id="path822" />
    <path
       style="fill:#f2f2f2;fill-opacity:1;stroke-width:0.00898865;stroke-miterlimit:4;stroke-dasharray:none"
       d="m 10.242564,22.914188 c -0.09034,-0.45168 -0.06455,-3.640391 0.03148,-3.892973 l 0.08766,-0.230568 h 4.408885 4.408886 l 0.08766,0.230568 c 0.09725,0.255789 0.120352,3.101292 0.0305,3.756834 l -0.05716,0.417034 h -4.470869 -4.470869 z"
       id="path824" />
    <path
       style="fill:#f2f2f2;fill-opacity:1;stroke-width:0.00898865;stroke-miterlimit:4;stroke-dasharray:none"
       d="m 20.231196,25.474704 c -0.147575,-0.04282 -0.156848,-0.366196 -0.149976,-5.229992 0.0091,-6.47207 0.04325,-7.165619 0.386916,-7.868046 0.334644,-0.683989 0.76004,-1.096415 1.485411,-1.440124 0.547295,-0.259329 0.663829,-0.280498 1.536033,-0.279016 0.846167,0.0014 1.001782,0.02821 1.504188,0.25883 0.881806,0.404768 1.60289,1.281991 1.957869,2.381813 0.121393,0.376108 0.145643,0.668678 0.10803,1.303354 -0.09312,1.571233 -0.532674,2.416005 -1.524925,2.930714 l -0.606488,0.314602 -2.43e-4,3.747455 c -1.89e-4,2.899253 -0.02568,3.763822 -0.112603,3.819769 -0.122788,0.07903 -4.329081,0.134669 -4.584209,0.06064 z"
       id="path826" />
  </g>
</svg>
