<?xml version="1.0" encoding="UTF-8" standalone="no"?>
<svg
   xmlns:dc="http://purl.org/dc/elements/1.1/"
   xmlns:cc="http://creativecommons.org/ns#"
   xmlns:rdf="http://www.w3.org/1999/02/22-rdf-syntax-ns#"
   xmlns:svg="http://www.w3.org/2000/svg"
   xmlns="http://www.w3.org/2000/svg"
   xmlns:sodipodi="http://sodipodi.sourceforge.net/DTD/sodipodi-0.dtd"
   xmlns:inkscape="http://www.inkscape.org/namespaces/inkscape"
   id="svg5"
   version="1.1"
   viewBox="0 0 30 30"
   sodipodi:docname="afv_brood_plain.svg"
   inkscape:version="0.92.3 (2405546, 2018-03-11)">
  <sodipodi:namedview
     pagecolor="#ffffff"
     bordercolor="#666666"
     borderopacity="1"
     objecttolerance="10"
     gridtolerance="10"
     guidetolerance="10"
     inkscape:pageopacity="0"
     inkscape:pageshadow="2"
     inkscape:window-width="1853"
     inkscape:window-height="1016"
     id="namedview9"
     showgrid="false"
     inkscape:zoom="22.250293"
     inkscape:cx="14.230196"
     inkscape:cy="8.5989527"
     inkscape:window-x="67"
     inkscape:window-y="27"
     inkscape:window-maximized="1"
     inkscape:current-layer="svg5"
     showguides="false" />
  <metadata
     id="metadata11">
    <rdf:RDF>
      <cc:Work
         rdf:about="">
        <dc:format>image/svg+xml</dc:format>
        <dc:type
           rdf:resource="http://purl.org/dc/dcmitype/StillImage" />
        <dc:title />
      </cc:Work>
    </rdf:RDF>
  </metadata>
  <defs
     id="defs9" />
  <path
     fill="#FFFFFF"
     fill-rule="nonzero"
     id="Oval"
     d="M15,30 C23.2842712,30 30,23.2842712 30,15 C30,6.71572875 23.2842712,0 15,0 C6.71572875,0 -5.32907052e-15,6.71572875 -5.32907052e-15,15 C-5.32907052e-15,23.2842712 6.71572875,30 15,30 Z M15,28.125 C7.75126266,28.125 1.875,22.2487373 1.875,15 C1.875,7.75126266 7.75126266,1.875 15,1.875 C22.2487373,1.875 28.125,7.75126266 28.125,15 C28.125,22.2487373 22.2487373,28.125 15,28.125 Z" />
  <ellipse
     ry="13.220338"
     rx="13.542653"
     cy="14.999999"
     cx="14.804805"
     id="path15"
     style="fill:#c87137;fill-opacity:1;stroke-width:1.05790412" />
  <path
     id="path4728"
     d="m 16.826652,23.742624 c -0.179761,-0.121984 -0.621709,-0.415393 -0.982106,-0.652021 -0.360397,-0.236627 -0.624669,-0.479741 -0.58727,-0.540254 0.0374,-0.06051 -0.02646,-0.110022 -0.141912,-0.110022 -0.11545,0 -0.34102,-0.100106 -0.501265,-0.222458 -0.160245,-0.122352 -0.423362,-0.308263 -0.584704,-0.413135 -0.161343,-0.104873 -0.421911,-0.313319 -0.579042,-0.463213 -0.157131,-0.149895 -0.314626,-0.243601 -0.349989,-0.208238 -0.03536,0.03536 -0.316438,-0.142315 -0.62461,-0.394838 -0.308172,-0.252524 -0.625926,-0.459135 -0.70612,-0.459135 -0.08019,0 -0.145806,-0.04865 -0.145806,-0.108117 0,-0.05946 -0.296249,-0.302579 -0.658332,-0.540254 -1.1668964,-0.765965 -1.3125324,-0.879818 -1.2817524,-1.002023 0.01664,-0.06607 -0.04467,-0.09137 -0.136239,-0.05623 -0.09739,0.03737 -0.263851,-0.11689 -0.401071,-0.371693 -0.221273,-0.410879 -0.222571,-0.459822 -0.02288,-0.862956 0.116435,-0.235055 0.382427,-0.656187 0.591092,-0.935848 0.208666,-0.279661 0.4477674,-0.639392 0.5313364,-0.799403 0.08637,-0.165368 0.227314,-0.262006 0.32658,-0.223913 0.09605,0.03686 0.140688,0.01208 0.09919,-0.05506 -0.07817,-0.126475 0.212508,-0.645902 0.601481,-1.074833 0.122909,-0.135535 0.223471,-0.284492 0.223471,-0.331015 0,-0.171615 0.612189,-0.738664 0.706192,-0.654119 0.0535,0.04812 0.05541,0.01482 0.0042,-0.07401 -0.0536,-0.09303 0.03207,-0.318362 0.202077,-0.531492 0.16232,-0.203495 0.426196,-0.559845 0.58639,-0.791889 0.160194,-0.232044 0.617821,-0.879525 1.016949,-1.438848 0.768729,-1.0772663 0.893363,-1.3051946 1.225284,-2.240788 0.233902,-0.6593056 0.612311,-1.0748989 0.846779,-0.9299894 0.0955,0.059021 0.121965,0.042573 0.06911,-0.042949 -0.158201,-0.2559746 0.990991,-0.3206707 2.008878,-0.1130939 0.796378,0.1624047 2.504531,0.8468169 2.74089,1.0982034 0.03496,0.03718 0.320975,0.2056312 0.635593,0.3743356 0.873126,0.4681869 2.645673,1.8871603 3.043607,2.4364933 0.195125,0.269362 0.390984,0.453536 0.435244,0.409277 0.04426,-0.04426 0.08047,-0.01812 0.08047,0.05808 0,0.0762 0.146532,0.312695 0.325625,0.525537 0.340316,0.404442 0.945561,1.807349 0.945561,2.191731 0,0.316051 -0.509883,1.141365 -0.651187,1.054034 -0.0648,-0.04005 -0.102105,0.0029 -0.08289,0.09553 0.01921,0.09259 -0.03658,0.154046 -0.123969,0.136567 -0.08739,-0.01748 -0.158898,0.03154 -0.158898,0.108939 0,0.08084 -0.09301,0.105028 -0.218583,0.05684 -0.12022,-0.04613 -0.184383,-0.04968 -0.142583,-0.0079 0.0418,0.0418 -0.146376,0.31654 -0.418169,0.610532 -0.271793,0.293993 -0.627979,0.679389 -0.791525,0.856437 -0.163546,0.177047 -0.365249,0.448763 -0.448229,0.603813 -0.08298,0.15505 -0.234665,0.281909 -0.337078,0.281909 -0.102413,0 -0.186206,0.0839 -0.186206,0.186441 0,0.102542 -0.200212,0.386652 -0.444915,0.631356 -0.244704,0.244703 -0.444916,0.510145 -0.444916,0.589871 0,0.07973 -0.08512,0.112293 -0.189152,0.07237 -0.104035,-0.03992 -0.179858,-0.03174 -0.168495,0.01818 0.03082,0.135392 -0.305273,0.789917 -0.405611,0.789917 -0.04777,0 -0.362144,0.34322 -0.698606,0.762712 -0.336462,0.419491 -0.691994,0.762712 -0.790072,0.762712 -0.09808,0 -0.145555,0.05302 -0.105507,0.117817 0.08067,0.130524 -1.318624,1.841709 -1.421721,1.738612 -0.03556,-0.03556 -0.147742,0.01842 -0.249286,0.119963 -0.247144,0.247144 -0.666743,0.231979 -1.065336,-0.0385 z"
     style="fill:#ffffff;fill-opacity:1;stroke-width:0.01271186;stroke-miterlimit:4;stroke-dasharray:none" />
  <path
     id="path4730"
     d="m 9.7019816,23.139087 c -0.183075,-0.09949 -0.432044,-0.397518 -0.553263,-0.662284 -0.12122,-0.264765 -0.380341,-0.824612 -0.575825,-1.244103 -0.195483,-0.419492 -0.55539,-1.191738 -0.799793,-1.716102 -0.600072,-1.287451 -1.316394,-2.837713 -1.703374,-3.686441 -0.17533,-0.384533 -0.395945,-0.859395 -0.490256,-1.055247 -0.09431,-0.195852 -0.155169,-0.424666 -0.13524,-0.508475 0.01993,-0.08381 0.01148,-0.107202 -0.01877,-0.05199 -0.03025,0.05522 -0.206787,-0.05124 -0.392301,-0.236571 -0.824685,-0.823874 -0.9568,-1.378247 -0.543137,-2.279078 0.228596,-0.497812 0.723904,-1.048212 0.886558,-0.985169 0.0451,0.01748 0.08199,-0.02128 0.08199,-0.08613 0,-0.402666 3.286746,-2.169942 4.036017,-2.1701579 0.122352,-3.53e-5 0.222458,-0.066801 0.222458,-0.1483692 0,-0.081568 0.03764,-0.1106658 0.08364,-0.064662 0.046,0.046004 0.14611,0.03205 0.2224584,-0.031008 0.413615,-0.3416161 4.312809,-0.7719946 4.579851,-0.5055068 0.09827,0.098063 -0.173809,1.3850754 -0.292806,1.3850754 -0.04905,0 -0.197309,0.185911 -0.329469,0.4131356 -0.132161,0.2272246 -0.293735,0.4489652 -0.359054,0.4927569 -0.06532,0.043792 -0.241238,0.2779483 -0.39093,0.5203483 -0.659662,1.068208 -0.876603,1.370369 -0.983876,1.370369 -0.06301,0 -0.114562,0.07209 -0.114562,0.160198 0,0.08811 -0.128789,0.302621 -0.286197,0.476695 -0.157409,0.174073 -0.510137,0.645417 -0.783842,1.047429 -0.273704,0.402013 -0.545339,0.730933 -0.603633,0.730933 -0.05829,0 -0.09169,0.04575 -0.07421,0.101672 0.0299,0.09564 -0.8324974,1.358667 -1.3459654,1.971242 -0.301109,0.359228 -0.594075,1.060926 -0.587266,1.406593 0.01408,0.714862 0.649674,1.319584 3.0455204,2.897596 0.384533,0.253273 0.852931,0.603532 1.040883,0.778355 0.187952,0.174823 0.369096,0.290495 0.402542,0.257048 0.03345,-0.03345 0.17665,0.05503 0.31823,0.196607 l 0.257419,0.257418 -0.469283,0.151097 c -0.258106,0.0831 -0.526486,0.192664 -0.596402,0.243468 -0.137736,0.100084 -2.184245,0.767587 -2.327764,0.759237 -0.04812,-0.0028 -0.2372784,-0.08649 -0.4203534,-0.18598 z"
     style="fill:#ffffff;fill-opacity:1;stroke-width:0.01271186;stroke-miterlimit:4;stroke-dasharray:none" />
</svg>
