<svg xmlns="http://www.w3.org/2000/svg" xmlns:xlink="http://www.w3.org/1999/xlink" version="1.1" width="170.079pt" height="170.079pt" viewBox="0 0 170.079 170.079">
<defs>
<clipPath id="clip_0">
<path transform="matrix(1,0,0,-1,0,170.079)" d="M0 170.079H170.079V0H0Z"/>
</clipPath>
</defs>
<g id="layer_1" data-name="Witte achtergrond">
<path transform="matrix(1,0,0,-1,0,170.079)" d="M0 0H170.078V170.078H0Z" fill="#ffffff"/>
</g>
<g id="layer_1" data-name="Icoon">
<g clip-path="url(#clip_0)">
<path transform="matrix(1,0,0,-1,136.1655,143.2681)" d="M0 0C0-.452-.313-.82-.699-.82H-75.901C-76.287-.82-76.6-.452-76.6 0V38.159H-78.083V38.175C-83.199 38.175-85.489 42.548-85.489 46.881-85.489 51.681-81.584 55.586-76.784 55.586-71.983 55.586-68.078 51.681-68.078 46.881V32.574C-69.389 31.849-70.29 30.469-70.29 28.867V18.167C-70.29 15.822-68.382 13.915-66.038 13.915H-10.7C-8.355 13.915-6.448 15.822-6.448 18.167V28.867C-6.448 30.465-7.344 31.843-8.65 32.569V46.881C-8.65 51.681-4.745 55.586 .056 55.586 4.856 55.586 8.762 51.681 8.762 46.881 8.762 42.548 6.469 38.175 1.348 38.175V38.159H0ZM-37.947 49.285C-38.457 49.285-38.97 49.26-39.479 49.209-38.571 50.234-37.803 51.394-37.226 52.631-37.017 52.412-36.825 52.176-36.649 51.92-36.041 51.033-35.702 50.025-35.523 49.079-36.317 49.219-37.13 49.285-37.947 49.285M-46.967 49.1C-48.943 48.662-49.651 48.979-49.818 49.089-49.92 49.153-50.036 49.257-50.128 49.678-50.294 50.435-50.058 51.647-49.153 52.652-47.985 53.949-45.979 54.631-43.399 54.631-42.81 54.631-42.188 54.596-41.542 54.523-41.312 54.497-41.087 54.466-40.87 54.427-42.039 51.831-44.432 49.66-46.967 49.1M-45.436 42.034C-44.871 43.145-43.51 44.058-41.498 44.673-40.506 44.977-39.252 45.205-37.95 45.205-37.206 45.205-36.447 45.131-35.713 44.952-36.704 42.514-39.161 40.21-41.936 39.189-43.159 38.738-44.216 38.672-44.908 38.999-45.354 39.21-45.488 39.515-45.519 39.603-45.829 40.496-45.801 41.314-45.436 42.034M-10.697 18.167H-66.038V28.867H-10.7ZM-68.105 83.378C-68.105 83.824-67.628 84.2-67.063 84.2H-9.652C-9.088 84.2-8.61 83.824-8.61 83.378V61.725C-13.711 58.735-17.154 53.208-17.154 46.881V33.119H-27.736C-27.066 34.881-26.126 38.301-27.192 41.778-27.992 44.386-29.458 46.229-31.284 47.438-31.333 49.449-31.807 52.003-33.233 54.131-33.986 55.255-34.946 56.184-36.085 56.9-35.814 60.619-37.492 63.869-40.796 65.937-42.375 66.926-43.983 67.597-45.575 67.933L-46.415 63.953C-45.292 63.715-44.128 63.223-42.954 62.489-41.083 61.317-40.36 59.824-40.177 58.435-40.476 58.488-40.78 58.532-41.091 58.566-47.262 59.257-50.524 57.211-52.177 55.374-53.847 53.519-54.584 51.002-54.102 48.805-53.795 47.409-53.091 46.352-52.009 45.66-51.062 45.055-49.907 44.776-48.492 44.809-48.727 44.484-48.914 44.17-49.063 43.876-49.936 42.157-50.039 40.218-49.362 38.269-48.923 37.004-47.934 35.931-46.648 35.322-45.455 34.758-43.425 34.306-40.531 35.371-36.917 36.7-33.767 39.566-32.219 42.806-31.744 42.207-31.354 41.475-31.083 40.586-30.172 37.617-31.559 34.445-31.826 33.877-31.975 33.647-32.09 33.39-32.205 33.119H-59.574V46.881C-59.574 53.203-63.011 58.725-68.105 61.717ZM17.799-6.242 8.504 22.183V31.344C13.83 34.031 17.266 39.748 17.266 46.881 17.266 56.37 9.545 64.09 .056 64.09 0 64.09-.054 64.082-.11 64.082V83.378C-.11 88.519-4.391 92.7-9.652 92.7H-14.557L-25.384 125.808-34.888 122.699-25.078 92.7H-27.115L-42.772 124.824-51.761 120.442-38.239 92.7H-67.063C-72.325 92.7-76.605 88.519-76.605 83.378V64.081C-76.665 64.082-76.724 64.09-76.784 64.09-86.273 64.09-93.993 56.37-93.993 46.881-93.993 39.689-90.502 33.937-85.104 31.279V0C-85.104-5.142-80.976-9.324-75.901-9.324H-.699C2.477-9.324 5.283-7.685 6.937-5.198L8.295-9.35Z" fill="#231f20"/>
<path transform="matrix(1,0,0,-1,44.4999,57.514795)" d="M0 0 15.086 13.27-13.671 34.579-28.385 21.636-11.189-9.842-3.349-2.946 .601-11.949-21.571-86.604H-27.443V-95.104H-10.489V-86.604H-17.137L5.118-11.667Z" fill="#231f20"/>
</g>
</g>
</svg>
