<svg width="36" height="36" viewBox="0 0 36 36" fill="none" xmlns="http://www.w3.org/2000/svg">
<path d="M36 18C36 27.9411 27.9411 36 18 36C8.05887 36 0 27.9411 0 18C0 8.05887 8.05887 0 18 0C27.9411 0 36 8.05887 36 18Z" fill="#643021"/>
<path d="M25.4511 16.6154V21.0344H24.2909C22.9942 21.0344 22.0046 21.9728 22.0046 23.2013V23.2183C22.0046 23.2354 22.0046 23.2525 22.0046 23.2695L22.0216 23.5596L21.7316 23.6278C20.4861 23.9179 19.633 25.0098 19.633 26.2895V28.2857H12.467C11.631 28.2857 10.9314 27.6032 10.9314 26.7501V16.6154C9.58353 15.7282 8.86693 14.0902 9.02049 12.1622C9.20817 9.75652 11.8698 7.89678 14.1561 7.72616C15.5722 7.62379 16.9713 8.18683 17.995 9.27879C18.0633 9.34704 18.1486 9.3641 18.1998 9.3641C18.251 9.3641 18.3363 9.34704 18.4045 9.27879C19.4282 8.20389 20.8273 7.62379 22.2434 7.72616C24.5127 7.87972 27.0549 9.70534 27.2596 12.1622C27.3961 14.1585 26.7478 15.7452 25.4511 16.6154Z" fill="white"/>
</svg>
