<?xml version="1.0" encoding="UTF-8" standalone="no"?>
<svg
   xmlns:dc="http://purl.org/dc/elements/1.1/"
   xmlns:cc="http://creativecommons.org/ns#"
   xmlns:rdf="http://www.w3.org/1999/02/22-rdf-syntax-ns#"
   xmlns:svg="http://www.w3.org/2000/svg"
   xmlns="http://www.w3.org/2000/svg"
   xmlns:sodipodi="http://sodipodi.sourceforge.net/DTD/sodipodi-0.dtd"
   xmlns:inkscape="http://www.inkscape.org/namespaces/inkscape"
   viewBox="0 0 30 30"
   version="1.1"
   id="svg5"
   sodipodi:docname="afv_onbekend.svg"
   inkscape:version="0.92.3 (2405546, 2018-03-11)">
  <metadata
     id="metadata11">
    <rdf:RDF>
      <cc:Work
         rdf:about="">
        <dc:format>image/svg+xml</dc:format>
        <dc:type
           rdf:resource="http://purl.org/dc/dcmitype/StillImage" />
        <dc:title></dc:title>
      </cc:Work>
    </rdf:RDF>
  </metadata>
  <defs
     id="defs9" />
  <sodipodi:namedview
     pagecolor="#ffffff"
     bordercolor="#666666"
     borderopacity="1"
     objecttolerance="10"
     gridtolerance="10"
     guidetolerance="10"
     inkscape:pageopacity="0"
     inkscape:pageshadow="2"
     inkscape:window-width="1853"
     inkscape:window-height="1016"
     id="namedview7"
     showgrid="false"
     inkscape:zoom="7.8666667"
     inkscape:cx="-10.042373"
     inkscape:cy="15"
     inkscape:window-x="67"
     inkscape:window-y="27"
     inkscape:window-maximized="1"
     inkscape:current-layer="svg5" />
  <path
     d="m 15,30.254237 c 8.284272,0 15,-6.715729 15,-15 0,-8.2842713 -6.715728,-15 -15,-15 -8.2842713,0 -15.0000003220339,6.7157287 -15.0000003220339,15 0,8.284271 6.7157290220339,15 15.0000003220339,15 z"
     id="Path"
     inkscape:connector-curvature="0"
     style="fill:#4d4d4d" />
  <path
     d="m 15,30.254237 c 8.284272,0 15,-6.715729 15,-15 C 30,6.969966 23.284272,0.2542373 15,0.2542373 6.7157287,0.2542373 -3.220339e-7,6.969966 -3.220339e-7,15.254237 c 0,8.284271 6.7157290220339,15 15.0000003220339,15 z m 0,-1.875 c -7.2487373,0 -13.1250003,-5.876263 -13.1250003,-13.125 0,-7.2487371 5.876263,-13.1249997 13.1250003,-13.1249997 7.248738,0 13.125,5.8762626 13.125,13.1249997 0,7.248737 -5.876262,13.125 -13.125,13.125 z"
     id="Oval"
     inkscape:connector-curvature="0"
     style="fill:#ffffff;fill-rule:nonzero" />
  <text
     xml:space="preserve"
     style="font-style:normal;font-variant:normal;font-weight:bold;font-stretch:normal;font-size:31.13810539px;line-height:1.25;font-family:sans-serif;-inkscape-font-specification:'sans-serif, Bold';font-variant-ligatures:normal;font-variant-caps:normal;font-variant-numeric:normal;font-feature-settings:normal;text-align:start;letter-spacing:0px;word-spacing:0px;writing-mode:lr-tb;text-anchor:start;fill:#000000;fill-opacity:1;stroke:none;stroke-width:0.77845877"
     x="6.9791136"
     y="26.674374"
     id="text3737"
     transform="scale(0.98515675,1.0150669)"><tspan
       sodipodi:role="line"
       id="tspan3735"
       x="6.9791136"
       y="26.674374"
       style="font-style:normal;font-variant:normal;font-weight:bold;font-stretch:normal;font-size:31.13810539px;font-family:sans-serif;-inkscape-font-specification:'sans-serif, Bold';font-variant-ligatures:normal;font-variant-caps:normal;font-variant-numeric:normal;font-feature-settings:normal;text-align:start;writing-mode:lr-tb;text-anchor:start;fill:#e6e6e6;stroke-width:0.77845877">?</tspan></text>
</svg>
