<?xml version="1.0" encoding="UTF-8" standalone="no"?>
<svg
   xmlns:dc="http://purl.org/dc/elements/1.1/"
   xmlns:cc="http://creativecommons.org/ns#"
   xmlns:rdf="http://www.w3.org/1999/02/22-rdf-syntax-ns#"
   xmlns:svg="http://www.w3.org/2000/svg"
   xmlns="http://www.w3.org/2000/svg"
   id="svg5"
   version="1.1"
   viewBox="0 0 30 30">
  <metadata
     id="metadata11">
    <rdf:RDF>
      <cc:Work
         rdf:about="">
        <dc:format>image/svg+xml</dc:format>
        <dc:type
           rdf:resource="http://purl.org/dc/dcmitype/StillImage" />
        <dc:title></dc:title>
      </cc:Work>
    </rdf:RDF>
  </metadata>
  <defs
     id="defs9" />
  <path
     fill-rule="nonzero"
     fill="#FFFFFF"
     id="Oval"
     d="M15,30 C23.2842712,30 30,23.2842712 30,15 C30,6.71572875 23.2842712,0 15,0 C6.71572875,0 -5.32907052e-15,6.71572875 -5.32907052e-15,15 C-5.32907052e-15,23.2842712 6.71572875,30 15,30 Z M15,28.125 C7.75126266,28.125 1.875,22.2487373 1.875,15 C1.875,7.75126266 7.75126266,1.875 15,1.875 C22.2487373,1.875 28.125,7.75126266 28.125,15 C28.125,22.2487373 22.2487373,28.125 15,28.125 Z" />
  <path
     id="path3776"
     d="M 12.378127,28.385232 C 8.1653518,27.600582 4.3379678,24.548207 2.4984832,20.506126 1.6865541,18.721994 1.4508516,17.666249 1.3734046,15.46673 1.2917882,13.148727 1.4776465,11.835619 2.1459138,10.008964 2.8371825,8.119435 3.6934103,6.7544501 5.1088583,5.2854824 6.8515357,3.4769129 8.5453089,2.40749 10.966009,1.5873658 12.039095,1.2238086 12.15846,1.2123546 14.935856,1.2064265 c 2.815906,-0.00601 2.881883,2.732e-4 3.969847,0.3780556 2.249558,0.7811334 4.060535,1.8789933 5.616656,3.4049561 2.663519,2.6119034 4.050219,5.9978918 4.043997,9.8744738 -0.0031,1.947444 -0.300444,3.434714 -1.063996,5.322405 -1.308483,3.234893 -4.267643,6.157739 -7.555358,7.462636 -2.232901,0.88624 -5.209245,1.175772 -7.568875,0.736279 z m 9.399642,-6.019593 c 1.391515,-3.079369 1.779097,-5.934846 1.018344,-7.502584 -0.666697,-1.373908 -2.053354,-2.179771 -3.971882,-2.308279 l -1.057663,-0.07085 -0.392835,1.056032 c -1.149652,3.090529 -1.686967,5.365057 -1.806197,7.645888 l -0.08539,1.633359 0.312567,0.07814 c 0.171913,0.04297 1.396141,0.246158 2.720509,0.451516 1.740646,0.269905 2.459252,0.333896 2.593104,0.230912 0.101838,-0.07835 0.403087,-0.624717 0.669438,-1.214138 z m -10.551441,0.562187 c 0.564377,-0.283547 0.748398,-0.576047 0.604767,-0.961272 -0.05719,-0.153411 -0.16597,-0.152163 -0.682488,0.0078 -0.779591,0.241473 -2.6935257,0.236247 -3.3628845,-0.0092 -0.5917409,-0.216972 -0.7244805,-0.170503 -0.7244805,0.253623 0,1.035273 2.6259488,1.482276 4.165086,0.709002 z m 1.822224,-6.310339 v -5.81513 l -0.943651,-0.158421 c -0.519009,-0.08713 -1.167187,-0.207634 -1.440397,-0.267783 -0.343771,-0.07569 -0.514443,-0.06156 -0.554216,0.04585 -0.03161,0.08537 -0.107385,1.21014 -0.1683868,2.4995 -0.1084508,2.292283 -0.1048587,2.348747 0.1619288,2.545228 0.693543,0.510776 1.576762,1.305092 1.808059,1.626062 0.232367,0.322454 0.252977,0.562289 0.235037,2.735026 -0.02086,2.527101 -0.0042,2.598457 0.608769,2.60275 l 0.292857,0.002 z m 1.125922,5.590224 c 0.639625,-0.207511 0.698889,-0.261908 0.766224,-0.703287 0.277156,-1.81676 0.785388,-4.092172 1.258807,-5.635817 0.513069,-1.672926 0.557779,-1.937877 0.596632,-3.535518 0.02375,-0.976816 -0.01177,-1.782404 -0.08177,-1.854452 -0.07826,-0.08054 -0.727201,-0.03824 -1.764636,0.115013 l -1.640863,0.242394 v 5.798286 c 0,3.189059 0.03878,5.798288 0.08619,5.798288 0.04739,0 0.398141,-0.101208 0.779426,-0.224907 z m -2.850527,-0.58726 c 0.518955,-0.229321 0.650988,-0.382104 0.481212,-0.556837 -0.03957,-0.04074 -0.34708,0.01168 -0.683334,0.116487 -0.815522,0.254181 -2.3999243,0.242681 -3.2599283,-0.02366 -0.7450099,-0.230727 -0.8495282,-0.21641 -0.7314788,0.100207 0.2614079,0.701108 2.9101861,0.9309 4.1935291,0.363806 z m -0.937643,-0.539908 c 0.931353,-0.177196 1.490818,-0.456157 1.490818,-0.743352 0,-0.164852 -0.08107,-0.192874 -0.357936,-0.123732 -1.6040154,0.400554 -2.9801077,0.401098 -3.9092465,0.0016 -0.5199848,-0.223607 -0.6067761,-0.191144 -0.4911738,0.183722 0.1207402,0.391528 0.793818,0.623076 2.3590506,0.811546 0.076333,0.0092 0.4851557,-0.04918 0.9084877,-0.129728 z m 0.445035,-0.936753 c 0.790412,-0.174462 1.045783,-0.406783 1.045783,-0.95139 0,-0.358719 -0.03533,-0.397762 -0.292857,-0.323614 -0.161072,0.04638 -0.711521,0.153681 -1.223219,0.238454 -0.8852683,0.146664 -1.9386153,0.06264 -3.0069464,-0.239852 -0.2564368,-0.07261 -0.2928576,-0.03304 -0.2928576,0.318177 0,0.220607 0.087299,0.475671 0.1940046,0.566812 0.5891647,0.503241 2.247242,0.684722 3.5760924,0.391413 z M 11.179851,18.598 c 0.396281,-0.102368 0.391631,-0.267164 -0.01046,-0.371032 -0.174495,-0.04507 -0.713884,-0.270892 -1.1986445,-0.501816 -0.8426039,-0.40139 -0.9152929,-0.413372 -1.6521912,-0.27233 -0.7098947,0.135874 -1.2573052,0.444623 -1.2573052,0.709143 0,0.162482 0.4646535,0.387009 1.0798687,0.521812 0.5443437,0.119272 2.4535722,0.06538 3.0387402,-0.08578 z m 0.694766,-0.783874 c 0.259782,-0.322159 -1.176431,-1.7012 -2.3889145,-2.293818 -1.6719473,-0.817189 -2.1307838,-0.418832 -0.9246898,0.802805 0.7518096,0.761497 2.3233953,1.688845 2.8621043,1.688845 0.160585,0 0.363759,-0.08903 0.4515,-0.197832 z m 8.022274,-5.664943 c 0.466187,-0.316085 0.280422,-1.353972 -0.290236,-1.621574 -0.467003,-0.218994 -1.298398,-0.187105 -1.537493,0.05897 -0.277178,0.28527 -0.401728,0.855787 -0.24375,1.11653 0.07626,0.125873 0.471952,0.276571 0.962818,0.366686 0.458341,0.08415 0.862632,0.158574 0.898426,0.165398 0.03579,0.0068 0.130399,-0.03188 0.210235,-0.08601 z m -7.238815,-1.902259 c 0,-0.07114 -0.212988,-0.5281465 -0.473308,-1.015567 L 11.711462,8.3451378 11.014376,9.053666 c -0.383397,0.3896909 -0.653624,0.7525043 -0.600504,0.806253 0.05312,0.053745 0.535868,0.186167 1.072773,0.294262 1.24041,0.249729 1.171431,0.244269 1.171431,0.09275 z m 2.262248,-0.08507 C 15.64474,10.043917 16.321517,9.8996331 16.424273,9.8412181 16.567747,9.7596529 16.41946,9.52964 15.785386,8.8500067 14.870554,7.8694856 14.839767,7.8604349 13.067645,8.0510665 c -0.576816,0.06205 -0.800046,0.1406832 -0.800046,0.2818193 0,0.3590977 0.939233,2.0433872 1.139481,2.0433872 0.107868,0 0.788828,-0.09649 1.513244,-0.214424 z M 14.699977,7.4082914 c 0.09394,-0.08024 0.1708,-0.2980917 0.1708,-0.4841158 V 6.5859498 l -1.398891,0.093081 c -0.769391,0.051194 -1.450388,0.1460822 -1.51333,0.2108611 -0.06294,0.064779 -0.0745,0.2815614 -0.02568,0.4817393 l 0.08876,0.3639599 1.253773,-0.090705 c 0.689575,-0.049887 1.330633,-0.1563554 1.424573,-0.2365951 z"
     style="fill:#ffd42a;fill-opacity:1;stroke-width:0.13204548" />
  <path
     id="path3778"
     d="m 21.639101,19.162559 c -0.564947,-0.760097 -1.040963,-2.227291 -1.043552,-3.216473 -0.0021,-0.810483 0.02169,-0.893257 0.266999,-0.928264 0.346569,-0.04946 1.397317,0.983558 1.717609,1.688621 0.336156,0.739986 0.313941,1.822484 -0.04838,2.357231 -0.388568,0.573491 -0.528411,0.588982 -0.892679,0.09889 z"
     style="fill:#ffd42a;fill-opacity:1;stroke-width:0.12711865" />
</svg>
