<svg xmlns="http://www.w3.org/2000/svg" xmlns:xlink="http://www.w3.org/1999/xlink" version="1.1" width="170.079pt" height="170.079pt" viewBox="0 0 170.079 170.079">
<defs>
<clipPath id="clip_0">
<path transform="matrix(1,0,0,-1,0,170.079)" d="M0 170.079H170.079V0H0Z"/>
</clipPath>
</defs>
<g id="layer_1" data-name="Witte achtergrond">
<path transform="matrix(1,0,0,-1,0,170.079)" d="M0 0H170.078V170.078H0Z" fill="#ffffff"/>
</g>
<g id="layer_1" data-name="Icoon">
<g clip-path="url(#clip_0)">
<path transform="matrix(1,0,0,-1,103.4912,114.34169)" d="M0 0C-8.311-2.688-13.98-10.378-13.98-19.248V-22.417H-51.706C-51.958-22.417-52.163-22.212-52.163-21.959V42.437L-54.48 43.62C-60.844 46.871-64.095 53.874-63.399 62.833-62.8 70.55-52.98 80.156-41.218 80.976-35.466 81.376-29.722 79.024-25.448 74.524-23.507 72.48-20.899 71.355-18.103 71.355-15.307 71.355-12.699 72.48-10.759 74.524-6.484 79.024-.733 81.372 5.012 80.976 14.533 80.312 25.738 72.413 26.481 62.833 26.899 57.452 26.379 47.799 18.197 43.62L15.88 42.437V15.728C7.206 14.945 .545 8.394 0 0M34.956 63.492C33.839 77.876 18.877 88.53 5.603 89.455-2.69 90.037-10.895 86.724-16.922 80.377-17.332 79.946-17.791 79.855-18.103 79.855-18.416 79.855-18.874 79.946-19.284 80.377-25.312 86.724-33.52 90.04-41.809 89.455-55.147 88.525-70.775 77.634-71.874 63.491-72.752 52.181-68.595 42.633-60.663 37.4V-21.959C-60.663-26.898-56.645-30.917-51.706-30.917H-9.703V-22.417H-9.73V-19.248C-9.73-11.792-4.66-5.392 2.601-3.683L4.294-3.284 4.238-1.546C4.235-1.448 4.229-1.353 4.222-1.256L4.214-1.115C4.214 6.109 9.982 11.557 17.631 11.557H24.415V15.807H24.38V37.409C32.029 42.521 35.859 51.863 34.956 63.492" fill="#231f20"/>
</g>
</g>
</svg>
