<svg width="36" height="36" viewBox="0 0 36 36" fill="none" xmlns="http://www.w3.org/2000/svg">
<g clip-path="url(#clip0_2181_2271)">
<path d="M18 36C27.9411 36 36 27.9411 36 18C36 8.05887 27.9411 0 18 0C8.05887 0 0 8.05887 0 18C0 27.9411 8.05887 36 18 36Z" fill="black"/>
<path d="M23.6777 29H10.8232L10.0791 17.25H24.4209L23.6777 29Z" fill="white"/>
<path d="M23.3545 7.92685C24.1014 6.17279 25.3233 7.24131 25.8965 8.3995C26.4692 9.55751 24.4608 10.9361 23.6924 10.3556C23.5426 11.1607 23.2726 11.5831 22.9082 11.6436C22.5481 11.7044 22.1825 11.431 21.9492 11.1788C21.5738 10.733 21.6125 10.2279 21.959 9.76962C21.0339 9.76574 20.6723 9.59181 20.627 9.3497C20.5248 8.79871 21.3611 8.37721 21.7354 8.15146C21.5556 6.85609 22.781 6.76857 23.3545 7.92685Z" fill="white"/>
<path fill-rule="evenodd" clip-rule="evenodd" d="M20.3027 8C19.5205 8.77893 19.4111 10.1265 20.6699 10.5293C20.708 11.9806 22.6519 13.1703 23.8105 12.0566L24.5 15.7334H10L11.2275 9.18848C11.3259 8.50716 11.9241 8.00015 12.6289 8H20.3027ZM15.0938 10.5C14.6687 10.5 14.2897 10.7687 14.1494 11.1699L13.7139 12.4199C13.4873 13.0697 13.9692 13.7496 14.6572 13.75H19.8418C20.5302 13.75 21.0128 13.0699 20.7861 12.4199L20.3506 11.1699C20.2103 10.7687 19.8313 10.5 19.4062 10.5H15.0938Z" fill="white"/>
</g>
<defs>
<clipPath id="clip0_2181_2271">
<rect width="36" height="36" fill="white"/>
</clipPath>
</defs>
</svg>
