<?xml version="1.0" encoding="UTF-8"?>
<svg id="Layer_1" xmlns="http://www.w3.org/2000/svg" xmlns:xlink="http://www.w3.org/1999/xlink" version="1.1" viewBox="0 0 154.2 226.6">
  <!-- Generator: Adobe Illustrator 29.6.1, SVG Export Plug-In . SVG Version: 2.1.1 Build 9)  -->
  <defs>
    <style>
      .st0 {
        fill: none;
      }

      .st1 {
        fill: #ed1c24;
      }

      .st2 {
        fill: #f9ec00;
      }

      .st3 {
        clip-path: url(#clippath);
      }
    </style>
    <clipPath id="clippath">
      <rect class="st0" y="0" width="154.2" height="226.6"/>
    </clipPath>
  </defs>
  <g class="st3">
    <path class="st1" d="M133.9,28.4c-2-2.7-4.2-5.2-6.7-7.7-27.7-27.7-72.5-27.7-100.2,0C-.6,48.4-.6,93.3,27,121c27.7,27.7,72.5,27.7,100.2,0,2.4-2.4,4.6-5,6.6-7.7l-20.9-20.9-14.3,14.3-21.5-21.5-21.5,21.5-14.3-14.3,21.5-21.5-21.5-21.5,14.3-14.3,21.5,21.5,21.5-21.5,14.3,14.3,20.9-20.9h0Z"/>
  </g>
  <polygon class="st2" points="41.3 92.4 62.8 70.9 41.3 49.4 55.7 35 77.2 56.5 98.7 35 113 49.4 91.5 70.9 113 92.4 98.7 106.7 77.2 85.2 55.7 106.7 41.3 92.4"/>
  <polygon class="st2" points="0 149.5 77.2 226.6 154.2 149.6 154.2 149.3 0 149.3 0 149.5"/>
</svg>