<?xml version="1.0" encoding="UTF-8"?>
<svg width="230" height="230" xmlns="http://www.w3.org/2000/svg" version="1.1">
 <!-- Generator: Adobe Illustrator 29.6.1, SVG Export Plug-In . SVG Version: 2.1.1 Build 9)  -->
 <defs>
  <clipPath id="clippath">
   <rect x="38" id="svg_1" fill="none" height="226.6" width="154.2" y="1.075" class="st0"/>
  </clipPath>
 </defs>
 <g>
  <title>Layer 1</title>
  <rect fill="#a00078" stroke="#000" x="-0.59701" y="-0.10945" width="231" height="231" id="svg_7" stroke-width="0"/>
  <g id="svg_6">
   <g id="svg_2" clip-path="url(#clippath)" class="st3">
    <path id="svg_3" fill="#ed1c24" d="m171.9,29.475c-2,-2.7 -4.2,-5.2 -6.7,-7.7c-27.7,-27.7 -72.5,-27.7 -100.2,0c-27.6,27.7 -27.6,72.6 0,100.3c27.7,27.7 72.5,27.7 100.2,0c2.4,-2.4 4.6,-5 6.6,-7.7l-20.9,-20.9l-14.3,14.3l-21.5,-21.5l-21.5,21.5l-14.3,-14.3l21.5,-21.5l-21.5,-21.5l14.3,-14.3l21.5,21.5l21.5,-21.5l14.3,14.3l20.9,-20.9l0,0l0.1,-0.1z" class="st1"/>
   </g>
   <polygon id="svg_4" fill="#f9ec00" points="79.30000305175781,93.47500610351562 100.80000305175781,71.97500610351562 79.30000305175781,50.47500228881836 93.69999694824219,36.07500076293945 115.19999694824219,57.57500076293945 136.6999969482422,36.07500076293945 151,50.47500228881836 129.5,71.97500610351562 151,93.47500610351562 136.6999969482422,107.77499389648438 115.19999694824219,86.27499389648438 93.69999694824219,107.77499389648438 79.30000305175781,93.47500610351562 " class="st2"/>
   <polygon id="svg_5" fill="#f9ec00" points="38,150.5749969482422 115.19999694824219,227.6750030517578 192.1999969482422,150.6750030517578 192.1999969482422,150.375 38,150.375 38,150.5749969482422 " class="st2"/>
  </g>
 </g>
</svg>
