<?xml version="1.0" encoding="utf-8"?>

<!DOCTYPE svg PUBLIC "-//W3C//DTD SVG 1.1//EN" "http://www.w3.org/Graphics/SVG/1.1/DTD/svg11.dtd">
<!-- Uploaded to: SVG Repo, www.svgrepo.com, Generator: SVG Repo Mixer Tools -->
<svg height="800px" width="800px" version="1.1" id="_x32_" xmlns="http://www.w3.org/2000/svg" xmlns:xlink="http://www.w3.org/1999/xlink" 
	 viewBox="0 0 512 512"  xml:space="preserve">
<style type="text/css">
	.st0{fill:#ff9100;}
</style>
<g>
	<path class="st0" d="M178.209,188.678c0-29.511-14.406-55.596-36.512-71.812l15.256-29.283c2.928-5.638,0.74-12.572-4.898-15.509
		c-5.621-2.936-12.571-0.749-15.5,4.889l-15.004,28.796c-10.072-3.946-20.986-6.185-32.447-6.185
		c-12.244,0-23.915,2.482-34.534,6.942L35.056,76.062c-3.433-5.343-10.543-6.909-15.887-3.475
		c-5.352,3.433-6.909,10.535-3.484,15.887l19.051,29.721C13.648,134.495,0,159.967,0,188.678c0,49.202,39.903,89.097,89.105,89.097
		C138.306,277.775,178.209,237.88,178.209,188.678z"/>
	<path class="st0" d="M231.273,343.057c-7.809-9.046-17.528-16.796-29.788-22.35l-0.118,0.303
		c-3.13,8.171-5.832,15.534-8.398,21.475c-1.902,4.444-3.72,8.062-5.268,10.586c-1.162,1.902-2.138,3.173-2.802,3.905
		c-1.052,1.111-1.12,0.992-1.145,1.035c-0.059-0.009-0.463,0.362-3.332,0.396c-1.96-0.017-3.56-0.185-5.024-0.42
		c-6.58,8.768-14.154,16.164-22.409,22.105c-17.444,12.581-37.37,19.194-56.211,21.87c7.868,9.281,17.225,17.789,28.501,24.487
		c15.87,9.534,35.225,14.877,55.142,14.785c14.364,0.059,28.746-3.139,41.006-9.45c10.746-5.47,19.54-13.01,26.255-20.785
		c3.012-3.475,5.654-7.001,7.994-10.518c-0.286-2.255-0.588-4.51-1.018-6.8C251.351,376.17,243.929,357.766,231.273,343.057z"/>
	<path class="st0" d="M490.081,288.546c-20.179-10.771-45.255-3.148-56.026,17.023c-3.753,7.026-7.068,13.825-10.148,20.111
		c3.685,1.81,7.758,3.939,12.083,6.471c15.635,9.24,34.333,23.326,45.76,44.119c1.632,2.971,3.046,6.1,4.308,9.349
		c2.356-4.157,4.577-8.28,6.631-12.277c5.453-10.679,10.098-20.684,14.423-28.754C517.883,324.41,510.26,299.317,490.081,288.546z"
		/>
	<path class="st0" d="M159.276,347.694c-3.677-4.552-7.59-11.082-11.057-19.48c-3.736-8.894-6.866-19.674-9.374-31.312
		c-15.138,7.094-31.951,11.167-49.74,11.167c-11.622,0-22.83-1.759-33.45-4.906c1.044,5.722,2.188,11.444,3.526,17.166
		c3.24,13.776,7.405,27.492,13.018,40.787c3.315,7.818,7.144,15.492,11.646,22.905c1.852-0.101,3.669-0.16,5.555-0.361
		c17.712-1.827,36.688-7.691,52.39-19.06C148.218,359.928,154.1,354.333,159.276,347.694z"/>
	<path class="st0" d="M350.108,337.461c6.867-9.854,10.974-21.744,13.229-33.424c1.666-8.592,2.305-16.997,2.44-24.251
		c-2.221-2.802-4.612-5.588-7.254-8.314c-7.422-7.666-16.88-14.911-28.232-19.985c-11.31-5.116-24.286-7.809-37.345-7.767
		c-7.153-0.008-14.28,0.766-21.196,2.398c-12.968,2.988-24.892,9.298-34.022,17.024c-8.052,6.732-14.128,14.297-18.916,21.651
		c-4.031,6.244-7.228,12.362-9.955,18.261c15.122,6.774,27.399,16.409,36.924,27.558c11.352,13.254,18.942,28.451,23.679,43.631
		c2.491-5.874,4.628-11.478,6.606-16.653c2.752-7.28,5.226-13.742,7.523-18.808c1.708-3.804,3.324-6.799,4.62-8.785
		c0.976-1.498,1.75-2.432,2.214-2.894l0.403-0.37l0.236-0.059c0.336-0.059,0.934-0.127,1.884-0.127
		c2.71,0.06,3.021,0.371,3.593,0.59c0.471,0.235,1.296,0.715,2.836,2.331c1.321,1.388,3.063,3.636,4.974,6.74
		c3.391,5.403,7.169,13.33,11.192,22.536c0.286,0.656,0.606,1.388,0.9,2.052c1.086-0.302,2.272-0.53,3.307-0.867
		C333.817,355.267,343.208,347.324,350.108,337.461z"/>
	<path class="st0" d="M441.51,358.927c-9.088-7.136-18.714-12.521-26.304-16.224c-0.993,1.818-1.986,3.551-2.928,5.099
		c-2.29,3.863-4.359,6.606-5.924,8.449l-0.455-0.665c-2.979-4.485-6.917-12.68-11.242-22.653
		c-3.281-7.497-6.899-15.988-11.36-24.941c-0.303-0.589-0.656-1.22-0.976-1.817c-2.474,13.732-7.169,28.416-16.09,41.586
		c-8.852,13.043-22.148,24.353-40.526,30.335l-1.33,0.354c0.438,0.942,0.825,1.834,1.279,2.794
		c2.895,5.991,6.143,12.201,10.182,18.53c3.012,4.746,6.496,9.558,10.704,14.305c6.277,7.068,14.423,14.078,24.689,19.202
		c10.215,5.168,22.367,8.011,34.282,7.952c8.482,0.009,16.965-1.347,24.773-3.938c6.85-2.256,13.127-5.402,18.664-9.012
		c9.593-6.286,16.931-13.784,22.889-21.231c-0.824-7.725-3.181-14.684-6.598-21.13C459.602,375.336,450.884,366.24,441.51,358.927z"
		/>
</g>
</svg>
