<?xml version="1.0" encoding="UTF-8"?>
<svg viewBox="0 0 16 16" version="1.1" xmlns="http://www.w3.org/2000/svg" xmlns:xlink="http://www.w3.org/1999/xlink">
    <path d="M8,16 C12.418278,16 16,12.418278 16,8 C16,3.581722 12.418278,0 8,0 C3.581722,0 -5.32907052e-15,3.581722 -5.32907052e-15,8 C-5.32907052e-15,12.418278 3.581722,16 8,16 Z" id="Path" fill="#A00078"></path>
    <path d="M8,16 C12.418278,16 16,12.418278 16,8 C16,3.581722 12.418278,0 8,0 C3.581722,0 -5.32907052e-15,3.581722 -5.32907052e-15,8 C-5.32907052e-15,12.418278 3.581722,16 8,16 Z M8,15 C4.13400675,15 1,11.8659932 1,8 C1,4.13400675 4.13400675,1 8,1 C11.8659932,1 15,4.13400675 15,8 C15,11.8659932 11.8659932,15 8,15 Z" id="Oval" fill="#FFFFFF" fill-rule="nonzero"></path>
</svg>