<?xml version="1.0" encoding="UTF-8"?>
<svg viewBox="0 0 12 12" version="1.1" xmlns="http://www.w3.org/2000/svg" xmlns:xlink="http://www.w3.org/1999/xlink">
    <!-- Generator: Sketch 46.2 (44496) - http://www.bohemiancoding.com/sketch -->
    <title>cirkel</title>
    <desc>Created with Sketch.</desc>
    <defs></defs>
    <circle id="bg" fill="#000000" cx="6.5" cy="6.5" r="5.5"></circle>
    <circle id="color" fill="#FF9100" cx="5.5" cy="5.5" r="5.5"></circle>
    <path d="M5.5,10 C7.98528137,10 10,7.98528137 10,5.5 C10,3.01471863 7.98528137,1 5.5,1 C3.01471863,1 1,3.01471863 1,5.5 C1,7.98528137 3.01471863,10 5.5,10 Z M5.5,11 C2.46243388,11 -1.13686838e-13,8.53756612 -1.13686838e-13,5.5 C-1.13686838e-13,2.46243388 2.46243388,0 5.5,0 C8.53756612,0 11,2.46243388 11,5.5 C11,8.53756612 8.53756612,11 5.5,11 Z" id="border" fill="#FFFFFF" fill-rule="nonzero"></path>
</svg>