<?xml version="1.0" standalone="no"?>
<!DOCTYPE svg PUBLIC "-//W3C//DTD SVG 20010904//EN"
 "http://www.w3.org/TR/2001/REC-SVG-20010904/DTD/svg10.dtd">
<svg version="1.0" xmlns="http://www.w3.org/2000/svg"
 width="15.00000pt" height="15.00000pt" viewBox="0 0 15.000000 15.000000"
 preserveAspectRatio="xMidYMid meet">

<g transform="translate(0.000000,15.000000) scale(0.100000,-0.100000)"
fill="#ff3d00">
 <path fill="#ff9600" d="M27 122 c -22 -25 -21 -75 1 -95 25 -22 75 -21 95 1 22 25 21 75 -1
95 -23 21 -43 22 -36 -3 40 -10 7 21 -17 19 -37 -3z"/>
<path d="M27 122 c-22 -25 -21 -75 1 -95 25 -22 75 -21 95 1 22 25 21 75 -1
95 -23 21 -43 22 -36 2 4 -10 0 -15 -11 -15 -11 0 -15 5 -11 15 8 21 -17 19
-37 -3z m72 -46 c8 -9 8 -16 2 -20 -6 -4 -8 -13 -4 -21 4 -11 -2 -15 -22 -15
-20 0 -26 4 -22 15 4 8 2 17 -4 21 -12 7 8 34 26 34 7 0 18 -6 24 -14z"/>
</g>
</svg>
