<?xml version="1.0" encoding="utf-8"?>
<!-- Generator: Adobe Illustrator 24.1.2, SVG Export Plug-In . SVG Version: 6.00 Build 0)  -->
<svg version="1.1" id="Layer_1" xmlns="http://www.w3.org/2000/svg" xmlns:xlink="http://www.w3.org/1999/xlink" x="0px" y="0px"
	 viewBox="0 0 16 16" style="enable-background:new 0 0 16 16;" xml:space="preserve">
<style type="text/css">
	.st0{fill:#FF9100;}
	.st1{fill:#FFFFFF;}
</style>
<desc>Created with Sketch.</desc>
<circle id="bg" cx="8.5" cy="8.5" r="7.5"/>
<g id="kleur_x2F_oranje">
	<circle id="color" class="st0" cx="7.5" cy="7.5" r="7.5"/>
</g>
<path id="border" class="st1" d="M7.5,14c3.6,0,6.5-2.9,6.5-6.5S11.1,1,7.5,1S1,3.9,1,7.5S3.9,14,7.5,14z M7.5,15
	C3.4,15,0,11.6,0,7.5S3.4,0,7.5,0S15,3.4,15,7.5S11.6,15,7.5,15z"/>
<path id="tunnel" class="st1" d="M8.5,10.4H7.8V9.6L5.4,7.2H4.6V6.5h1.1l2.8,2.8V10.4z M10.4,7.8H9.6L7.2,5.4V4.6H6.5v1.1l2.8,2.8
	h1.1V7.8z M5.3,11.5L3.5,9.7l1.8-1.8l1.8,1.8L5.3,11.5z M9.7,7.1L7.9,5.3l1.8-1.8l1.8,1.8L9.7,7.1z"/>
</svg>
