<?xml version="1.0" encoding="UTF-8"?>
<svg width="16px" height="16px" viewBox="0 0 16 16" version="1.1" xmlns="http://www.w3.org/2000/svg" xmlns:xlink="http://www.w3.org/1999/xlink">
    <!-- Generator: Sketch 47 (45396) - http://www.bohemiancoding.com/sketch -->
    <title>icoon/cirkel_correctie</title>
    <desc>Created with Sketch.</desc>
    <defs></defs>
    <g id="Symbols" stroke="none" stroke-width="1" fill="none" fill-rule="evenodd">
        <g id="icoon/cirkel_correctie">
            <circle id="schaduw" fill="#000000" cx="8.5" cy="8.5" r="7.5"></circle>
            <g id="kleur/donkerderblauw" fill="#666666">
                <circle id="color" cx="7.5" cy="7.5" r="7.5"></circle>
            </g>
            <circle id="punt_bg" fill="#FFFFFF" cx="7.5" cy="7.5" r="3"></circle>
            <path d="M7.5,9.5 C8.6045695,9.5 9.5,8.6045695 9.5,7.5 C9.5,6.3954305 8.6045695,5.5 7.5,5.5 C6.3954305,5.5 5.5,6.3954305 5.5,7.5 C5.5,8.6045695 6.3954305,9.5 7.5,9.5 Z M7.5,10.5 C5.84314575,10.5 4.5,9.15685425 4.5,7.5 C4.5,5.84314575 5.84314575,4.5 7.5,4.5 C9.15685425,4.5 10.5,5.84314575 10.5,7.5 C10.5,9.15685425 9.15685425,10.5 7.5,10.5 Z" id="punt" fill="#666666" fill-rule="nonzero"></path>
            <path d="M7.5,14 C11.0898509,14 14,11.0898509 14,7.5 C14,3.91014913 11.0898509,1 7.5,1 C3.91014913,1 1,3.91014913 1,7.5 C1,11.0898509 3.91014913,14 7.5,14 Z M7.5,15 C3.35786438,15 -1.13686838e-13,11.6421356 -1.13686838e-13,7.5 C-1.13686838e-13,3.35786438 3.35786438,0 7.5,0 C11.6421356,0 15,3.35786438 15,7.5 C15,11.6421356 11.6421356,15 7.5,15 Z" id="border" fill="#FFFFFF" fill-rule="nonzero"></path>
        </g>
    </g>
</svg>