<?xml version="1.0" encoding="UTF-8"?>
<svg width="16px" height="16px" viewBox="0 0 16 16" version="1.1" xmlns="http://www.w3.org/2000/svg" xmlns:xlink="http://www.w3.org/1999/xlink">
    <!-- Generator: Sketch 46.2 (44496) - http://www.bohemiancoding.com/sketch -->
    <title>icoon/cirkel_correctie</title>
    <desc>Created with Sketch.</desc>
    <defs>
        <circle id="path-1" cx="7.5" cy="7.5" r="3"></circle>
    </defs>
    <g id="Symbols" stroke="none" stroke-width="1" fill="none" fill-rule="evenodd">
        <g id="icoon/cirkel_correctie">
            <circle id="bg" fill="#000000" cx="8.5" cy="8.5" r="7.5"></circle>
            <g id="kleur/geel" fill="#FFE600">
                <circle id="color" cx="7.5" cy="7.5" r="7.5"></circle>
            </g>
            <g id="punt">
                <use fill="#FFFFFF" fill-rule="evenodd" xlink:href="#path-1"></use>
                <circle stroke="#666666" stroke-width="1" cx="7.5" cy="7.5" r="2.5"></circle>
            </g>
            <path d="M7.5,14 C11.0898509,14 14,11.0898509 14,7.5 C14,3.91014913 11.0898509,1 7.5,1 C3.91014913,1 1,3.91014913 1,7.5 C1,11.0898509 3.91014913,14 7.5,14 Z M7.5,15 C3.35786438,15 -1.13686838e-13,11.6421356 -1.13686838e-13,7.5 C-1.13686838e-13,3.35786438 3.35786438,0 7.5,0 C11.6421356,0 15,3.35786438 15,7.5 C15,11.6421356 11.6421356,15 7.5,15 Z" id="border" fill="#FFFFFF" fill-rule="nonzero"></path>
        </g>
    </g>
</svg>