<?xml version="1.0" encoding="UTF-8"?>
<svg viewBox="0 0 30 30" version="1.1" xmlns="http://www.w3.org/2000/svg" xmlns:xlink="http://www.w3.org/1999/xlink">
    <path d="M15,30 C23.2842712,30 30,23.2842712 30,15 C30,6.71572875 23.2842712,0 15,0 C6.71572875,0 -5.32907052e-15,6.71572875 -5.32907052e-15,15 C-5.32907052e-15,23.2842712 6.71572875,30 15,30 Z" id="Path" fill="#00A03C"></path>
    <path d="M15,30 C23.2842712,30 30,23.2842712 30,15 C30,6.71572875 23.2842712,0 15,0 C6.71572875,0 -5.32907052e-15,6.71572875 -5.32907052e-15,15 C-5.32907052e-15,23.2842712 6.71572875,30 15,30 Z M15,28.125 C7.75126266,28.125 1.875,22.2487373 1.875,15 C1.875,7.75126266 7.75126266,1.875 15,1.875 C22.2487373,1.875 28.125,7.75126266 28.125,15 C28.125,22.2487373 22.2487373,28.125 15,28.125 Z" id="Oval" fill="#FFFFFF" fill-rule="nonzero"></path>
    <path d="M9.46813285,20.713211 L8.75,21.0206156 L9.3559246,21.4817224 C10.1862657,22.1349571 11.263465,22.5 12.4304309,22.5 C12.7894973,22.5 13.1710054,22.4615744 13.5076302,22.3847233 L15.0112208,22.058106 L16.5148115,22.3847233 C16.8738779,22.4615744 17.2329443,22.5 17.5920108,22.5 C18.736535,22.5 19.8137343,22.1349571 20.6440754,21.4817224 L21.25,21.0206156 L20.5318671,20.713211 C19.2078097,20.1368275 18.3774686,18.9840604 18.3774686,17.7160166 C18.3774686,16.7553774 18.8711849,15.8331638 19.7239677,15.1991419 L20.1952424,14.834099 L19.7239677,14.4690561 C18.8711849,13.8350342 18.3774686,12.9128205 18.3774686,11.9521813 C18.3774686,11.0107548 18.8487433,10.107754 19.6566427,9.47373207 L20.5318671,8.80128461 L19.3649013,8.64758233 C19.0731598,8.60915676 18.7589767,8.58994398 18.4447935,8.58994398 C17.5246858,8.58994398 16.9621619,8.60915676 16.0644958,8.80128461 L15.9298459,8.82049739 L15.9298459,8.72443347 C15.9298459,7.59087918 16.4026032,6.63427307 17.5920108,6.13474067 L16.0644958,5 C14.4935802,5.67244746 13.9095409,7.20662349 13.9095409,8.70522068 L13.9095409,8.80128461 L13.7748909,8.78207182 C12.8772249,8.58994398 12.4977558,8.58994398 11.5776481,8.58994398 C11.0614901,8.58994398 10.5453321,8.64758233 10.0516158,8.76285904 L8.81732496,9.03183802 L9.87208259,9.62743434 C10.9941652,10.2614562 11.6449731,11.2989466 11.6449731,12.4325009 C11.6449731,13.2970762 11.263465,14.1232259 10.5677738,14.738035 L10.2087074,15.0646524 L10.5677738,15.3912697 C11.263465,16.0252916 11.6449731,16.8322286 11.6449731,17.6968039 C11.6449731,18.9840604 10.814632,20.1368275 9.46813285,20.713211 Z" id="Shape" fill="#FFFFFF" fill-rule="nonzero"></path>
</svg>