<?xml version="1.0" encoding="UTF-8"?>
<svg width="24px" height="24px" viewBox="0 0 24 24" version="1.1" xmlns="http://www.w3.org/2000/svg" xmlns:xlink="http://www.w3.org/1999/xlink">
    <!-- Generator: Sketch 55.1 (78136) - https://sketchapp.com -->
    <title>gfe</title>
    <desc>Created with Sketch.</desc>
    <g id="Styleguide" stroke="none" stroke-width="1" fill="none" fill-rule="evenodd">
        <g id="Cartografie" transform="translate(-601.000000, -2647.000000)">
            <g id="iconen-en-vlakken" transform="translate(85.000000, 2470.000000)">
                <g id="gfe" transform="translate(516.000000, 177.000000)">
                    <path d="M12,24 C18.627417,24 24,18.627417 24,12 C24,5.372583 18.627417,0 12,0 C5.372583,0 -5.32907052e-15,5.372583 -5.32907052e-15,12 C-5.32907052e-15,18.627417 5.372583,24 12,24 Z" id="Path" fill="#00A03C"></path>
                    <path d="M12,24 C18.627417,24 24,18.627417 24,12 C24,5.372583 18.627417,0 12,0 C5.372583,0 -5.32907052e-15,5.372583 -5.32907052e-15,12 C-5.32907052e-15,18.627417 5.372583,24 12,24 Z M12,22.5 C6.20101013,22.5 1.5,17.7989899 1.5,12 C1.5,6.20101013 6.20101013,1.5 12,1.5 C17.7989899,1.5 22.5,6.20101013 22.5,12 C22.5,17.7989899 17.7989899,22.5 12,22.5 Z" id="Oval" fill="#FFFFFF" fill-rule="nonzero"></path>
                    <path d="M7.57450628,16.5705688 L7,16.8164925 L7.48473968,17.1853779 C8.14901257,17.7079657 9.01077199,18 9.9443447,18 C10.2315978,18 10.5368043,17.9692595 10.8061041,17.9077786 L12.0089767,17.6464848 L13.2118492,17.9077786 C13.4991023,17.9692595 13.7863555,18 14.0736086,18 C14.989228,18 15.8509874,17.7079657 16.5152603,17.1853779 L17,16.8164925 L16.4254937,16.5705688 C15.3662478,16.109462 14.7019749,15.1872483 14.7019749,14.1728133 C14.7019749,13.4043019 15.0969479,12.666531 15.7791741,12.1593135 L16.1561939,11.8672792 L15.7791741,11.5752448 C15.0969479,11.0680273 14.7019749,10.3302564 14.7019749,9.56174502 C14.7019749,8.80860386 15.0789946,8.08620317 15.7253142,7.57898565 L16.4254937,7.04102768 L15.491921,6.91806586 C15.2585278,6.88732541 15.0071813,6.87195518 14.7558348,6.87195518 C14.0197487,6.87195518 13.5697295,6.88732541 12.8515967,7.04102768 L12.7438767,7.05639791 L12.7438767,6.97954677 C12.7438767,6.07270334 13.1220826,5.30741845 14.0736086,4.90779253 L12.8515967,4 C11.5948642,4.53795797 11.1276327,5.76529879 11.1276327,6.96417655 L11.1276327,7.04102768 L11.0199128,7.02565746 C10.3017799,6.87195518 9.99820467,6.87195518 9.26211849,6.87195518 C8.8491921,6.87195518 8.43626571,6.91806586 8.04129264,7.01028723 L7.05385996,7.22547042 L7.89766607,7.70194747 C8.79533214,8.20916499 9.31597846,9.03915728 9.31597846,9.94600071 C9.31597846,10.637661 9.01077199,11.2985807 8.45421903,11.790428 L8.16696589,12.0517219 L8.45421903,12.3130158 C9.01077199,12.8202333 9.31597846,13.4657828 9.31597846,14.1574431 C9.31597846,15.1872483 8.65170557,16.109462 7.57450628,16.5705688 Z" id="Shape" fill="#FFFFFF" fill-rule="nonzero"></path>
                </g>
            </g>
        </g>
    </g>
</svg>