<svg width="36" height="36" viewBox="0 0 36 36" fill="none" xmlns="http://www.w3.org/2000/svg">
<path d="M36 18C36 27.9411 27.9411 36 18 36C8.05887 36 0 27.9411 0 18C0 8.05887 8.05887 0 18 0C27.9411 0 36 8.05887 36 18Z" fill="#00A03C"/>
<path d="M17.971 9.65943C18.0391 5.57106 21.872 6.52501 21.872 6.52501H21.889C21.889 6.52501 21.9571 10.5282 17.971 9.65943Z" fill="white"/>
<path d="M24.1906 27.2058C23.4751 27.7509 22.5893 28.1256 21.7376 28.2449C20.4599 28.4152 19.1823 28.0405 18.024 27.1887C17.0359 27.9042 15.9798 28.279 14.9066 28.279C14.7022 28.279 14.5148 28.2619 14.3104 28.2449C13.4586 28.1427 12.5728 27.7679 11.8573 27.2058C11.5337 26.9673 11.4826 26.5073 11.7211 26.1837C11.7722 26.1155 11.8403 26.0644 11.9084 26.0303C12.4365 25.6556 14.1911 24.3269 14.3955 22.8448C14.5659 21.6183 14.0548 20.477 13.6119 19.7274L13.4756 19.506L13.646 19.3016C14.3274 18.4839 14.7192 17.7003 14.8044 16.9508C14.9747 15.622 13.6119 14.0037 13.1861 13.5267C13.135 13.4756 13.1009 13.4245 13.0668 13.3734C12.8794 13.0157 12.9987 12.5898 13.3394 12.3854C14.3104 11.8403 15.3836 11.6188 16.4056 11.7551C16.7975 11.8062 17.1722 11.9084 17.547 12.0617C17.8877 10.7671 17.3085 9.4043 16.099 8.75698L16.4397 8.10965C17.1211 8.46739 17.6322 9.0125 17.9558 9.64279C18.3476 10.3923 18.4669 11.2952 18.2624 12.1469C18.7054 11.9425 19.1653 11.8062 19.6423 11.7381C20.6644 11.6018 21.7376 11.8233 22.7086 12.3684C23.0663 12.5728 23.1855 12.9987 22.9811 13.3564C22.947 13.4245 22.8959 13.4756 22.8619 13.5097C22.436 13.9697 21.0732 15.605 21.2436 16.9337C21.3458 17.6833 21.7205 18.4669 22.4019 19.2845L22.5723 19.489L22.453 19.7104C21.9931 20.4599 21.4991 21.6183 21.6694 22.8278C21.8738 24.3098 23.6284 25.6385 24.1565 26.0133C24.2247 26.0474 24.2928 26.1155 24.3439 26.1666C24.5654 26.5073 24.5142 26.9502 24.1906 27.2058Z" fill="white"/>
</svg>
