<svg xmlns="http://www.w3.org/2000/svg" xmlns:xlink="http://www.w3.org/1999/xlink" version="1.1" width="170.079pt" height="198.425pt" viewBox="0 0 170.079 198.425">
<defs>
<clipPath id="clip_0">
<path transform="matrix(1,0,0,-1,0,198.425)" d="M0 198.425H170.079V0H0Z"/>
</clipPath>
<clipPath id="clip_1">
<path transform="matrix(1,0,0,-1,0,198.425)" d="M0 198.425H170.079V0H0Z"/>
</clipPath>
<clipPath id="clip_2">
<path transform="matrix(1,0,0,-1,0,198.425)" d="M0 198.425H170.079V0H0Z"/>
</clipPath>
</defs>
<g id="layer_1" data-name="Witte achtergrond">
<path transform="matrix(1,0,0,-1,0,198.425)" d="M0 0H170.078V198.425H0Z" fill="#ffffff"/>
</g>
<g id="layer_1" data-name="Icoon">
<g clip-path="url(#clip_0)">
<path transform="matrix(1,0,0,-1,107.7244,21.5383)" d="M0 0V.024L-.157 .067C-.157 .067-22.615 5.659-23.045-18.339 .41-23.437 0 0 0 0" fill="#231f20"/>
<path transform="matrix(1,0,0,-1,105.7816,140.5197)" d="M0 0C-5.387-.683-10.947 .995-16.078 4.861-17.412 5.864-19.065 6.417-20.752 6.417-22.42 6.417-24.073 5.864-25.41 4.859-30.538 .995-36.102-.681-41.483 0-44.636 .403-47.962 1.728-50.776 3.671-45.776 7.732-38.953 14.612-37.826 22.63-36.745 30.331-39.487 37.473-42.288 42.467-38.36 47.458-36.06 52.424-35.445 57.245-34.506 64.633-39.481 72.589-43.353 77.53-39.388 79.572-35.34 80.365-31.312 79.854-28.958 79.552-26.652 78.792-24.438 77.583L-20.701 75.573-17.021 77.596C-14.832 78.792-12.527 79.552-10.177 79.854-6.143 80.367-2.097 79.572 1.868 77.529-2.003 72.589-6.978 64.632-6.039 57.245-5.424 52.423-3.124 47.457 .804 42.467-1.997 37.472-4.739 30.328-3.658 22.63-2.532 14.613 4.291 7.733 9.291 3.671 6.476 1.728 3.151 .402 0 0M16.197 3.593C15.894 3.984 15.527 4.293 15.134 4.547L15.148 4.568C12.033 6.745 1.774 14.523 .553 23.222-.453 30.377 2.524 37.146 5.198 41.565L5.985 42.865 5.01 44.03C1.035 48.779-1.263 53.405-1.82 57.782-2.807 65.532 5.199 75.095 7.677 77.841L7.661 77.855C7.939 78.131 8.196 78.434 8.396 78.792 9.538 80.843 8.801 83.431 6.75 84.573 1.012 87.768-5.215 89.055-11.252 88.285-14.023 87.93-16.723 87.121-19.32 85.921-17.089 95.243-21.351 105.074-30.033 109.674L-32.023 105.917C-24.958 102.173-21.546 94.097-23.544 86.523-25.713 87.39-27.95 87.993-30.237 88.286-36.273 89.051-42.497 87.769-48.234 84.573-50.285 83.431-51.022 80.843-49.88 78.792-49.68 78.433-49.424 78.13-49.146 77.855L-49.161 77.841C-46.684 75.095-38.678 65.532-39.664 57.782-40.221 53.406-42.52 48.78-46.495 44.03L-47.471 42.865-46.684 41.565C-44.01 37.147-41.032 30.379-42.037 23.222-43.26 14.522-53.518 6.744-56.633 4.568L-56.618 4.547C-57.012 4.293-57.378 3.985-57.681 3.593-59.118 1.737-58.778-.933-56.922-2.369-52.766-5.587-47.53-7.797-42.558-8.432-41.4-8.579-40.242-8.652-39.084-8.652-32.772-8.652-26.501-6.476-20.742-2.262-13.927-7.249-6.398-9.381 1.074-8.432 6.044-7.797 11.279-5.588 15.438-2.37 17.293-.934 17.634 1.736 16.197 3.593" fill="#231f20"/>
</g>
</g>
<g id="layer_1" data-name="Gekleurd kader">
<g clip-path="url(#clip_1)">
<path transform="matrix(1,0,0,-1,0,198.425)" d="M8.5 189.925H161.579V38.018007H8.5ZM165.823 198.425H4.256C1.906 198.425 0 196.52 0 194.169V38.018 32.603 6.074C0 2.719 2.719 0 6.074 0H164.005C167.359 0 170.079 2.719 170.079 6.074V32.603 38.018 194.169C170.079 196.52 168.173 198.425 165.823 198.425" fill="#00ab4e"/>
</g>
</g>
<g id="layer_1" data-name="lettercontouren Amsterdam Sans kopie">
<g clip-path="url(#clip_2)">
<path transform="matrix(1,0,0,-1,54.6191,178.9393)" d="M0 0C0 4.683 3.328 8.012 8.06 8.012 10.294 8.012 12.268 7.227 13.718 5.776L11.411 3.565C10.604 4.422 9.462 4.897 8.106 4.897 5.563 4.897 3.78 2.876 3.78-.024 3.78-2.948 5.516-4.945 8.035-4.945 10.223-4.945 11.769-3.732 11.769-2.021V-1.546H8.154V1.45H15.405V-1.355C15.405-5.254 12.314-8.012 7.94-8.012 3.281-8.012 0-4.707 0 0" fill="#ffffff"/>
<path transform="matrix(1,0,0,-1,72.7529,171.2137)" d="M0 0H9.295V-3.043H3.685V-6.775H9.081V-9.818H3.685V-15.452H0Z" fill="#ffffff"/>
<path transform="matrix(1,0,0,-1,84.4453,171.2137)" d="M0 0H9.343V-2.995H3.685V-6.109H9.152V-9.104H3.685V-12.457H9.533V-15.452H0Z" fill="#ffffff"/>
<path transform="matrix(1,0,0,-1,101.0117,169.62091)" d="M0 0H2.995L-3.091-19.66H-6.086Z" fill="#ffffff"/>
<path transform="matrix(1,0,0,-1,109.1377,174.3035)" d="M0 0H-4.184V3.09H7.869V0H3.686V-12.362H0Z" fill="#ffffff"/>
</g>
</g>
</svg>
