<svg width="36" height="36" viewBox="0 0 36 36" fill="none" xmlns="http://www.w3.org/2000/svg">
<path d="M36 18C36 27.9411 27.9411 36 18 36C8.05887 36 0 27.9411 0 18C0 8.05887 8.05887 0 18 0C27.9411 0 36 8.05887 36 18Z" fill="#FFE600"/>
<path d="M17.8979 23.8027H14.1429V18H17.8979C18.0905 18 18.2349 18.1702 18.2349 18.3574V23.4454C18.2349 23.6496 18.0905 23.8027 17.8979 23.8027Z" fill="black"/>
<path d="M22.3109 16.2303V28.1931C22.3109 28.9588 21.7332 29.5714 21.0111 29.5714H15.4427C14.7206 29.5714 14.1429 28.9588 14.1429 28.1931V24.5345H17.8979C18.4596 24.5345 18.9249 24.041 18.9249 23.4454V18.3744C18.9249 17.7788 18.4596 17.2853 17.8979 17.2853H14.1429V16.2303C14.1429 14.6647 14.9452 13.2693 16.1969 12.5887V6.42857H20.2408V12.5887C21.4925 13.2693 22.3109 14.6647 22.3109 16.2303Z" fill="black"/>
</svg>
