<svg xmlns="http://www.w3.org/2000/svg" xmlns:xlink="http://www.w3.org/1999/xlink" version="1.1" width="170.079pt" height="170.079pt" viewBox="0 0 170.079 170.079">
<defs>
<clipPath id="clip_0">
<path transform="matrix(1,0,0,-1,0,170.079)" d="M0 170.079H170.079V0H0Z"/>
</clipPath>
</defs>
<g id="layer_1" data-name="Witte achtergrond">
<path transform="matrix(1,0,0,-1,0,170.079)" d="M0 0H170.078V170.078H0Z" fill="#ffffff"/>
</g>
<g id="layer_1" data-name="Icoon">
<g clip-path="url(#clip_0)">
<path transform="matrix(1,0,0,-1,101.9764,144.5506)" d="M0 0H-33.874V21.14H-18.971C-15.455 21.14-12.594 24-12.594 27.517V57.37C-12.594 60.887-15.455 63.748-18.971 63.748H-33.874V69.902C-33.874 76.468-29.78 82.455-23.918 84.461L-21.044 85.444V119.007H-12.83V85.444L-9.956 84.461C-4.094 82.455 0 76.468 0 69.902ZM-33.874 59.498H-18.971C-17.798 59.498-16.844 58.543-16.844 57.37V27.517C-16.844 26.344-17.798 25.39-18.971 25.39H-33.874ZM-4.33 91.291V127.517H-12.83V127.507H-21.044V127.522H-29.544V91.291C-37.328 87.353-42.374 79.116-42.374 69.902V-.409C-42.374-4.87-38.745-8.5-34.283-8.5H.409C4.871-8.5 8.5-4.87 8.5-.409V69.902C8.5 79.116 3.454 87.353-4.33 91.291" fill="#231f20"/>
</g>
</g>
</svg>
