<?xml version="1.0" encoding="UTF-8"?>
<svg viewBox="0 0 30 30" version="1.1" xmlns="http://www.w3.org/2000/svg" xmlns:xlink="http://www.w3.org/1999/xlink">
    <path d="M15,30 C23.2842712,30 30,23.2842712 30,15 C30,6.71572875 23.2842712,0 15,0 C6.71572875,0 -5.32907052e-15,6.71572875 -5.32907052e-15,15 C-5.32907052e-15,23.2842712 6.71572875,30 15,30 Z" id="Path" fill="#FFE600"></path>
    <path d="M14.048422,5 L15.9513489,5 L15.9513489,6.2343418 L14.048422,6.2343418 L14.048422,5 Z M16.2616939,11.2403913 C17.756316,11.659906 18.7531326,12.7757099 18.7497709,14.0254632 L18.7497709,15.2274035 L15.0222728,15.2274035 C14.7749483,15.2274035 14.5521379,15.3692647 14.5521379,15.5640262 L14.5521379,21.8719095 C14.5613647,22.072421 14.7675944,22.232441 15.0222728,22.2367016 L18.7497709,22.2367016 L18.7497709,24.1547806 C18.7538487,24.2287691 18.7032117,24.2979352 18.6198682,24.3322172 C16.3448057,25.2225943 13.6716998,25.2225943 11.3966373,24.3322172 C11.3093273,24.299459 11.2526891,24.2309246 11.25,24.1547806 L11.25,14.0254632 C11.2511964,12.7740047 12.2522719,11.6585993 13.7497184,11.2402591 C13.9287249,11.190487 14.0484275,11.057214 14.048422,10.9076921 L14.048422,6.93967998 L15.9513489,6.93967998 L15.9513489,10.9076921 C15.9560889,11.0588514 16.0799693,11.1916549 16.2616939,11.2403913 Z M15.447633,15.9327417 L18.7497709,15.9327417 L18.7497709,21.5313634 L15.447633,21.5313634 L15.447633,15.9327417 Z" id="Rectangle-2" fill="#323232"></path>
    <path d="M15,30 C23.2842712,30 30,23.2842712 30,15 C30,6.71572875 23.2842712,0 15,0 C6.71572875,0 -5.32907052e-15,6.71572875 -5.32907052e-15,15 C-5.32907052e-15,23.2842712 6.71572875,30 15,30 Z M15,28.125 C7.75126266,28.125 1.875,22.2487373 1.875,15 C1.875,7.75126266 7.75126266,1.875 15,1.875 C22.2487373,1.875 28.125,7.75126266 28.125,15 C28.125,22.2487373 22.2487373,28.125 15,28.125 Z" id="Oval" fill="#FFFFFF" fill-rule="nonzero"></path>
</svg>