<?xml version="1.0" encoding="UTF-8"?>
<svg width="24px" height="24px" viewBox="0 0 24 24" version="1.1" xmlns="http://www.w3.org/2000/svg" xmlns:xlink="http://www.w3.org/1999/xlink">
    <!-- Generator: Sketch 55.1 (78136) - https://sketchapp.com -->
    <title>glas</title>
    <desc>Created with Sketch.</desc>
    <g id="Styleguide" stroke="none" stroke-width="1" fill="none" fill-rule="evenodd">
        <g id="Cartografie" transform="translate(-761.000000, -2647.000000)">
            <g id="iconen-en-vlakken" transform="translate(85.000000, 2470.000000)">
                <g id="glas" transform="translate(676.000000, 177.000000)">
                    <path d="M12,24 C18.627417,24 24,18.627417 24,12 C24,5.372583 18.627417,0 12,0 C5.372583,0 -5.32907052e-15,5.372583 -5.32907052e-15,12 C-5.32907052e-15,18.627417 5.372583,24 12,24 Z" id="Path" fill="#FFE600"></path>
                    <path d="M11.2387376,4 L12.7610791,4 L12.7610791,4.98747344 L11.2387376,4.98747344 L11.2387376,4 Z M13.0093551,8.99231306 C14.2050528,9.32792481 15.0025061,10.2205679 14.9998167,11.2203705 L14.9998167,12.1819228 L12.0178183,12.1819228 C11.8199586,12.1819228 11.6417104,12.2954117 11.6417104,12.4512209 L11.6417104,17.4975276 C11.6490917,17.6579368 11.8140755,17.7859528 12.0178183,17.7893613 L14.9998167,17.7893613 L14.9998167,19.3238245 C15.0030789,19.3830153 14.9625693,19.4383481 14.8958945,19.4657738 C13.0758446,20.1780754 10.9373598,20.1780754 9.11730985,19.4657738 C9.04746186,19.4395672 9.00215128,19.3847397 9,19.3238245 L9,11.2203705 C9.00095714,10.2192038 9.80181751,9.32687941 10.9997747,8.99220726 C11.1429799,8.95238959 11.238742,8.84577117 11.2387376,8.7261537 L11.2387376,5.55174398 L12.7610791,5.55174398 L12.7610791,8.7261537 C12.7648711,8.84708113 12.8639754,8.95332395 13.0093551,8.99231306 Z M12.3581064,12.7461933 L14.9998167,12.7461933 L14.9998167,17.2250908 L12.3581064,17.2250908 L12.3581064,12.7461933 Z" id="Rectangle-2" fill="#323232"></path>
                    <path d="M12,24 C18.627417,24 24,18.627417 24,12 C24,5.372583 18.627417,0 12,0 C5.372583,0 -5.32907052e-15,5.372583 -5.32907052e-15,12 C-5.32907052e-15,18.627417 5.372583,24 12,24 Z M12,22.5 C6.20101013,22.5 1.5,17.7989899 1.5,12 C1.5,6.20101013 6.20101013,1.5 12,1.5 C17.7989899,1.5 22.5,6.20101013 22.5,12 C22.5,17.7989899 17.7989899,22.5 12,22.5 Z" id="Oval" fill="#FFFFFF" fill-rule="nonzero"></path>
                </g>
            </g>
        </g>
    </g>
</svg>