<svg width="32" height="32" viewBox="0 0 32 32" fill="none" xmlns="http://www.w3.org/2000/svg">
<circle cx="16" cy="16" r="16" fill="#004699"/>
<path d="M24.3855 7.1606C23.032 6.97066 20.8206 6.89051 18.5237 7.25622C16.2393 7.61991 13.773 8.43986 12.0062 10.1338C10.2343 11.8328 9.63503 13.7538 9.64199 15.4711C9.64798 16.9489 10.1012 18.2508 10.5895 19.1226C10.7662 18.9057 10.9434 18.6948 11.1242 18.4861C12.3394 17.0834 13.71 15.793 16.1753 13.4856L17.1024 14.5994C14.6204 16.9225 13.3112 18.1578 12.1558 19.4913C11.9838 19.6899 11.8149 19.8909 11.646 20.0982C12.5809 20.6538 13.8654 21.1734 15.2889 21.3018C17.127 21.4676 19.2056 20.9779 21.0067 19.0804C24.4658 15.4361 25.0955 10.0884 24.9892 7.85464L24.96 7.24122L24.3855 7.1606Z" fill="white"/>
<path d="M10.796 19.4636C10.7272 19.3589 10.658 19.245 10.5895 19.1226C9.57564 20.3669 8.57721 21.8066 7 24.1327L8.13749 25C9.71844 22.6683 10.6835 21.2799 11.646 20.0982C11.3911 19.9467 11.1622 19.7926 10.9636 19.6429L10.865 19.5687L10.796 19.4636Z" fill="white"/>
</svg>
