<svg width="32" height="32" viewBox="0 0 32 32" fill="none" xmlns="http://www.w3.org/2000/svg">
<rect width="32" height="32" rx="16" fill="#767676"/>
<path d="M14.2231 17.2792C14.6071 18.1783 15.4258 18.8396 16.3804 19.0338L16.5306 20.0019C16.7851 21.6432 15.5157 23.125 13.8547 23.125H12.5722C11.9548 23.1249 11.3771 22.8781 10.9527 22.4604C11.9097 22.2617 12.7178 21.5959 13.0982 20.6971H13.8547C14.0266 20.6971 14.1576 20.5437 14.1312 20.3739L13.9189 19.0017C13.8227 18.3808 13.9446 17.7829 14.2231 17.2792Z" fill="white"/>
<path d="M19.9171 20.4702C20.1081 21.4546 20.9674 22.2909 21.8956 22.5954C21.4438 22.9284 20.8883 23.125 20.2913 23.125C18.9704 23.125 17.791 22.2597 17.5337 20.932L17.4396 20.4483C17.995 20.4684 18.5626 20.3374 19.0752 20.0318C19.3234 19.8838 19.5415 19.7042 19.7296 19.5029L19.9171 20.4702Z" fill="white"/>
<path d="M22.094 18.507C22.7567 18.6082 23.212 19.2275 23.111 19.8902L22.968 20.8255C22.9029 21.2517 22.7395 21.6412 22.5047 21.9745C21.5521 21.8376 20.7803 21.0973 20.6167 20.1346L20.7108 19.524C20.812 18.8613 21.4313 18.4059 22.094 18.507Z" fill="white"/>
<path d="M14.1042 8.875C14.5168 8.875 14.8513 9.20946 14.8513 9.62204C14.8513 10.014 14.5494 10.3342 14.1655 10.3654C14.1294 10.3959 14.0721 10.4601 14.0043 10.5712C13.8519 10.8209 13.7825 11.0923 13.6869 11.3642C14.3949 11.9106 14.8513 12.7673 14.8513 13.7308C14.8513 15.0535 13.9915 16.1746 12.8006 16.5679C12.2098 17.7035 12.1 19.0191 12.4774 20.2266C12.1935 21.0963 11.3881 21.7205 10.4705 21.7717C10.4689 21.7683 10.4669 21.765 10.4654 21.7615C9.68001 20.0141 9.62385 18.0395 10.283 16.2666C9.43771 15.7388 8.875 14.8008 8.875 13.7308C8.875 12.7675 9.33085 11.9106 10.0386 11.3642C9.94311 11.0922 9.87444 10.8211 9.72198 10.5712C9.65422 10.4601 9.59687 10.3959 9.56075 10.3654C9.17689 10.3342 8.875 10.014 8.875 9.62204C8.875 9.20946 9.20946 8.875 9.62203 8.875C10.3494 8.875 10.7917 9.45668 10.9972 9.79348C11.1971 10.1213 11.3363 10.4885 11.421 10.7747C11.5653 10.7533 11.7129 10.7426 11.8631 10.7426C12.0131 10.7426 12.1605 10.7534 12.3045 10.7747C12.3892 10.4884 12.5291 10.1214 12.7291 9.79348C12.9345 9.45668 13.3769 8.875 14.1042 8.875Z" fill="white"/>
<path d="M16.794 15.8785C18.0909 15.8786 19.2056 16.7983 19.4524 18.0715L19.5341 18.4939C19.3489 18.853 19.0661 19.1672 18.6929 19.3898C18.2546 19.6511 17.7636 19.7433 17.293 19.6896L17.069 18.5333C17.0435 18.4016 16.9281 18.3065 16.794 18.3064C16.718 18.3064 16.6405 18.3013 16.5649 18.3093C15.687 18.1454 14.969 17.4558 14.779 16.5782C15.3462 16.0642 16.0463 15.8785 16.794 15.8785Z" fill="white"/>
</svg>
