<svg width="32" height="32" viewBox="0 0 32 32" fill="none" xmlns="http://www.w3.org/2000/svg">
<rect width="32" height="32" rx="16" fill="#A00078"/>
<path fill-rule="evenodd" clip-rule="evenodd" d="M21.625 12.625C21.625 13.3002 21.4628 13.9374 21.1752 14.5C21.1053 14.6367 21.0113 14.7886 20.8987 14.9512C20.8738 14.9872 20.8479 15.0237 20.8213 15.0607C19.7911 16.4894 17.5 18.625 17.5 18.625C17.5 18.625 14.5075 15.8356 13.8248 14.5C13.5372 13.9374 13.375 13.3002 13.375 12.625C13.375 12.3549 13.401 12.0908 13.4505 11.8352C13.819 9.93483 15.492 8.5 17.5 8.5C19.7782 8.5 21.625 10.3468 21.625 12.625ZM17.5 18.625L18.5228 19.7222L17.5 20.6756L16.4772 19.7222L17.5 18.625ZM18.5607 13.6857C18.2892 13.9571 17.9142 14.125 17.5 14.125C16.6965 14.125 16.0406 13.4933 16.0018 12.6994C16.0006 12.6748 16 12.65 16 12.625C16 11.7966 16.6716 11.125 17.5 11.125C18.3284 11.125 19 11.7966 19 12.625C19 12.9947 18.8662 13.3332 18.6445 13.5947C18.6178 13.6261 18.5898 13.6565 18.5607 13.6857ZM16.4772 19.7222C16.4773 19.7223 16.4772 19.7222 17.5 18.625C18.5228 19.7222 18.5227 19.7223 18.5228 19.7222L18.5239 19.7212L18.5336 19.7121L18.5611 19.6864C18.5847 19.6641 18.6189 19.6319 18.6622 19.5908C18.7489 19.5086 18.8724 19.3906 19.0224 19.2452C19.3218 18.9549 19.7297 18.5522 20.1613 18.1046C20.5909 17.6591 21.0552 17.1576 21.4626 16.6715C21.6367 16.4637 21.8146 16.2422 21.9807 16.0167L21.9386 16.1652L23.125 16.6435L22.5871 17.5471L22.7887 18.6254H24.25V19.8234L24.091 19.8487C23.8816 19.882 23.5772 19.9519 23.3109 20.0552C23.1499 20.1176 23.0141 20.188 22.922 20.2621C22.8597 20.3121 22.8304 20.3529 22.8176 20.3835L23.8943 21.7818L23.3388 23.0882L21.1635 22.6184L20.502 23.1218H17.4724L17.7177 21.6416L16.8426 21.2072L15.9477 21.8837L15.4623 21.5343L14.5495 22.9144L12.7253 21.5355L11.6463 23.089L11.2054 22.6447V18.7277L9.83296 18.3617L9.05372 17.105L7.75 15.9946L10.6865 13.0612L11.0517 13.2821V11.5H11.9875C11.9137 11.8635 11.875 12.2397 11.875 12.625C11.875 13.543 12.0961 14.4137 12.4892 15.1828C12.7411 15.6755 13.1489 16.2078 13.5374 16.6715C13.9448 17.1576 14.4091 17.6591 14.8387 18.1046C15.2703 18.5522 15.6782 18.9549 15.9776 19.2452C16.1276 19.3906 16.2511 19.5086 16.3378 19.5908C16.3811 19.6319 16.4153 19.6641 16.4389 19.6864L16.4664 19.7121L16.4761 19.7212L16.4772 19.7222Z" fill="white"/>
</svg>
