<?xml version="1.0" encoding="UTF-8"?>
<svg viewBox="0 0 17 17" version="1.1" xmlns="http://www.w3.org/2000/svg" xmlns:xlink="http://www.w3.org/1999/xlink">
<circle id="Oval-2" fill="#000000" cx="9" cy="9" r="8"></circle>
<circle id="Oval-2" stroke="#FFFFFF" fill="#00A03C" cx="8" cy="8" r="7.5"></circle>
<path d="M10,5.95 L10,3.7 L9.1,3.7 L9.1,5.95 L7.3,5.95 L7.3,3.7 L6.4,3.7 L6.4,5.95 L5.5,5.95 L5.5,9.28 L6.67,10.45 L7.75,10.45 L7.75,10.9 C7.75,11.395 7.345,11.8 6.85,11.8 L5.5,11.8 L5.5,12.7 L6.85,12.7 C7.84,12.7 8.65,11.89 8.65,10.9 L8.65,10.45 L9.73,10.45 L10.9,9.28 L10.9,5.95 L10,5.95 Z" id="Shape" fill="#FFFFFF" fill-rule="nonzero"></path>
</svg>