<?xml version="1.0" encoding="UTF-8"?>
<svg width="24px" height="24px" viewBox="0 0 24 24" version="1.1" xmlns="http://www.w3.org/2000/svg" xmlns:xlink="http://www.w3.org/1999/xlink">
    <!-- Generator: Sketch 55.1 (78136) - https://sketchapp.com -->
    <title>papier</title>
    <desc>Created with Sketch.</desc>
    <g id="Styleguide" stroke="none" stroke-width="1" fill="none" fill-rule="evenodd">
        <g id="Cartografie" transform="translate(-721.000000, -2647.000000)">
            <g id="iconen-en-vlakken" transform="translate(85.000000, 2470.000000)">
                <g id="papier" transform="translate(636.000000, 177.000000)">
                    <path d="M12,24 C18.627417,24 24,18.627417 24,12 C24,5.372583 18.627417,0 12,0 C5.372583,0 -5.32907052e-15,5.372583 -5.32907052e-15,12 C-5.32907052e-15,18.627417 5.372583,24 12,24 Z" id="Path" fill="#009DEC"></path>
                    <path d="M12,24 C18.627417,24 24,18.627417 24,12 C24,5.372583 18.627417,0 12,0 C5.372583,0 -5.32907052e-15,5.372583 -5.32907052e-15,12 C-5.32907052e-15,18.627417 5.372583,24 12,24 Z M12,22.5 C6.20101013,22.5 1.5,17.7989899 1.5,12 C1.5,6.20101013 6.20101013,1.5 12,1.5 C17.7989899,1.5 22.5,6.20101013 22.5,12 C22.5,17.7989899 17.7989899,22.5 12,22.5 Z" id="Oval" fill="#FFFFFF" fill-rule="nonzero"></path>
                    <g id="Icon/14/Document-Text-" transform="translate(7.000000, 5.000000)" fill="#FFFFFF">
                        <path d="M2.625,6.125 L7.875,6.125 L7.875,7 L2.625,7 L2.625,6.125 Z M6.925625,0 L10.5,3.574375 L10.5,14 L0,14 L0,0 L6.925625,0 Z M1.75,12.25 L8.75,12.25 L8.75,4.300625 L6.199375,1.75 L1.75,1.75 L1.75,12.25 Z M2.625,7.875 L7.875,7.875 L7.875,8.75 L2.625,8.75 L2.625,7.875 Z M2.625,9.625 L7.875,9.625 L7.875,10.5 L2.625,10.5 L2.625,9.625 Z" id="Combined-Shape"></path>
                    </g>
                </g>
            </g>
        </g>
    </g>
</svg>