<?xml version="1.0" encoding="UTF-8"?>
<svg viewBox="0 0 30 30" version="1.1" xmlns="http://www.w3.org/2000/svg" xmlns:xlink="http://www.w3.org/1999/xlink">
    <path d="M15,30 C23.2842712,30 30,23.2842712 30,15 C30,6.71572875 23.2842712,0 15,0 C6.71572875,0 -5.32907052e-15,6.71572875 -5.32907052e-15,15 C-5.32907052e-15,23.2842712 6.71572875,30 15,30 Z" id="Path" fill="#009DEC"></path>
    <path d="M15,30 C23.2842712,30 30,23.2842712 30,15 C30,6.71572875 23.2842712,0 15,0 C6.71572875,0 -5.32907052e-15,6.71572875 -5.32907052e-15,15 C-5.32907052e-15,23.2842712 6.71572875,30 15,30 Z M15,28.125 C7.75126266,28.125 1.875,22.2487373 1.875,15 C1.875,7.75126266 7.75126266,1.875 15,1.875 C22.2487373,1.875 28.125,7.75126266 28.125,15 C28.125,22.2487373 22.2487373,28.125 15,28.125 Z" id="Oval" fill="#FFFFFF" fill-rule="nonzero"></path>
    <path d="M12.03125,13.90625 L18.59375,13.90625 L18.59375,15 L12.03125,15 L12.03125,13.90625 Z M17.4070312,6.25 L21.875,10.7179688 L21.875,23.75 L8.75,23.75 L8.75,6.25 L17.4070312,6.25 Z M10.9375,21.5625 L19.6875,21.5625 L19.6875,11.6257812 L16.4992188,8.4375 L10.9375,8.4375 L10.9375,21.5625 Z M12.03125,16.09375 L18.59375,16.09375 L18.59375,17.1875 L12.03125,17.1875 L12.03125,16.09375 Z M12.03125,18.28125 L18.59375,18.28125 L18.59375,19.375 L12.03125,19.375 L12.03125,18.28125 Z" id="Combined-Shape" fill="#FFFFFF"></path>
</svg>