<svg width="36" height="36" viewBox="0 0 36 36" fill="none" xmlns="http://www.w3.org/2000/svg">
<path d="M36 18C36 27.9411 27.9411 36 18 36C8.05887 36 0 27.9411 0 18C0 8.05887 8.05887 0 18 0C27.9411 0 36 8.05887 36 18Z" fill="#004699"/>
<path d="M27.0552 23.3196L18.1821 8.16661C17.9881 7.83144 17.6 7.6374 17.2119 7.74324L9.71479 9.43671C9.1503 9.56019 8.83278 10.1952 9.11502 10.7244L9.29142 11.0596C9.48547 11.4301 9.92647 11.6241 10.3322 11.5183L17.1237 9.66603L9.46782 13.8997C9.00918 14.1467 8.86806 14.7111 9.13266 15.1521L17.3001 29.1232C17.5647 29.5642 18.1292 29.6877 18.5349 29.4584L26.7376 24.572C27.1786 24.3074 27.3198 23.7606 27.0552 23.3196ZM20.4753 16.3693L18.3938 17.5689L17.8117 16.5457L19.8932 15.3462L20.4753 16.3693ZM18.4467 12.8942L19.0465 13.9173L16.9649 15.1169L16.3652 14.0937L18.4467 12.8942ZM12.0786 15.9107L14.9892 14.2349L17.5118 18.592L14.6011 20.2678L12.0786 15.9107ZM15.342 22.1024L21.7807 18.3803L22.3805 19.4034L15.9418 23.1432L15.342 22.1024ZM17.7058 25.9303L17.1237 24.9072L23.5624 21.1851L24.1622 22.2082L17.7058 25.9303Z" fill="white"/>
</svg>
