<?xml version="1.0" encoding="UTF-8" standalone="no"?>
<svg
   xmlns:dc="http://purl.org/dc/elements/1.1/"
   xmlns:cc="http://creativecommons.org/ns#"
   xmlns:rdf="http://www.w3.org/1999/02/22-rdf-syntax-ns#"
   xmlns:svg="http://www.w3.org/2000/svg"
   xmlns="http://www.w3.org/2000/svg"
   viewBox="0 0 226.772 302.36267"
   height="302.36267"
   width="226.772"
   xml:space="preserve"
   id="svg2"
   version="1.1"><metadata
     id="metadata8"><rdf:RDF><cc:Work
         rdf:about=""><dc:format>image/svg+xml</dc:format><dc:type
           rdf:resource="http://purl.org/dc/dcmitype/StillImage" /></cc:Work></rdf:RDF></metadata><defs
     id="defs6"><clipPath
       id="clipPath18"
       clipPathUnits="userSpaceOnUse"><path
         id="path16"
         d="M 0,226.772 H 170.079 V 0 H 0 Z" /></clipPath><clipPath
       id="clipPath32"
       clipPathUnits="userSpaceOnUse"><path
         id="path30"
         d="M 0,226.772 H 170.079 V 0 H 0 Z" /></clipPath><clipPath
       id="clipPath94"
       clipPathUnits="userSpaceOnUse"><path
         id="path92"
         d="M 0,226.772 H 170.079 V 0 H 0 Z" /></clipPath></defs><g
     transform="matrix(1.3333333,0,0,-1.3333333,0,302.36267)"
     id="g10"><g
       id="g12"><g
         clip-path="url(#clipPath18)"
         id="g14"><g
           transform="translate(165.8226,226.7717)"
           id="g20"><path
             id="path22"
             style="fill:#00adef;fill-opacity:1;fill-rule:nonzero;stroke:none"
             d="m 0,0 h -161.566 c -2.351,0 -4.257,-1.906 -4.257,-4.256 v -156.151 -5.416 -54.875 c 0,-3.354 2.72,-6.074 6.074,-6.074 H -1.818 c 3.355,0 6.074,2.72 6.074,6.074 v 54.875 5.416 156.151 C 4.256,-1.906 2.351,0 0,0" /></g><path
           id="path24"
           style="fill:#ffffff;fill-opacity:1;fill-rule:nonzero;stroke:none"
           d="M 161.575,66.365 H 8.504 v 151.902 h 153.071 z" /></g></g><g
       id="g26"><g
         clip-path="url(#clipPath32)"
         id="g28"><g
           transform="translate(38.9254,48.3254)"
           id="g34"><path
             id="path36"
             style="fill:#231f20;fill-opacity:1;fill-rule:nonzero;stroke:none"
             d="M 0,0 C 1.45,0 2.399,1.05 2.399,2.699 2.399,4.324 1.45,5.398 0,5.398 H -2.374 V 0 Z m -5.674,8.073 h 5.949 c 3.2,0 5.449,-2.224 5.449,-5.374 0,-3.149 -2.249,-5.373 -5.449,-5.373 h -2.649 v -5.499 h -3.3 z" /></g><g
           transform="translate(53.526,44.7512)"
           id="g38"><path
             id="path40"
             style="fill:#231f20;fill-opacity:1;fill-rule:nonzero;stroke:none"
             d="M 0,0 V 0.7 L -2.05,0.675 c -1.624,-0.025 -2.499,-0.6 -2.499,-1.674 0,-0.95 0.75,-1.625 1.8,-1.625 C -1.125,-2.624 0,-1.55 0,0 m -7.673,-1.074 c 0,2.374 1.975,3.799 5.274,3.824 L 0,2.774 v 0.401 c 0,1.449 -0.925,2.199 -2.6,2.199 -1.099,0 -2.074,-0.425 -2.749,-1.2 l -1.875,1.825 c 1.076,1.324 2.8,2.049 4.924,2.049 3.3,0 5.4,-1.799 5.4,-4.674 v -4.898 c 0,-0.451 0.199,-0.65 0.699,-0.65 h 0.225 v -2.425 h -1.45 c -1.175,0 -1.974,0.55 -2.224,1.45 H 0.3 c -0.775,-1.124 -2.05,-1.749 -3.599,-1.749 -2.599,0 -4.374,1.549 -4.374,3.824" /></g><g
           transform="translate(69.9,46.3264)"
           id="g42"><path
             id="path44"
             style="fill:#231f20;fill-opacity:1;fill-rule:nonzero;stroke:none"
             d="m 0,0 c 0,2.225 -1.375,3.699 -3.399,3.699 -2.025,0 -3.425,-1.5 -3.425,-3.699 0,-2.2 1.4,-3.699 3.425,-3.699 C -1.375,-3.699 0,-2.225 0,0 m -9.923,6.173 h 2.949 V 4.249 h 0.05 c 0.75,1.399 2.249,2.224 4.049,2.224 3.524,0 6.049,-2.674 6.049,-6.423 0,-3.799 -2.525,-6.524 -6.049,-6.524 -1.675,0 -3.049,0.725 -3.898,2.05 h -0.051 v -6.374 h -3.099 z" /></g><path
           id="path46"
           style="fill:#231f20;fill-opacity:1;fill-rule:nonzero;stroke:none"
           d="m 75.652,52.499 h 3.099 V 40.152 h -3.099 z m 1.55,1.575 c -1.075,0 -1.85,0.75 -1.85,1.799 0,1.05 0.775,1.8 1.85,1.8 1.074,0 1.849,-0.75 1.849,-1.8 0,-1.049 -0.775,-1.799 -1.849,-1.799" /><g
           transform="translate(84.4518,47.5754)"
           id="g48"><path
             id="path50"
             style="fill:#231f20;fill-opacity:1;fill-rule:nonzero;stroke:none"
             d="M 0,0 H 6.223 C 6.023,1.625 4.773,2.725 3.099,2.725 1.424,2.725 0.175,1.625 0,0 m -3.125,-1.249 c 0,3.824 2.575,6.473 6.249,6.473 3.674,0 6.224,-2.624 6.224,-6.399 0,-0.3 -0.051,-0.774 -0.101,-1.099 H 0 c 0.225,-1.674 1.649,-2.799 3.474,-2.799 1.349,0 2.524,0.5 3.298,1.399 l 1.875,-1.824 c -1.125,-1.45 -3.074,-2.225 -5.323,-2.225 -3.8,0 -6.449,2.674 -6.449,6.474" /></g><g
           transform="translate(96.3766,52.4992)"
           id="g52"><path
             id="path54"
             style="fill:#231f20;fill-opacity:1;fill-rule:nonzero;stroke:none"
             d="m 0,0 h 2.924 v -2.049 h 0.05 c 0.6,1.4 1.7,2.15 3.149,2.15 0.375,0 0.9,-0.051 1.1,-0.125 v -2.95 c -0.35,0.1 -1.025,0.175 -1.525,0.175 -1.574,0 -2.599,-1.2 -2.599,-3.05 v -6.498 H 0 Z" /></g><g
           transform="translate(114.276,47.5754)"
           id="g56"><path
             id="path58"
             style="fill:#231f20;fill-opacity:1;fill-rule:nonzero;stroke:none"
             d="M 0,0 H 6.223 C 6.023,1.625 4.773,2.725 3.099,2.725 1.424,2.725 0.175,1.625 0,0 m -3.125,-1.249 c 0,3.824 2.575,6.473 6.249,6.473 3.674,0 6.224,-2.624 6.224,-6.399 0,-0.3 -0.051,-0.774 -0.101,-1.099 H 0 c 0.225,-1.674 1.649,-2.799 3.474,-2.799 1.349,0 2.524,0.5 3.298,1.399 l 1.875,-1.824 c -1.125,-1.45 -3.074,-2.225 -5.323,-2.225 -3.8,0 -6.449,2.674 -6.449,6.474" /></g><g
           transform="translate(126.2018,52.4992)"
           id="g60"><path
             id="path62"
             style="fill:#231f20;fill-opacity:1;fill-rule:nonzero;stroke:none"
             d="m 0,0 h 2.924 v -1.674 h 0.05 C 3.549,-0.449 4.799,0.3 6.248,0.3 c 3.1,0 4.699,-1.775 4.699,-5.173 v -7.474 H 7.848 v 6.873 c 0,2.1 -0.75,3.075 -2.325,3.075 -1.574,0 -2.424,-1.1 -2.424,-3.149 v -6.799 H 0 Z" /></g><g
           transform="translate(51.8893,11.1526)"
           id="g64"><path
             id="path66"
             style="fill:#231f20;fill-opacity:1;fill-rule:nonzero;stroke:none"
             d="M 0,0 H -3.3 V 16.246 H 0 V 8.248 h 0.05 l 6.248,7.998 h 3.874 L 4.249,8.848 10.397,0 H 6.423 L 1.899,6.748 0,4.349 Z" /></g><g
           transform="translate(70.9381,15.7512)"
           id="g68"><path
             id="path70"
             style="fill:#231f20;fill-opacity:1;fill-rule:nonzero;stroke:none"
             d="M 0,0 V 0.7 L -2.05,0.675 c -1.624,-0.025 -2.499,-0.6 -2.499,-1.674 0,-0.95 0.75,-1.625 1.8,-1.625 C -1.125,-2.624 0,-1.55 0,0 m -7.673,-1.074 c 0,2.374 1.975,3.799 5.274,3.824 L 0,2.774 v 0.401 c 0,1.449 -0.925,2.199 -2.6,2.199 -1.099,0 -2.074,-0.425 -2.749,-1.2 l -1.875,1.825 c 1.075,1.324 2.8,2.049 4.924,2.049 3.3,0 5.4,-1.799 5.4,-4.674 v -4.898 c 0,-0.451 0.199,-0.65 0.699,-0.65 h 0.225 v -2.425 h -1.45 c -1.175,0 -1.974,0.55 -2.224,1.45 H 0.3 c -0.775,-1.124 -2.05,-1.749 -3.599,-1.749 -2.6,0 -4.374,1.549 -4.374,3.824" /></g><g
           transform="translate(77.3893,23.4992)"
           id="g72"><path
             id="path74"
             style="fill:#231f20;fill-opacity:1;fill-rule:nonzero;stroke:none"
             d="m 0,0 h 2.924 v -2.049 h 0.05 c 0.6,1.4 1.7,2.15 3.149,2.15 0.375,0 0.9,-0.051 1.1,-0.125 v -2.95 c -0.35,0.1 -1.025,0.175 -1.525,0.175 -1.574,0 -2.599,-1.2 -2.599,-3.05 v -6.498 H 0 Z" /></g><g
           transform="translate(87.6383,15.5764)"
           id="g76"><path
             id="path78"
             style="fill:#231f20;fill-opacity:1;fill-rule:nonzero;stroke:none"
             d="M 0,0 V 5.349 H -2.125 V 7.923 H -1 c 1.024,0 1.425,0.4 1.425,1.425 v 1.924 H 3.074 V 7.923 H 6.073 V 5.349 H 3.074 V 0 c 0,-1.199 0.625,-1.874 1.775,-1.874 0.349,0 0.774,0.05 1.024,0.125 v -2.6 C 5.498,-4.449 4.799,-4.523 4.249,-4.523 1.449,-4.523 0,-2.975 0,0" /></g><g
           transform="translate(101.7623,13.552)"
           id="g80"><path
             id="path82"
             style="fill:#231f20;fill-opacity:1;fill-rule:nonzero;stroke:none"
             d="M 0,0 C 2,0 3.399,1.55 3.399,3.774 3.399,5.999 2,7.548 0,7.548 -1.999,7.548 -3.398,5.999 -3.398,3.774 -3.398,1.55 -1.999,0 0,0 m -6.573,3.774 c 0,3.774 2.75,6.473 6.573,6.473 3.824,0 6.573,-2.699 6.573,-6.473 C 6.573,0 3.824,-2.699 0,-2.699 -3.823,-2.699 -6.573,0 -6.573,3.774" /></g><g
           transform="translate(110.8639,23.4992)"
           id="g84"><path
             id="path86"
             style="fill:#231f20;fill-opacity:1;fill-rule:nonzero;stroke:none"
             d="m 0,0 h 2.924 v -1.674 h 0.05 C 3.549,-0.449 4.799,0.3 6.248,0.3 c 3.1,0 4.699,-1.775 4.699,-5.173 v -7.474 H 7.848 v 6.873 c 0,2.1 -0.75,3.075 -2.325,3.075 -1.574,0 -2.424,-1.1 -2.424,-3.149 v -6.799 H 0 Z" /></g></g></g><g
       id="g88"><g
         clip-path="url(#clipPath94)"
         id="g90"><g
           transform="translate(85.0607,80.3829)"
           id="g96"><path
             id="path98"
             style="fill:#231f20;fill-opacity:1;fill-rule:nonzero;stroke:none"
             d="m 0,0 -43.709,86.326 41.546,20.496 c 1.531,0.764 2.882,1.865 4,3.187 l 2.348,-4.667 c 0.027,-0.173 0.071,-0.34 0.086,-0.516 0.016,-0.187 0.025,-0.377 0.025,-0.568 0.01,-2.646 -1.472,-5.393 -3.439,-6.385 L -34.292,80.354 -32.397,76.55 2.761,94.074 c 1.963,0.989 3.579,2.792 4.601,4.956 L 8.271,97.223 C 8.309,97.011 8.359,96.804 8.378,96.585 8.394,96.398 8.401,96.208 8.402,96.018 8.412,93.371 6.93,90.624 4.963,89.632 l -35.149,-17.52 1.896,-3.803 35.158,17.524 c 1.975,0.996 3.599,2.817 4.619,5 l 0.869,-1.727 c 0.05,-0.253 0.106,-0.502 0.128,-0.766 0.016,-0.186 0.024,-0.374 0.025,-0.564 0.01,-2.734 -1.548,-5.431 -3.78,-6.555 L 2.192,77.974 4.083,74.168 10.63,77.42 c 2.166,1.091 3.904,2.984 4.97,5.242 l 0.843,-1.677 c 0.061,-0.289 0.121,-0.58 0.147,-0.881 0.016,-0.188 0.024,-0.377 0.025,-0.568 0.011,-2.734 -1.548,-5.432 -3.78,-6.556 l -6.537,-3.248 1.891,-3.805 6.547,3.253 c 2.179,1.097 3.926,3.007 4.99,5.283 l 0.803,-1.596 c 0.075,-0.326 0.138,-0.66 0.167,-1.009 0.016,-0.186 0.025,-0.374 0.025,-0.564 0.011,-2.733 -1.548,-5.431 -3.78,-6.555 l -6.536,-3.247 1.891,-3.806 6.546,3.252 c 2.193,1.104 3.948,3.032 5.01,5.327 l 0.763,-1.517 c 0.09,-0.363 0.155,-0.742 0.188,-1.131 0.016,-0.186 0.024,-0.374 0.025,-0.563 0.01,-2.735 -1.549,-5.432 -3.781,-6.555 l -6.536,-3.248 1.891,-3.807 6.547,3.253 c 2.206,1.111 3.969,3.055 5.029,5.369 l 0.767,-1.524 -0.028,-0.007 c 0.094,-0.371 0.159,-0.76 0.192,-1.155 0.016,-0.187 0.024,-0.376 0.025,-0.567 0.01,-2.647 -1.472,-5.394 -3.439,-6.386 L -9.655,30.907 -7.759,27.104 27.4,44.628 c 2.039,1.029 3.703,2.938 4.715,5.217 l 0.773,-1.535 -0.065,-0.016 c 0.094,-0.369 0.159,-0.758 0.192,-1.157 0.016,-0.188 0.025,-0.375 0.025,-0.565 0.01,-2.647 -1.472,-5.393 -3.439,-6.386 l -35.149,-17.52 1.895,-3.803 35.158,17.525 c 2.054,1.034 3.726,2.961 4.736,5.259 l 0.79,-1.569 -0.102,-0.025 c 0.094,-0.371 0.159,-0.76 0.193,-1.158 0.016,-0.186 0.024,-0.375 0.024,-0.564 0.01,-2.647 -1.472,-5.393 -3.438,-6.386 L -1.442,14.426 0.454,10.623 35.612,28.146 c 2.066,1.042 3.747,2.986 4.755,5.303 L 45.6,23.051 Z m -45.816,107.543 36.883,12.96 0.304,0.034 c 0.69,0 1.253,-0.562 1.253,-1.253 0,-0.411 -0.194,-0.784 -0.53,-1.023 l -34.738,-17.327 z m -3.67,-14.681 43.492,21.827 c 1.753,0.878 2.835,2.628 2.835,4.572 0,2.815 -2.29,5.104 -5.105,5.104 -0.427,0 -1.699,-0.128 -2.511,-0.363 l -30.62,-10.5 -0.802,1.945 30.804,10.513 c 1.034,0.301 2.496,0.46 3.129,0.46 3.947,0 7.16,-3.211 7.16,-7.159 0,-2.727 -1.516,-5.18 -3.957,-6.403 l -0.968,-0.502 -42.54,-21.333 z M 54.178,24.914 3.713,125.188 c -0.026,0.053 -0.065,0.095 -0.093,0.147 -0.875,1.612 -2.096,3.015 -3.627,4.123 -3.223,2.331 -7.528,3.072 -11.81,2.037 l -39.164,-12.18 2.696,-5.878 -6.388,-2.245 5.374,-11.195 -0.664,-0.33 c -2.13,-1.059 -3.717,-2.885 -4.469,-5.142 -0.752,-2.257 -0.578,-4.67 0.491,-6.794 L -6.593,-5.794 c 1.109,-2.192 3.332,-3.459 5.636,-3.459 0.955,0 1.925,0.218 2.834,0.678 l 49.515,25.029 c 3.096,1.566 4.345,5.362 2.786,8.46" /></g><g
           transform="translate(80.8222,153.7815)"
           id="g100"><path
             id="path102"
             style="fill:#231f20;fill-opacity:1;fill-rule:nonzero;stroke:none"
             d="m 0,0 -21.103,-10.53 12.949,-25.987 21.103,10.53 z" /></g></g></g></g></svg>