<?xml version="1.0" encoding="UTF-8"?>
<svg viewBox="0 0 30 30" version="1.1" xmlns="http://www.w3.org/2000/svg" xmlns:xlink="http://www.w3.org/1999/xlink">
    <path d="M15,30 C23.2842712,30 30,23.2842712 30,15 C30,6.71572875 23.2842712,0 15,0 C6.71572875,0 0,6.71572875 0,15 C0,23.2842712 6.71572875,30 15,30 Z" id="Path" fill="#FF9100"></path>
    <path d="M11.25,21.25 L11.25,17.5 L18.75,17.5 L18.75,21.25 L11.25,21.25 Z M17.9524931,8.69896492 C18.4575947,9.05429778 18.75,9.59067923 18.75,10.1681632 L18.75,11.3605438 C18.75,11.8696259 18.5486955,12.3616253 18.1841766,12.7510905 C17.937342,13.0176581 17.8006329,13.3558396 17.8006329,13.7009902 L17.8006329,14.6302539 C17.8006329,14.9787535 17.937342,15.3170713 18.1841765,15.5801537 C18.5259493,15.9457024 18.7234178,16.4035695 18.7462031,16.875 L11.2537975,16.875 C11.2765822,16.4035695 11.4702531,15.9457024 11.8120251,15.5801537 C12.0588604,15.3170713 12.1955695,14.9787535 12.1955695,14.6302539 L12.1955695,13.7009903 C12.1955695,13.3558397 12.0588604,13.0176581 11.8120251,12.7510905 C11.4474685,12.3616253 11.25,11.8696259 11.25,11.3605439 L11.25,10.1681632 C11.25,9.59067923 11.5386077,9.05429778 12.0436326,8.69896492 L12.8601265,8.125 L17.1360759,8.125 L17.9524931,8.69896492 Z M11.25,22.2745774 L11.25,21.875 L18.75,21.875 L18.75,22.2745774 C18.75,22.7443492 18.2107602,23.125 17.5537976,23.125 L12.4461647,23.125 C11.785443,23.125 11.25,22.7443492 11.25,22.2745774 Z M16.875,6.67226875 L16.875,7.5 L13.125,7.5 L13.125,6.67226875 C13.125,6.44010539 13.2765153,6.25 13.4693526,6.25 L16.5306474,6.25 C16.7200417,6.25 16.875,6.44010539 16.875,6.67226875 Z" id="Shape" fill="#FFFFFF" fill-rule="nonzero"></path>
    <path d="M15,30 C23.2842712,30 30,23.2842712 30,15 C30,6.71572875 23.2842712,0 15,0 C6.71572875,0 0,6.71572875 0,15 C0,23.2842712 6.71572875,30 15,30 Z M15,28.125 C7.75126266,28.125 1.875,22.2487373 1.875,15 C1.875,7.75126266 7.75126266,1.875 15,1.875 C22.2487373,1.875 28.125,7.75126266 28.125,15 C28.125,22.2487373 22.2487373,28.125 15,28.125 Z" id="Oval" fill="#FFFFFF" fill-rule="nonzero"></path>
</svg>