<?xml version="1.0" encoding="UTF-8"?>
<svg width="24px" height="24px" viewBox="0 0 24 24" version="1.1" xmlns="http://www.w3.org/2000/svg" xmlns:xlink="http://www.w3.org/1999/xlink">
    <!-- Generator: Sketch 55.1 (78136) - https://sketchapp.com -->
    <title>plastic</title>
    <desc>Created with Sketch.</desc>
    <g id="Styleguide" stroke="none" stroke-width="1" fill="none" fill-rule="evenodd">
        <g id="Cartografie" transform="translate(-681.000000, -2647.000000)">
            <g id="iconen-en-vlakken" transform="translate(85.000000, 2470.000000)">
                <g id="plastic" transform="translate(596.000000, 177.000000)">
                    <path d="M12,24 C18.627417,24 24,18.627417 24,12 C24,5.372583 18.627417,0 12,0 C5.372583,0 0,5.372583 0,12 C0,18.627417 5.372583,24 12,24 Z" id="Path" fill="#FF9100"></path>
                    <path d="M9,17 L9,14 L15,14 L15,17 L9,17 Z M14.3619945,6.95917194 C14.7660758,7.24343823 15,7.67254338 15,8.13453054 L15,9.08843507 C15,9.49570074 14.8389564,9.8893002 14.5473413,10.2008724 C14.3498736,10.4141264 14.2405063,10.6846717 14.2405063,10.9607922 L14.2405063,11.7042032 C14.2405063,11.9830028 14.3498736,12.253657 14.5473412,12.4641229 C14.8207594,12.7565619 14.9787342,13.1228556 14.9969625,13.5 L9.00303804,13.5 C9.02126573,13.1228556 9.1762025,12.7565619 9.4496201,12.4641229 C9.64708833,12.253657 9.75645561,11.9830028 9.75645561,11.7042032 L9.75645561,10.9607922 C9.75645561,10.6846717 9.64708833,10.4141265 9.4496201,10.2008724 C9.15797484,9.88930023 9,9.49570074 9,9.0884351 L9,8.13453056 C9,7.67254338 9.23088614,7.24343823 9.63490606,6.95917194 L10.2881012,6.5 L13.7088608,6.5 L14.3619945,6.95917194 Z M9,17.8196619 L9,17.5 L15,17.5 L15,17.8196619 C15,18.1954794 14.5686081,18.5 14.0430381,18.5 L9.95693177,18.5 C9.42835437,18.5 9,18.1954794 9,17.8196619 Z M13.5,5.337815 L13.5,6 L10.5,6 L10.5,5.337815 C10.5,5.15208431 10.6212123,5 10.7754821,5 L13.2245179,5 C13.3760334,5 13.5,5.15208431 13.5,5.337815 Z" id="Shape" fill="#FFFFFF" fill-rule="nonzero"></path>
                    <path d="M12,24 C18.627417,24 24,18.627417 24,12 C24,5.372583 18.627417,0 12,0 C5.372583,0 0,5.372583 0,12 C0,18.627417 5.372583,24 12,24 Z M12,22.5 C6.20101013,22.5 1.5,17.7989899 1.5,12 C1.5,6.20101013 6.20101013,1.5 12,1.5 C17.7989899,1.5 22.5,6.20101013 22.5,12 C22.5,17.7989899 17.7989899,22.5 12,22.5 Z" id="Oval" fill="#FFFFFF" fill-rule="nonzero"></path>
                </g>
            </g>
        </g>
    </g>
</svg>