<svg width="16" height="16" viewBox="0 0 16 16" fill="none" xmlns="http://www.w3.org/2000/svg">
<g clip-path="url(#clip0_417_51)">
<path d="M15.625 8C15.625 12.2112 12.2112 15.625 8 15.625C3.78883 15.625 0.375 12.2112 0.375 8C0.375 3.78883 3.78883 0.375 8 0.375C12.2112 0.375 15.625 3.78883 15.625 8Z" fill="#004699" stroke="white" stroke-width="0.75" stroke-miterlimit="10"/>
<path fill-rule="evenodd" clip-rule="evenodd" d="M3 8.09474C3 9.42922 4.14247 10.5289 5.61364 10.6776V12H6.29546V10.6776C7.76663 10.5289 8.90909 9.42921 8.90909 8.09474C8.90909 7.33749 8.54122 6.65586 7.95417 6.18067C7.98419 6.05797 8 5.93061 8 5.8C8 4.80589 7.08422 4 5.95455 4C4.82487 4 3.90909 4.80589 3.90909 5.8C3.90909 5.93061 3.9249 6.05797 3.95492 6.18067C3.36787 6.65586 3 7.33749 3 8.09474ZM7.20553 6.38992L7.28763 6.05438C7.30756 5.97292 7.31818 5.88789 7.31818 5.8C7.31818 5.13726 6.70766 4.6 5.95455 4.6C5.20143 4.6 4.59091 5.13726 4.59091 5.8C4.59091 5.88789 4.60153 5.97292 4.62146 6.05438L4.70356 6.38992L4.4165 6.62227C3.96391 6.98861 3.68182 7.51224 3.68182 8.09474C3.68182 9.09735 4.52017 9.92764 5.61364 10.0724V9.36986L4.64279 8.85725L4.99358 8.34275L5.61364 8.67014V7.2H6.29546V7.87574L6.84985 7.38787L7.33197 7.81213L6.29546 8.72426V10.0724C7.38893 9.92764 8.22727 9.09734 8.22727 8.09474C8.22727 7.51224 7.94518 6.98861 7.49259 6.62227L7.20553 6.38992Z" fill="white"/>
<path d="M10.4242 4C9.99495 4.5037 9.13636 5.72267 9.13636 6.56889C9.13636 6.90873 9.31956 7.53516 9.99495 7.72309V7.4H10.8535V6.64444H11.7093C11.7112 6.61801 11.7121 6.59275 11.7121 6.56889C11.7121 5.72267 10.8535 4.5037 10.4242 4Z" fill="white"/>
<path d="M11.2828 9.28889V8.53333H10.4242V7.77778H11.2828V7.02222H12.1414V7.77778H13V8.53333H12.1414V9.28889H11.2828Z" fill="white"/>
</g>
<defs>
<clipPath id="clip0_417_51">
<rect width="16" height="16" fill="white"/>
</clipPath>
</defs>
</svg>
