<svg width="32" height="32" viewBox="0 0 32 32" fill="none" xmlns="http://www.w3.org/2000/svg">
<rect width="32" height="32" rx="16" fill="#004699"/>
<path d="M22.0376 12.6762L21.2234 11.862L20.4092 12.6762L23.1216 15.3886L22.036 16.4742L20.8163 15.2545L19.8245 16.2462L17.8166 14.2383L16.731 15.3239L18.7389 17.3318L17.9359 18.1349L15.92 16.119L14.8344 17.2046L16.8503 19.2205L16.2025 19.8682L12.9187 20.1667L10.465 22.6214L8.87476 23.125L9.37886 21.5353L11.8331 19.0811L12.1315 15.7972L16.7453 11.1835L15.5224 9.96059L16.608 8.875L19.3236 11.5906L20.1378 10.7764L19.3236 9.96218L20.4092 8.87659L23.1232 11.5906L22.0376 12.6762Z" fill="white"/>
</svg>
