<?xml version="1.0" encoding="UTF-8"?>
<svg viewBox="0 0 30 30" version="1.1" xmlns="http://www.w3.org/2000/svg" xmlns:xlink="http://www.w3.org/1999/xlink">
    <path d="M15,30 C23.2842712,30 30,23.2842712 30,15 C30,6.71572875 23.2842712,0 15,0 C6.71572875,0 0,6.71572875 0,15 C0,23.2842712 6.71572875,30 15,30 Z" id="Path" fill="#767676"></path>
    <path d="M15,30 C23.2842712,30 30,23.2842712 30,15 C30,6.71572875 23.2842712,0 15,0 C6.71572875,0 0,6.71572875 0,15 C0,23.2842712 6.71572875,30 15,30 Z M15,28.125 C7.75126266,28.125 1.875,22.2487373 1.875,15 C1.875,7.75126266 7.75126266,1.875 15,1.875 C22.2487373,1.875 28.125,7.75126266 28.125,15 C28.125,22.2487373 22.2487373,28.125 15,28.125 Z" id="Oval" fill="#FFFFFF" fill-rule="nonzero"></path>
    <path d="M16.8250552,10.0236825 C19.992119,10.2869275 22.5,12.87329 22.5,16 L22.5,22.5 L7.5,22.5 L7.5,16 C7.5,12.87329 10.007881,10.2869275 13.1749448,10.0236825 L11.637931,12.5 L12.4137931,13 L14.4827586,10 L14.4827586,14.25 L15.5172414,14.25 L15.5172414,10 L17.5862069,13 L18.362069,12.5 L16.8250552,10.0236825 Z M16.4423077,10 L13.5576923,10 L12.1153846,5 L17.8846154,5 L16.4423077,10 Z" id="Path-2" fill="#FFFFFF" fill-rule="nonzero"></path>
</svg>