<svg width="36" height="36" viewBox="0 0 36 36" fill="none" xmlns="http://www.w3.org/2000/svg">
<path d="M36 18C36 27.9411 27.9411 36 18 36C8.05887 36 0 27.9411 0 18C0 8.05887 8.05887 0 18 0C27.9411 0 36 8.05887 36 18Z" fill="#767676"/>
<path d="M16.3368 9.88263L15.1854 6.42857L20.6451 7.41279L19.4752 9.82692L16.3368 9.88263Z" fill="white"/>
<path d="M27.1447 27.5243C26.8475 28.0814 26.309 28.2857 25.0277 28.2857H10.7472C10.5986 28.2857 10.3758 28.2114 10.1343 28.0629C9.20583 27.5058 8.77872 26.373 9.11298 25.2959C9.33582 24.516 10.0786 23.0489 10.3386 22.5475L10.3943 22.4547L13.4584 20.6905L13.0684 20.0034L10.3015 21.5819L10.0415 20.4862L11.6942 13.7452L16.5039 10.5326L17.2839 10.514L14.2941 14.2095L14.9069 14.7109L18.0081 10.904L20.1994 13.281L20.7751 12.7424L18.7324 10.514H19.2338L21.6107 12.0925C23.0035 13.021 24.1734 14.2838 24.9719 15.7508L25.1762 16.1222L25.0462 17.0879L22.0379 16.1594L21.815 16.9022L25.0462 17.905L26.6061 21.8419L26.5133 21.8976L25.3062 23.216L22.7435 24.6645L23.1335 25.3516L25.3062 24.126L27.2747 26.2244C27.5161 26.6515 27.4232 27.0229 27.1447 27.5243Z" fill="white"/>
</svg>
