<svg xmlns="http://www.w3.org/2000/svg" xmlns:xlink="http://www.w3.org/1999/xlink" version="1.1" width="170.079pt" height="170.079pt" viewBox="0 0 170.079 170.079">
<defs>
<clipPath id="clip_0">
<path transform="matrix(1,0,0,-1,0,170.079)" d="M0 170.079H170.079V0H0Z"/>
</clipPath>
</defs>
<g id="layer_1" data-name="Witte achtergrond">
<path transform="matrix(1,0,0,-1,0,170.079)" d="M0 0H170.078V170.078H0Z" fill="#ffffff"/>
</g>
<g id="layer_1" data-name="Icoon">
<g clip-path="url(#clip_0)">
<path transform="matrix(1,0,0,-1,133.1975,139.2791)" d="M0 0C-1.597-3.038-4.481-4.064-11.435-4.067L-88.313-4.108H-88.315C-89.146-4.108-90.313-3.687-91.6-2.921-96.576 .042-98.86 6.161-97.155 11.961-95.918 16.168-91.979 24.096-90.564 26.796L-90.309 27.284-73.854 36.759-75.976 40.444-90.718 31.955-92.111 37.814-83.193 74.09-57.256 91.388-53.061 91.463-69.188 71.657-65.891 68.972-49.17 89.508-37.401 76.675-34.269 79.549-45.321 91.601-42.587 91.649-29.789 83.19C-22.262 78.216-16.015 71.391-11.723 63.452L-10.631 61.431-11.318 56.283-27.499 61.286-28.755 57.223-11.345 51.841-2.896 30.61-3.341 30.319-9.843 23.204-9.864 23.241-23.768 15.371-21.674 11.67-9.963 18.299 .615 6.965C1.966 4.681 1.436 2.73 0 0M-39.733 108.954-44.025 100.129-55.519 99.925-59.682 112.584ZM7.569 11.884 7.366 12.195-.591 20.722 2.274 23.858C5.153 26.058 6.34 29.867 5.163 33.343L-3.045 53.982-2.201 60.304C-1.962 62.096-2.289 63.883-3.149 65.476L-4.242 67.497C-9.197 76.662-16.41 84.542-25.1 90.285L-35.889 97.417-32.087 105.234C-30.912 107.648-30.935 110.405-32.148 112.799-33.361 115.192-35.57 116.84-38.211 117.32L-58.16 120.95C-61.138 121.493-64.106 120.452-66.095 118.168-68.084 115.885-68.706 112.804-67.76 109.927L-63.627 97.361-87.911 81.166C-89.685 79.983-90.942 78.191-91.451 76.12L-100.369 39.843C-100.69 38.536-100.695 37.154-100.385 35.847L-98.831 29.313C-100.385 26.25-103.95 18.995-105.313 14.359-108.115 4.833-104.265-5.277-95.948-10.229-93.289-11.811-90.721-12.612-88.315-12.612H-88.31L-11.431-12.571C-6.386-12.569 3.004-12.564 7.527-3.957 8.792-1.552 12.152 4.839 7.569 11.884" fill="#231f20"/>
</g>
</g>
</svg>
