<?xml version="1.0" encoding="UTF-8"?>
<svg width="24px" height="24px" viewBox="0 0 24 24" version="1.1" xmlns="http://www.w3.org/2000/svg" xmlns:xlink="http://www.w3.org/1999/xlink">
    <!-- Generator: Sketch 55.1 (78136) - https://sketchapp.com -->
    <title>rest</title>
    <desc>Created with Sketch.</desc>
    <g id="Styleguide" stroke="none" stroke-width="1" fill="none" fill-rule="evenodd">
        <g id="Cartografie" transform="translate(-641.000000, -2647.000000)">
            <g id="iconen-en-vlakken" transform="translate(85.000000, 2470.000000)">
                <g id="rest" transform="translate(556.000000, 177.000000)">
                    <path d="M12,24 C18.627417,24 24,18.627417 24,12 C24,5.372583 18.627417,0 12,0 C5.372583,0 0,5.372583 0,12 C0,18.627417 5.372583,24 12,24 Z" id="Path" fill="#767676"></path>
                    <path d="M12,24 C18.627417,24 24,18.627417 24,12 C24,5.372583 18.627417,0 12,0 C5.372583,0 0,5.372583 0,12 C0,18.627417 5.372583,24 12,24 Z M12,22.5 C6.20101013,22.5 1.5,17.7989899 1.5,12 C1.5,6.20101013 6.20101013,1.5 12,1.5 C17.7989899,1.5 22.5,6.20101013 22.5,12 C22.5,17.7989899 17.7989899,22.5 12,22.5 Z" id="Oval" fill="#FFFFFF" fill-rule="nonzero"></path>
                    <g id="Group" transform="translate(6.000000, 4.000000)" fill="#FFFFFF" fill-rule="nonzero">
                        <polygon id="Path" points="7.15384615 4 8.30769231 0 3.69230769 0 4.84615385 4"></polygon>
                        <path d="M7.46004414,4.018946 L8.68965517,6 L8.06896552,6.4 L6.4137931,4 L6.4137931,7.4 L5.5862069,7.4 L5.5862069,4 L3.93103448,6.4 L3.31034483,6 L4.53995586,4.018946 C2.00630483,4.229542 0,6.298632 0,8.8 L0,14 L12,14 L12,8.8 C12,6.298632 9.99369517,4.229542 7.46004414,4.018946 Z" id="Path"></path>
                    </g>
                </g>
            </g>
        </g>
    </g>
</svg>