<svg width="36" height="36" viewBox="0 0 36 36" fill="none" xmlns="http://www.w3.org/2000/svg">
<path d="M36 18C36 27.9411 27.9411 36 18 36C8.05887 36 0 27.9411 0 18C0 8.05887 8.05887 0 18 0C27.9411 0 36 8.05887 36 18Z" fill="#E50082"/>
<path d="M29.5333 11.7092C29.4656 11.4835 29.3302 11.3029 29.1271 11.1901L24.0714 8.12055C23.6425 7.84971 23.1234 7.71429 22.6269 7.71429H21.1147L19.5573 8.0077C18.5191 8.18826 17.4583 8.18826 16.3975 8.0077L14.795 7.71429H13.4634C12.9669 7.71429 12.4703 7.84971 12.0415 8.09798L6.87292 11.1901C6.66979 11.3029 6.53437 11.4835 6.46666 11.7092C6.39895 11.9349 6.42152 12.1606 6.53437 12.3637L8.31741 15.5913C8.49797 15.9072 8.85909 16.0878 9.22021 16.0201L11.2741 15.817L11.9512 27.2149C11.9738 27.6663 12.3575 28.05 12.8089 28.05H23.3491C23.5748 28.05 23.8005 27.9597 23.9585 27.8017C24.1165 27.6437 24.2068 27.418 24.2068 27.1923L24.7033 15.817L26.7798 16.0201C27.1409 16.0878 27.502 15.9072 27.6826 15.5913L29.4656 12.3637C29.5785 12.1606 29.6011 11.9349 29.5333 11.7092ZM16.3072 8.4591C16.8489 8.54938 17.4132 8.59452 17.9549 8.59452C18.4965 8.59452 19.0608 8.54938 19.6025 8.4591L21.2501 8.14312L21.2275 8.25597C21.0018 9.79074 19.625 10.9644 18 10.9644C16.3524 10.9644 14.9756 9.7456 14.795 8.18826L16.3072 8.4591Z" fill="white"/>
</svg>
