<svg xmlns="http://www.w3.org/2000/svg" xmlns:xlink="http://www.w3.org/1999/xlink" version="1.1" width="170.079pt" height="170.079pt" viewBox="0 0 170.079 170.079">
<defs>
<clipPath id="clip_0">
<path transform="matrix(1,0,0,-1,0,170.079)" d="M0 170.079H170.079V0H0Z"/>
</clipPath>
</defs>
<g id="layer_1" data-name="Witte achtergrond">
<path transform="matrix(1,0,0,-1,0,170.079)" d="M0 0H170.078V170.078H0Z" fill="#ffffff"/>
</g>
<g id="layer_1" data-name="Icoon">
<g clip-path="url(#clip_0)">
<path transform="matrix(1,0,0,-1,148.6635,110.39679)" d="M0 0C-.743-1.239-1.931-2.099-3.342-2.417L-5.913-2.999C-7.309-3.363-8.619-3.908-9.824-4.604-9.343-3.483-8.956-2.329-8.817-.989-8.689 .25-8.85 1.554-9.205 2.836L-10.188 35.443-12.188 35.383-11.344 7.382C-12.328 8.818-13.494 10.011-14.655 10.745-16.021 11.607-17.671 12.188-19.759 12.924-21.494 13.535-23.46 14.228-25.83 15.27-26.346 15.496-26.902 15.768-27.571 16.119-28.001 16.346-28.325 16.598-28.535 16.868-28.839 17.26-29.036 17.709-29.126 18.188-28.789 18.563-28.298 18.804-27.731 18.805L-27.486 18.819C-27.052 18.824-26.538 18.805-25.983 18.771-20.104 18.411-19.134 18.423-18.979 18.44L-18.232 18.504-12.509 46.979-14.47 47.373-19.882 20.45C-20.72 20.48-22.434 20.558-25.861 20.768-26.462 20.805-26.989 20.821-27.541 20.818L-27.784 20.804C-28.071 20.804-28.349 20.766-28.618 20.705L-20.625 40.002C-16.27 50.287-11.226 61.803-9.913 64.196-8.097 60.673-5.77 52.143-6.023 45.855-6.41 36.337-6.452 24.383-3.323 16.357-2.172 13.402-.828 9.161 .561 4.093 .944 2.695 .745 1.241 0 0M-13.046-.552C-13.177-1.813-13.697-2.9-14.416-4.404-15.44-6.545-16.715-9.209-17.483-13.659-17.696-14.898-17.878-19.37-17.77-21.35L-27.317-16.193C-28.722-15.435-29.416-13.772-28.969-12.24L-22.64 9.435C-22.12 9.248-21.631 9.075-21.172 8.914-19.336 8.267-17.886 7.756-16.926 7.15-15.158 6.033-12.751 2.307-13.046-.552M4.662 5.218C3.214 10.499 1.86 14.767 .638 17.902-2.236 25.274-2.115 37.288-1.775 45.684-1.466 53.322-4.31 62.916-6.394 66.627-6.946 67.612-7.878 68.305-8.954 68.569V70.275C-7.63 70.656-6.653 71.865-6.653 73.31-6.653 75.058-8.076 76.481-9.825 76.481-11.574 76.481-12.997 75.058-12.997 73.31-12.997 72.007-12.207 70.888-11.081 70.4V68.512C-11.834 68.282-12.514 67.835-13.021 67.204-14.359 65.542-21.522 48.787-24.548 41.644L-32.583 22.208C-33.142 21.154-33.437 19.968-33.437 18.768-33.437 17.119-32.903 15.562-31.895 14.261-31.31 13.508-30.521 12.867-29.511 12.335-28.793 11.957-28.148 11.644-27.541 11.377-27.228 11.239-26.92 11.106-26.618 10.98L-33.051-11.049C-34.057-14.492-32.495-18.229-29.339-19.934L-19.334-25.336C-18.762-25.625-18.141-25.768-17.521-25.767-16.724-25.767-15.93-25.53-15.249-25.064-14.034-24.232-13.367-22.804-13.509-21.336-13.562-20.781-13.561-19.606-13.529-18.367H-13.518C-13.518-13.077-9.948-8.449-4.907-7.13L-2.405-6.564C.15-5.987 2.299-4.433 3.646-2.188 4.994 .059 5.354 2.688 4.662 5.218" fill="#231f20"/>
<path transform="matrix(1,0,0,-1,106.6137,66.2577)" d="M0 0-13.973 1.412-16.348-53.336H-60.735L-63.966 1.409-77.812 0-84.796 12.571-62.767 25.647C-61.625 26.324-60.322 26.684-58.995 26.687L-54.531 26.697C-52.484 20.172-46.22 15.408-38.823 15.408-31.531 15.408-25.182 20.125-23.12 26.708L-18.531 26.714C-17.162 26.704-15.813 26.354-14.639 25.645L6.988 12.578ZM-46.355 28.475C-43.928 28.054-41.484 27.843-39.038 27.843-36.588 27.843-34.135 28.055-31.696 28.477L-24.436 29.884-24.541 29.391C-25.518 22.56-31.658 17.408-38.823 17.408-46.199 17.408-52.29 22.779-53.133 29.676ZM12.235 14.079C11.951 15.044 11.315 15.842 10.441 16.333L-12.054 29.925C-13.993 31.097-16.211 31.715-18.461 31.715-18.492 31.715-18.522 31.714-18.553 31.714L-23.407 31.708V31.703L-25.149 31.763-32.054 30.445C-36.686 29.642-41.383 29.642-46.01 30.445L-53.109 31.703-54.247 31.697-59.006 31.687C-61.227 31.682-63.409 31.08-65.318 29.947L-88.243 16.339C-89.122 15.848-89.762 15.048-90.047 14.079-90.338 13.088-90.223 12.045-89.721 11.141L-81.801-3.114C-81.01-4.54-79.382-5.304-77.787-5.023L-68.649-4.093-65.667-54.626C-65.604-56.679-63.905-58.336-61.843-58.336H-15.222C-14.192-58.336-13.227-57.933-12.502-57.201-11.798-56.489-11.407-55.552-11.396-54.553L-9.207-4.096-.024-5.023C1.569-5.305 3.198-4.54 3.99-3.114L11.909 11.141C12.411 12.044 12.527 13.087 12.235 14.079" fill="#231f20"/>
</g>
</g>
</svg>
