<?xml version="1.0" encoding="UTF-8"?>
<svg viewBox="0 0 30 30" version="1.1" xmlns="http://www.w3.org/2000/svg" xmlns:xlink="http://www.w3.org/1999/xlink">
    <path d="M15,30 C23.2842712,30 30,23.2842712 30,15 C30,6.71572875 23.2842712,0 15,0 C6.71572875,0 0,6.71572875 0,15 C0,23.2842712 6.71572875,30 15,30 Z" id="Path" fill="#000000"></path>
    <path d="M15,30 C23.2842712,30 30,23.2842712 30,15 C30,6.71572875 23.2842712,0 15,0 C6.71572875,0 0,6.71572875 0,15 C0,23.2842712 6.71572875,30 15,30 Z M15,28.125 C7.75126266,28.125 1.875,22.2487373 1.875,15 C1.875,7.75126266 7.75126266,1.875 15,1.875 C22.2487373,1.875 28.125,7.75126266 28.125,15 C28.125,22.2487373 22.2487373,28.125 15,28.125 Z" id="Oval" fill="#FFFFFF" fill-rule="nonzero"></path>
    <path d="M19.3227795,8.75 L16.8945248,8.75 C16.7068911,9.62442377 15.9302457,10.2804217 14.9996399,10.2804217 C14.0693941,10.2804217 13.2927488,9.62460384 13.1052951,8.75 L10.6774006,8.75 L6.25,12.4380299 L9.065767,15.4556563 L10.6774006,14.1539245 L10.6774006,22.1056707 L19.3227795,22.1056707 L19.3227795,14.1539245 L20.934233,15.4556563 L23.75,12.4380299 L19.3227795,8.75 Z" id="Path" fill="#FFFFFF" fill-rule="nonzero"></path>
</svg>