<?xml version="1.0" encoding="UTF-8"?>
<svg width="24px" height="24px" viewBox="0 0 24 24" version="1.1" xmlns="http://www.w3.org/2000/svg" xmlns:xlink="http://www.w3.org/1999/xlink">
    <!-- Generator: Sketch 55.1 (78136) - https://sketchapp.com -->
    <title>textiel</title>
    <desc>Created with Sketch.</desc>
    <g id="Styleguide" stroke="none" stroke-width="1" fill="none" fill-rule="evenodd">
        <g id="Cartografie" transform="translate(-801.000000, -2647.000000)">
            <g id="iconen-en-vlakken" transform="translate(85.000000, 2470.000000)">
                <g id="textiel" transform="translate(716.000000, 177.000000)">
                    <path d="M12,24 C18.627417,24 24,18.627417 24,12 C24,5.372583 18.627417,0 12,0 C5.372583,0 0,5.372583 0,12 C0,18.627417 5.372583,24 12,24 Z" id="Path" fill="#000000"></path>
                    <path d="M12,24 C18.627417,24 24,18.627417 24,12 C24,5.372583 18.627417,0 12,0 C5.372583,0 0,5.372583 0,12 C0,18.627417 5.372583,24 12,24 Z M12,22.5 C6.20101013,22.5 1.5,17.7989899 1.5,12 C1.5,6.20101013 6.20101013,1.5 12,1.5 C17.7989899,1.5 22.5,6.20101013 22.5,12 C22.5,17.7989899 17.7989899,22.5 12,22.5 Z" id="Oval" fill="#FFFFFF" fill-rule="nonzero"></path>
                    <path d="M15.4582236,7 L13.5156199,7 C13.3655128,7.69953902 12.7441966,8.22433734 11.9997119,8.22433734 C11.2555153,8.22433734 10.634199,7.69968308 10.4842361,7 L8.54192048,7 L5,9.95042394 L7.2526136,12.364525 L8.54192048,11.3231396 L8.54192048,17.6845365 L15.4582236,17.6845365 L15.4582236,11.3231396 L16.7473864,12.364525 L19,9.95042394 L15.4582236,7 Z" id="Path" fill="#FFFFFF" fill-rule="nonzero"></path>
                </g>
            </g>
        </g>
    </g>
</svg>