<?xml version="1.0" encoding="UTF-8" standalone="no"?>
<svg
   xmlns:dc="http://purl.org/dc/elements/1.1/"
   xmlns:cc="http://creativecommons.org/ns#"
   xmlns:rdf="http://www.w3.org/1999/02/22-rdf-syntax-ns#"
   xmlns:svg="http://www.w3.org/2000/svg"
   xmlns="http://www.w3.org/2000/svg"
   viewBox="0 0 226.772 264.56668"
   height="264.56668"
   width="226.772"
   xml:space="preserve"
   id="svg2"
   version="1.1"><metadata
     id="metadata8"><rdf:RDF><cc:Work
         rdf:about=""><dc:format>image/svg+xml</dc:format><dc:type
           rdf:resource="http://purl.org/dc/dcmitype/StillImage" /></cc:Work></rdf:RDF></metadata><defs
     id="defs6"><clipPath
       id="clipPath18"
       clipPathUnits="userSpaceOnUse"><path
         id="path16"
         d="M 0,198.425 H 170.079 V 0 H 0 Z" /></clipPath><clipPath
       id="clipPath36"
       clipPathUnits="userSpaceOnUse"><path
         id="path34"
         d="M 0,198.425 H 170.079 V 0 H 0 Z" /></clipPath><clipPath
       id="clipPath64"
       clipPathUnits="userSpaceOnUse"><path
         id="path62"
         d="M 0,198.425 H 170.079 V 0 H 0 Z" /></clipPath></defs><g
     transform="matrix(1.3333333,0,0,-1.3333333,0,264.56667)"
     id="g10"><g
       id="g12"><g
         clip-path="url(#clipPath18)"
         id="g14"><g
           transform="translate(165.8226,198.4252)"
           id="g20"><path
             id="path22"
             style="fill:#8d198f;fill-opacity:1;fill-rule:nonzero;stroke:none"
             d="m 0,0 h -161.566 c -2.351,0 -4.257,-1.905 -4.257,-4.256 v -156.151 -5.416 -26.528 c 0,-3.355 2.72,-6.074 6.074,-6.074 H -1.818 c 3.355,0 6.074,2.719 6.074,6.074 v 26.528 5.416 156.151 C 4.256,-1.905 2.351,0 0,0" /></g><path
           id="path24"
           style="fill:#ffffff;fill-opacity:1;fill-rule:nonzero;stroke:none"
           d="M 8.5,189.925 H 161.579 V 38.018 H 8.5 Z" /></g></g><g
       transform="translate(53.3396,25.2582)"
       id="g26"><path
         id="path28"
         style="fill:#ffffff;fill-opacity:1;fill-rule:nonzero;stroke:none"
         d="M 0,0 H -4.399 V 2.8 H 7.697 V 0 H 3.299 V -13.446 H 0 Z" /></g><g
       id="g30"><g
         clip-path="url(#clipPath36)"
         id="g32"><g
           transform="translate(64.0398,19.2348)"
           id="g38"><path
             id="path40"
             style="fill:#ffffff;fill-opacity:1;fill-rule:nonzero;stroke:none"
             d="M 0,0 H 6.223 C 6.023,1.625 4.773,2.725 3.099,2.725 1.424,2.725 0.175,1.625 0,0 m -3.125,-1.249 c 0,3.824 2.575,6.473 6.249,6.473 3.674,0 6.224,-2.624 6.224,-6.399 0,-0.3 -0.051,-0.774 -0.101,-1.099 H 0 c 0.225,-1.674 1.649,-2.799 3.474,-2.799 1.349,0 2.524,0.5 3.298,1.399 l 1.875,-1.824 c -1.125,-1.45 -3.074,-2.225 -5.323,-2.225 -3.8,0 -6.449,2.674 -6.449,6.474" /></g><g
           transform="translate(78.239,18.0356)"
           id="g42"><path
             id="path44"
             style="fill:#ffffff;fill-opacity:1;fill-rule:nonzero;stroke:none"
             d="m 0,0 -3.949,6.123 h 3.874 l 2.05,-3.699 h 0.049 l 2.1,3.699 H 7.648 L 3.725,0.25 7.873,-6.224 H 4.024 l -2.299,4.049 h -0.05 l -2.324,-4.049 h -3.499 z" /></g><g
           transform="translate(88.865,16.2357)"
           id="g46"><path
             id="path48"
             style="fill:#ffffff;fill-opacity:1;fill-rule:nonzero;stroke:none"
             d="M 0,0 V 5.349 H -2.125 V 7.923 H -1 c 1.024,0 1.425,0.4 1.425,1.425 v 1.924 H 3.074 V 7.923 H 6.073 V 5.349 H 3.074 V 0 c 0,-1.199 0.625,-1.874 1.775,-1.874 0.349,0 0.774,0.05 1.024,0.125 v -2.6 C 5.498,-4.449 4.799,-4.523 4.249,-4.523 1.449,-4.523 0,-2.975 0,0" /></g><path
           id="path50"
           style="fill:#ffffff;fill-opacity:1;fill-rule:nonzero;stroke:none"
           d="m 97.315,24.159 h 3.099 V 11.812 h -3.099 z m 1.55,1.575 c -1.075,0 -1.85,0.75 -1.85,1.799 0,1.049 0.775,1.799 1.85,1.799 1.074,0 1.85,-0.75 1.85,-1.799 0,-1.049 -0.776,-1.799 -1.85,-1.799" /><g
           transform="translate(106.114,19.2348)"
           id="g52"><path
             id="path54"
             style="fill:#ffffff;fill-opacity:1;fill-rule:nonzero;stroke:none"
             d="M 0,0 H 6.223 C 6.023,1.625 4.773,2.725 3.099,2.725 1.424,2.725 0.175,1.625 0,0 m -3.125,-1.249 c 0,3.824 2.575,6.473 6.249,6.473 3.674,0 6.224,-2.624 6.224,-6.399 0,-0.3 -0.051,-0.774 -0.101,-1.099 H 0 c 0.225,-1.674 1.649,-2.799 3.474,-2.799 1.349,0 2.524,0.5 3.299,1.399 l 1.875,-1.824 c -1.125,-1.45 -3.075,-2.225 -5.324,-2.225 -3.8,0 -6.449,2.674 -6.449,6.474" /></g><path
           id="path56"
           style="fill:#ffffff;fill-opacity:1;fill-rule:nonzero;stroke:none"
           d="m 118.04,29.932 h 3.099 v -18.12 h -3.099 z" /></g></g><g
       id="g58"><g
         clip-path="url(#clipPath64)"
         id="g60"><g
           transform="translate(148.6635,88.0287)"
           id="g66"><path
             id="path68"
             style="fill:#231f20;fill-opacity:1;fill-rule:nonzero;stroke:none"
             d="m 0,0 c -0.743,-1.239 -1.931,-2.099 -3.342,-2.417 l -2.571,-0.582 c -1.396,-0.364 -2.706,-0.909 -3.911,-1.605 0.481,1.121 0.868,2.275 1.007,3.615 0.128,1.239 -0.033,2.543 -0.388,3.825 l -0.983,32.607 -2,-0.06 0.844,-28.001 c -0.984,1.436 -2.15,2.629 -3.311,3.363 -1.366,0.862 -3.016,1.443 -5.104,2.179 -1.735,0.611 -3.701,1.304 -6.071,2.346 -0.516,0.226 -1.072,0.498 -1.741,0.849 -0.43,0.227 -0.754,0.479 -0.964,0.749 -0.304,0.392 -0.501,0.841 -0.591,1.32 0.337,0.374 0.828,0.616 1.395,0.617 l 0.245,0.014 c 0.434,0.005 0.948,-0.014 1.503,-0.048 5.879,-0.36 6.849,-0.348 7.004,-0.331 l 0.747,0.064 5.723,28.475 -1.961,0.394 -5.412,-26.923 c -0.838,0.029 -2.552,0.108 -5.979,0.318 -0.601,0.037 -1.128,0.053 -1.68,0.05 l -0.243,-0.014 c -0.287,0 -0.565,-0.038 -0.834,-0.099 l 7.993,19.297 c 4.355,10.285 9.399,21.801 10.712,24.194 1.816,-3.523 4.143,-12.053 3.89,-18.341 C -6.41,36.337 -6.452,24.383 -3.323,16.357 -2.172,13.402 -0.828,9.161 0.561,4.093 0.944,2.695 0.745,1.241 0,0 m -13.046,-0.552 c -0.131,-1.261 -0.651,-2.348 -1.37,-3.852 -1.024,-2.141 -2.299,-4.805 -3.067,-9.255 -0.213,-1.239 -0.395,-5.711 -0.287,-7.691 l -9.547,5.157 c -1.405,0.758 -2.099,2.421 -1.652,3.953 l 6.329,21.675 c 0.52,-0.187 1.009,-0.36 1.468,-0.521 1.836,-0.647 3.286,-1.158 4.246,-1.764 1.768,-1.117 4.175,-4.843 3.88,-7.702 m 17.708,5.77 c -1.448,5.281 -2.802,9.549 -4.024,12.684 -2.874,7.372 -2.753,19.386 -2.413,27.782 0.309,7.638 -2.535,17.232 -4.619,20.943 -0.552,0.985 -1.484,1.678 -2.56,1.942 v 1.706 c 1.324,0.381 2.301,1.59 2.301,3.034 0,1.749 -1.423,3.172 -3.172,3.172 -1.749,0 -3.172,-1.423 -3.172,-3.172 0,-1.302 0.79,-2.421 1.916,-2.909 v -1.888 c -0.753,-0.23 -1.433,-0.677 -1.94,-1.308 -1.338,-1.662 -8.501,-18.417 -11.527,-25.561 l -8.035,-19.435 c -0.559,-1.054 -0.854,-2.24 -0.854,-3.44 0,-1.649 0.534,-3.206 1.542,-4.507 0.585,-0.753 1.374,-1.394 2.384,-1.926 0.718,-0.378 1.363,-0.691 1.97,-0.958 0.313,-0.138 0.621,-0.271 0.923,-0.398 l -6.433,-22.028 c -1.006,-3.443 0.556,-7.18 3.712,-8.885 l 10.005,-5.402 c 0.572,-0.289 1.193,-0.432 1.813,-0.431 0.797,0 1.591,0.237 2.272,0.703 1.215,0.832 1.882,2.26 1.74,3.728 -0.053,0.555 -0.052,1.73 -0.02,2.969 h 0.011 c 0,5.29 3.57,9.918 8.611,11.237 l 2.502,0.566 c 2.555,0.577 4.704,2.131 6.051,4.376 1.348,2.247 1.708,4.876 1.016,7.406" /></g><g
           transform="translate(106.6137,132.1678)"
           id="g70"><path
             id="path72"
             style="fill:#231f20;fill-opacity:1;fill-rule:nonzero;stroke:none"
             d="m 0,0 -13.973,1.412 -2.375,-54.748 H -60.735 L -63.966,1.409 -77.812,0 l -6.984,12.571 22.029,13.076 c 1.141,0.677 2.445,1.037 3.772,1.039 l 4.464,0.011 c 2.046,-6.525 8.311,-11.289 15.708,-11.289 7.292,0 13.641,4.717 15.703,11.3 l 4.589,0.006 c 1.369,-0.01 2.717,-0.36 3.892,-1.069 L 6.988,12.578 Z m -46.355,28.475 c 2.427,-0.421 4.871,-0.632 7.317,-0.632 2.45,0 4.903,0.212 7.342,0.634 l 7.26,1.407 -0.105,-0.493 c -0.977,-6.832 -7.117,-11.983 -14.282,-11.983 -7.376,0 -13.467,5.371 -14.31,12.268 z m 58.59,-14.396 c -0.284,0.965 -0.92,1.763 -1.794,2.254 l -22.495,13.592 c -1.939,1.172 -4.158,1.79 -6.407,1.79 -0.031,0 -0.062,-0.001 -0.092,-0.001 l -4.854,-0.006 v -0.005 l -1.742,0.06 -6.905,-1.318 c -4.632,-0.803 -9.329,-0.803 -13.956,0 l -7.099,1.258 -1.138,-0.006 v 0 l -4.759,-0.011 c -2.221,-0.004 -4.403,-0.606 -6.312,-1.739 L -88.243,16.339 c -0.879,-0.491 -1.519,-1.291 -1.804,-2.26 -0.291,-0.991 -0.176,-2.034 0.326,-2.938 l 7.92,-14.255 c 0.791,-1.426 2.419,-2.19 4.014,-1.909 l 9.137,0.93 2.982,-50.533 c 0.063,-2.053 1.763,-3.71 3.825,-3.71 h 46.621 c 1.03,0 1.995,0.403 2.719,1.135 0.705,0.712 1.096,1.649 1.107,2.648 l 2.189,50.457 9.183,-0.927 c 1.593,-0.282 3.222,0.483 4.014,1.909 l 7.919,14.255 c 0.502,0.903 0.618,1.946 0.326,2.938" /></g></g></g></g></svg>