<?xml version="1.0" encoding="utf-8"?>
<!-- Uploaded to: SVG Repo, www.svgrepo.com, Generator: SVG Repo Mixer Tools -->
<svg width="800px" height="800px" viewBox="0 0 1024 1024" class="icon"  version="1.1" xmlns="http://www.w3.org/2000/svg"><path d="M761.425982 323.287009c-17.015106-174.791541-107.504532-229.703927-242.851964-229.703927s-225.836858 55.685801-242.851964 229.703927c-11.601208 116.785498-111.371601 174.791541-64.193353 273.78852 42.537764 88.942598 126.839879 139.214502 307.045317 139.214501 180.205438 0 263.734139-49.498489 307.045317-139.214501 47.178248-98.996979-52.592145-157.003021-64.193353-273.78852z" fill="#000000" /><path d="M696.459215 472.555891c-20.882175-7.734139-37.123867 54.138973-58.779457 81.208459-18.561934 22.429003-42.537764 24.749245-75.021148 24.749245-2.320242-46.404834-4.640483-92.036254-6.960725-133.800604 37.897281-1.546828 59.55287-10.054381 75.021148-27.8429 18.561934-20.882175 37.123867-92.809668 18.561934-98.223565-17.78852-5.413897-27.069486 44.084592-42.537765 63.419939-13.148036 16.241692-30.936556 15.468278-54.138972 15.468278-3.093656-47.951662-5.413897-87.39577-8.507553-113.691843-2.320242-23.975831-11.601208-30.163142-26.296073-30.163142-13.92145 0-23.975831 6.187311-26.296072 30.163142-3.867069 37.123867-7.734139 102.864048-12.374623 178.658611-21.655589 0.773414-38.670695 0.773414-51.045317-15.468278-15.468278-19.335347-23.975831-68.833837-42.537764-63.41994-17.78852 5.413897 0 77.34139 18.561933 98.223565 15.468278 17.78852 36.350453 26.296073 71.927493 27.8429-2.320242 43.311178-4.640483 88.942598-6.187311 133.800605-30.936556 0-54.912387-2.320242-71.927493-24.749245-21.655589-27.069486-37.123867-88.942598-58.779456-81.208459-20.882175 7.734139 3.093656 99.770393 28.616314 129.16012 21.655589 24.749245 48.725076 36.350453 99.770393 38.670695-6.187311 143.854985-10.827795 266.054381-10.827795 266.054381H579.673716s-6.187311-160.870091-13.92145-331.021148c52.592145-2.320242 79.661631-13.92145 102.090634-38.670695 25.522659-29.389728 50.271903-121.425982 28.616315-129.160121" fill="#65320b" /></svg>
