<svg width="32" height="32" viewBox="0 0 32 32" fill="none" xmlns="http://www.w3.org/2000/svg">
<rect width="32" height="32" rx="16" fill="#FF9100"/>
<path fill-rule="evenodd" clip-rule="evenodd" d="M23.125 13.75V14.875H24.25V16.375H23.125V18.625H24.25V20.125H23.125V22H19.375V20.125H17.875V22H14.125V20.125H12.625V22H8.875V20.125H7.75V18.625H8.875V16.375H7.75V14.875H8.875V13.75L10.75 10L12.625 13.75V14.875H14.125V13.75L16 10L17.875 13.75V14.875H19.375V13.75L21.25 10L23.125 13.75ZM17.875 16.375V18.625H19.375V16.375H17.875ZM12.625 18.625H14.125V16.375H12.625V18.625Z" fill="white"/>
</svg>
