<svg width="32" height="32" viewBox="0 0 32 32" fill="none" xmlns="http://www.w3.org/2000/svg">
<rect width="32" height="32" rx="16" fill="#6B8E23"/>
<path fill-rule="evenodd" clip-rule="evenodd" d="M18.25 10.375C18.5607 10.375 18.8125 10.6268 18.8125 10.9375V11.2715L24.25 12.9326V14.1082L23.3125 13.821V16.301L24.25 16.5625V21.0625H19.4988C19.6605 20.6436 19.75 20.1886 19.75 19.7126C19.75 17.6416 18.0711 15.9626 16 15.9626C13.9289 15.9626 12.25 17.6416 12.25 19.7126C12.25 20.1886 12.3395 20.6436 12.5012 21.0625H7.75V16.5625L8.6875 16.301V13.821L7.75 14.1082V12.9326L13.1875 11.2715V10.9375C13.1875 10.6268 13.4393 10.375 13.75 10.375C14.0607 10.375 14.3125 10.6268 14.3125 10.9375V11.125H15.4375V10.9375C15.4375 10.6268 15.6893 10.375 16 10.375C16.3107 10.375 16.5625 10.6268 16.5625 10.9375V11.125H17.6875V10.9375C17.6875 10.6268 17.9393 10.375 18.25 10.375ZM9.8125 13.4775V15.9883L10.9375 15.6748V13.134L9.8125 13.4775ZM21.0625 15.6748L22.1875 15.9883V13.4775L21.0625 13.134V15.6748ZM18.8125 15.0486L19.9375 15.3621V12.7905L18.8125 12.447V15.0486ZM12.0625 12.7905V15.3613L13.1875 15.0486V12.447L12.0625 12.7905ZM14.3125 14.7351L14.385 14.7153C14.3607 14.7232 14.3366 14.7313 14.3125 14.7395V14.741C14.6717 14.6191 15.0481 14.5342 15.4375 14.4927V12.25H14.3125V14.7351ZM16.5625 14.4927C16.9519 14.5342 17.3283 14.6191 17.6875 14.741C17.6619 14.7323 17.6364 14.7229 17.6106 14.7146L17.6875 14.7358V12.25H16.5625V14.4927Z" fill="white"/>
</svg>
