<svg width="32" height="32" viewBox="0 0 32 32" fill="none" xmlns="http://www.w3.org/2000/svg">
<rect width="32" height="32" rx="16" fill="#2F80ED"/>
<path d="M12.0625 17.6876C13.3051 17.6876 14.3125 18.6949 14.3125 19.9376C14.3125 21.1802 13.3051 22.1876 12.0625 22.1876C10.8199 22.1876 9.81253 21.1802 9.8125 19.9376C9.8125 18.6949 10.8199 17.6876 12.0625 17.6876Z" fill="white"/>
<path d="M19.9375 17.6876C21.1801 17.6876 22.1875 18.6949 22.1875 19.9376C22.1875 21.1802 21.1801 22.1876 19.9375 22.1876C18.6949 22.1876 17.6875 21.1802 17.6875 19.9376C17.6875 18.6949 18.6949 17.6876 19.9375 17.6876Z" fill="white"/>
<path d="M20.1499 10.8585C20.3328 10.9376 20.5094 11.0375 20.675 11.158L20.7102 11.1836L20.8362 11.284C21.1192 11.5298 21.3237 11.856 21.4185 12.2215L21.8792 14.0218C22.2712 15.5741 22.7435 17.8052 22.9778 18.9788C22.5707 17.6871 21.3637 16.7501 19.9375 16.7501C18.1772 16.7501 16.7501 18.1773 16.75 19.9376V16.7501H15.25V19.9376C15.2499 18.1773 13.8228 16.7501 12.0625 16.7501C10.6363 16.7501 9.42927 17.6871 9.02222 18.9788L9.12036 18.5049C9.37302 17.328 9.77781 15.3799 10.1208 14.0218L10.5815 12.2215C10.6763 11.856 10.8808 11.5298 11.1638 11.284L11.2898 11.1836L11.325 11.158C11.4904 11.0377 11.6667 10.9376 11.8494 10.8585V10.8563C12.66 10.5056 13.606 10.5629 14.3792 11.0386C14.6781 11.2227 14.9126 11.4855 15.0625 11.7908V11.7923C15.0876 11.8436 15.1103 11.8969 15.1306 11.9505H16.8694C16.8897 11.8969 16.9123 11.8436 16.9375 11.7923V11.7908C17.0874 11.4855 17.3219 11.2227 17.6208 11.0386C18.3937 10.5631 19.3387 10.5067 20.1492 10.857L20.1499 10.8585Z" fill="white"/>
<path d="M12.2632 9.56719C12.8259 8.71341 14.1086 8.61653 14.7578 9.4815C14.9005 9.67195 14.9948 9.89327 15.0369 10.1253C15.0142 10.1105 14.9919 10.0949 14.9688 10.0806C14.1433 9.57272 13.179 9.40465 12.2632 9.56719Z" fill="white"/>
<path d="M17.2422 9.4815C17.8914 8.61659 19.1733 8.71367 19.7361 9.56719C18.8205 9.40486 17.8564 9.57285 17.0312 10.0806C17.0079 10.095 16.9852 10.1104 16.9624 10.1253C17.0044 9.89323 17.0995 9.672 17.2422 9.4815Z" fill="white"/>
</svg>
