<svg width="32" height="32" viewBox="0 0 32 32" fill="none" xmlns="http://www.w3.org/2000/svg">
<rect width="32" height="32" rx="16" fill="#EB5757"/>
<path d="M16 15.25C16.5178 15.25 16.9375 15.6697 16.9375 16.1875C16.9375 16.7053 16.5178 17.125 16 17.125C15.4822 17.125 15.0625 16.7053 15.0625 16.1875C15.0625 15.6697 15.4822 15.25 16 15.25Z" fill="white"/>
<path fill-rule="evenodd" clip-rule="evenodd" d="M23.125 15.7385L22.0945 16.8284L21.2896 16.0681L19.9836 23.125H12.0164L10.7097 16.0681L9.90552 16.8284L8.875 15.7385L16 8.875L23.125 15.7385ZM16 13.75C14.6538 13.75 13.5625 14.8413 13.5625 16.1875C13.5625 17.5337 14.6538 18.625 16 18.625C17.3462 18.625 18.4375 17.5337 18.4375 16.1875C18.4375 14.8413 17.3462 13.75 16 13.75Z" fill="white"/>
</svg>
