<svg width="32" height="32" viewBox="0 0 32 32" fill="none" xmlns="http://www.w3.org/2000/svg">
<rect width="32" height="32" rx="16" fill="#767676"/>
<path d="M12.25 23.125H10.75V8.875H12.25V23.125Z" fill="white"/>
<path d="M16.75 23.125H15.25V8.875H16.75V23.125Z" fill="white"/>
<path d="M21.25 23.125H19.75V8.875H21.25V23.125Z" fill="white"/>
<path d="M10.375 21.25H8.875V19.75H10.375V21.25Z" fill="white"/>
<path d="M14.875 21.25H12.625V19.75H14.875V21.25Z" fill="white"/>
<path d="M19.375 21.25H17.125V19.75H19.375V21.25Z" fill="white"/>
<path d="M23.125 21.25H21.625V19.75H23.125V21.25Z" fill="white"/>
<path d="M10.375 16.75H8.875V15.25H10.375V16.75Z" fill="white"/>
<path d="M14.875 16.75H12.625V15.25H14.875V16.75Z" fill="white"/>
<path d="M19.375 16.75H17.125V15.25H19.375V16.75Z" fill="white"/>
<path d="M23.125 16.75H21.625V15.25H23.125V16.75Z" fill="white"/>
<path d="M10.375 12.25H8.875V10.75H10.375V12.25Z" fill="white"/>
<path d="M14.875 12.25H12.625V10.75H14.875V12.25Z" fill="white"/>
<path d="M19.375 12.25H17.125V10.75H19.375V12.25Z" fill="white"/>
<path d="M23.125 12.25H21.625V10.75H23.125V12.25Z" fill="white"/>
</svg>
