<?xml version="1.0" encoding="UTF-8" standalone="no"?>
<svg
   xmlns:dc="http://purl.org/dc/elements/1.1/"
   xmlns:cc="http://creativecommons.org/ns#"
   xmlns:rdf="http://www.w3.org/1999/02/22-rdf-syntax-ns#"
   xmlns:svg="http://www.w3.org/2000/svg"
   xmlns="http://www.w3.org/2000/svg"
   id="svg8"
   height="19.415836"
   width="10"
   version="1.1">
  <metadata
     id="metadata14">
    <rdf:RDF>
      <cc:Work
         rdf:about="">
        <dc:format>image/svg+xml</dc:format>
        <dc:type
           rdf:resource="http://purl.org/dc/dcmitype/StillImage" />
        <dc:title></dc:title>
      </cc:Work>
    </rdf:RDF>
  </metadata>
  <defs
     id="defs12" />
  <path
     style="fill:#fa0000;fill-opacity:1;stroke-width:0.97073501"
     d="M 9.9750048,18.309093 5.7260978,0.68539987 C 5.6290238,0.28060337 5.2659688,-0.00479273 4.8495239,6.0974709e-5 4.4340493,0.00297317 4.0748774,0.29322297 3.9836283,0.69899017 L 0.62488519,15.643455 c -0.022327,0.06407 -0.038829,0.13202 -0.045624,0.201913 l -0.5572024,2.477316 c -0.1087223,0.483426 0.1951177,0.960056 0.6766023,1.071691 C 1.1811164,19.501156 1.6596887,19.199257 1.768411,18.715831 l 0.4242112,-1.883226 h 5.5846386 l 0.458187,1.897787 c 0.09999,0.410621 0.464982,0.685339 0.869778,0.685339 0.06892,0 0.141728,-0.0078 0.212591,-0.02427 0.476631,-0.11843 0.7727052,-0.600885 0.657188,-1.08237 z M 4.8864118,4.8401457 6.0998308,9.8734064 H 3.7555056 Z M 2.5945065,15.040629 3.3536213,11.663442 h 3.1781865 l 0.813476,3.377187 z"
     id="path12" />
</svg>
