<?xml version="1.0" encoding="UTF-8" standalone="no"?>
<svg
   xmlns:dc="http://purl.org/dc/elements/1.1/"
   xmlns:cc="http://creativecommons.org/ns#"
   xmlns:rdf="http://www.w3.org/1999/02/22-rdf-syntax-ns#"
   xmlns:svg="http://www.w3.org/2000/svg"
   xmlns="http://www.w3.org/2000/svg"
   id="svg46"
   height="10.20754"
   width="10"
   version="1.1">
  <metadata
     id="metadata52">
    <rdf:RDF>
      <cc:Work
         rdf:about="">
        <dc:format>image/svg+xml</dc:format>
        <dc:type
           rdf:resource="http://purl.org/dc/dcmitype/StillImage" />
        <dc:title></dc:title>
      </cc:Work>
    </rdf:RDF>
  </metadata>
  <defs
     id="defs50" />
  <g
     id="g32"
     transform="matrix(0.65677132,0,0,0.65677132,-4.2289506,-4.7924603)">
    <g
       id="g6">
      <circle
         style="fill:#fa0000;fill-opacity:1"
         id="circle2"
         r="2.7880001"
         cy="13.481"
         cx="9.2270002" />
      <path
         style="fill:#ffffff"
         id="path4"
         d="m 9.227,11.355 c 1.174,0 2.126,0.952 2.126,2.126 0,1.174 -0.952,2.126 -2.126,2.126 -1.174,0 -2.126,-0.952 -2.126,-2.126 0,-1.174 0.952,-2.126 2.126,-2.126 m 0,-0.419 c -1.403,0 -2.545,1.142 -2.545,2.545 0,1.403 1.141,2.545 2.545,2.545 1.404,0 2.545,-1.141 2.545,-2.545 0,-1.404 -1.142,-2.545 -2.545,-2.545 z" />
    </g>
    <g
       id="g12">
      <rect
         style="fill:#fa0000;fill-opacity:1"
         id="rect8"
         height="8.3070002"
         width="1.694"
         y="14.532"
         x="8.3800001" />
      <path
         style="fill:#ffffff"
         id="path10"
         d="m 9.727,15.416 v 6.539 h -1 v -6.539 h 1 m 0.419,-0.419 h -0.419 -1 -0.419 v 0.419 6.539 0.419 h 0.419 1 0.419 v -0.419 -6.539 z" />
    </g>
    <g
       id="g18">
      <path
         style="fill:#bd2877"
         id="path14"
         d="m 20.438,16.359 c -0.376,0 -0.72,-0.207 -0.896,-0.539 -0.782,-1.467 -0.78,-3.287 0.006,-4.748 0.177,-0.33 0.52,-0.535 0.895,-0.535 0.166,0 0.332,0.042 0.479,0.121 0.33,0.176 0.535,0.518 0.535,0.894 0,0.165 -0.042,0.33 -0.12,0.478 -0.469,0.87 -0.469,1.957 -0.002,2.837 0.128,0.24 0.155,0.515 0.075,0.775 -0.079,0.259 -0.256,0.471 -0.497,0.598 -0.145,0.077 -0.31,0.119 -0.475,0.119 z" />
      <path
         style="fill:#ffffff"
         id="path16"
         d="m 20.442,10.747 c 0.128,0 0.259,0.031 0.38,0.096 0.27,0.144 0.425,0.423 0.425,0.709 0,0.129 -0.032,0.26 -0.096,0.381 -0.501,0.93 -0.499,2.096 -0.002,3.033 0.21,0.394 0.061,0.881 -0.334,1.089 -0.12,0.064 -0.249,0.094 -0.377,0.094 -0.288,0 -0.567,-0.155 -0.712,-0.427 -0.744,-1.396 -0.741,-3.163 0.005,-4.551 0.146,-0.27 0.424,-0.424 0.711,-0.424 m 0,-0.419 c -0.452,0 -0.865,0.247 -1.08,0.644 -0.819,1.523 -0.82,3.419 -0.006,4.947 0.213,0.4 0.627,0.649 1.081,0.649 0.2,0 0.398,-0.05 0.574,-0.144 0.288,-0.152 0.501,-0.408 0.597,-0.721 0.096,-0.313 0.064,-0.645 -0.091,-0.935 -0.434,-0.819 -0.434,-1.83 0.002,-2.637 0.096,-0.182 0.146,-0.381 0.146,-0.58 0,-0.453 -0.248,-0.866 -0.646,-1.079 -0.176,-0.094 -0.376,-0.144 -0.577,-0.144 z" />
    </g>
    <g
       id="g24">
      <path
         style="fill:#bd2877"
         id="path20"
         d="m 17.597,17.876 c -0.375,0 -0.718,-0.206 -0.895,-0.537 -1.265,-2.366 -1.264,-5.421 0.003,-7.785 0.177,-0.33 0.52,-0.535 0.896,-0.535 0.166,0 0.331,0.041 0.479,0.12 0.33,0.175 0.535,0.518 0.535,0.894 0,0.17 -0.042,0.336 -0.121,0.481 -0.955,1.781 -0.956,4.085 -0.002,5.868 0.128,0.236 0.157,0.509 0.08,0.768 -0.079,0.261 -0.254,0.476 -0.496,0.606 -0.147,0.078 -0.313,0.12 -0.479,0.12 z" />
      <path
         style="fill:#ffffff"
         id="path22"
         d="m 17.601,9.229 c 0.128,0 0.258,0.031 0.38,0.095 0.271,0.144 0.425,0.423 0.425,0.709 0,0.129 -0.029,0.26 -0.096,0.381 -0.994,1.853 -0.994,4.215 -0.002,6.067 0.214,0.393 0.062,0.88 -0.33,1.09 -0.121,0.065 -0.252,0.096 -0.38,0.096 -0.287,0 -0.565,-0.155 -0.71,-0.426 -1.24,-2.319 -1.24,-5.268 0.003,-7.588 0.144,-0.27 0.423,-0.424 0.71,-0.424 m 0,-0.419 c -0.452,0 -0.867,0.247 -1.08,0.646 -1.3,2.424 -1.301,5.557 -0.004,7.983 0.213,0.399 0.627,0.647 1.08,0.647 0.2,0 0.4,-0.05 0.577,-0.145 0.291,-0.156 0.504,-0.416 0.598,-0.731 0.093,-0.312 0.058,-0.643 -0.097,-0.929 -0.921,-1.72 -0.92,-3.946 0.003,-5.669 0.095,-0.173 0.146,-0.374 0.146,-0.579 0,-0.454 -0.248,-0.867 -0.647,-1.079 C 18.001,8.86 17.801,8.81 17.601,8.81 Z" />
    </g>
    <g
       id="g30">
      <path
         style="fill:#bd2877"
         id="path26"
         d="m 14.788,19.455 c -0.372,0 -0.714,-0.203 -0.892,-0.53 -1.793,-3.297 -1.808,-7.568 -0.039,-10.881 0.178,-0.332 0.522,-0.537 0.897,-0.537 0.165,0 0.33,0.041 0.477,0.119 0.492,0.266 0.68,0.882 0.417,1.374 -1.459,2.731 -1.447,6.246 0.03,8.955 0.081,0.147 0.124,0.314 0.124,0.484 0,0.372 -0.203,0.714 -0.529,0.892 -0.149,0.082 -0.317,0.124 -0.485,0.124 z" />
      <path
         style="fill:#ffffff"
         id="path28"
         d="m 14.753,7.716 c 0.128,0 0.258,0.031 0.378,0.095 0.394,0.212 0.541,0.7 0.332,1.09 -1.498,2.805 -1.487,6.37 0.031,9.154 0.067,0.122 0.098,0.254 0.098,0.384 0,0.286 -0.154,0.563 -0.42,0.709 -0.123,0.067 -0.254,0.098 -0.384,0.098 -0.285,0 -0.562,-0.153 -0.708,-0.421 -1.768,-3.252 -1.785,-7.411 -0.038,-10.682 0.145,-0.272 0.424,-0.427 0.711,-0.427 m 0,-0.419 c -0.452,0 -0.867,0.248 -1.081,0.647 -1.802,3.374 -1.786,7.723 0.039,11.08 0.216,0.395 0.628,0.64 1.076,0.64 0.204,0 0.406,-0.052 0.585,-0.149 0.394,-0.216 0.639,-0.628 0.639,-1.076 0,-0.205 -0.052,-0.408 -0.15,-0.586 C 14.417,15.205 14.406,11.768 15.832,9.099 16.149,8.505 15.924,7.762 15.328,7.443 15.152,7.347 14.953,7.297 14.753,7.297 Z" />
    </g>
  </g>
  <g
     id="g44"
     transform="matrix(0.65677132,0,0,0.65677132,-4.2289506,-4.7924603)">
    <circle
       style="fill:#fa0000;fill-opacity:1"
       id="circle34"
       r="2.1259999"
       cy="13.481"
       cx="9.2200003" />
    <rect
       style="fill:#fa0000;fill-opacity:1"
       id="rect36"
       height="6.539"
       width="1"
       y="15.416"
       x="8.7209997" />
    <path
       style="fill:#fa0000;fill-opacity:1"
       id="path38"
       d="m 19.725,11.171 c -0.746,1.388 -0.749,3.155 -0.005,4.551 0.209,0.392 0.697,0.542 1.089,0.333 0.395,-0.208 0.544,-0.695 0.334,-1.089 -0.496,-0.937 -0.499,-2.103 0.002,-3.033 0.064,-0.121 0.096,-0.252 0.096,-0.381 0,-0.286 -0.155,-0.565 -0.425,-0.709 -0.393,-0.211 -0.88,-0.063 -1.091,0.328 z" />
    <path
       style="fill:#fa0000;fill-opacity:1"
       id="path40"
       d="m 16.883,9.653 c -1.243,2.32 -1.243,5.269 -0.003,7.588 0.209,0.392 0.697,0.54 1.09,0.33 0.392,-0.21 0.544,-0.697 0.33,-1.09 -0.991,-1.852 -0.991,-4.214 0.002,-6.067 0.066,-0.121 0.096,-0.252 0.096,-0.381 0,-0.286 -0.154,-0.565 -0.425,-0.709 -0.391,-0.21 -0.88,-0.062 -1.09,0.329 z" />
    <path
       style="fill:#fa0000;fill-opacity:1"
       id="path42"
       d="m 14.034,8.143 c -1.746,3.271 -1.73,7.43 0.038,10.682 0.213,0.391 0.702,0.536 1.093,0.323 0.267,-0.146 0.42,-0.423 0.42,-0.709 0,-0.13 -0.031,-0.262 -0.098,-0.384 -1.518,-2.784 -1.53,-6.349 -0.031,-9.154 0.209,-0.39 0.062,-0.878 -0.332,-1.09 -0.39,-0.209 -0.879,-0.061 -1.09,0.332 z" />
  </g>
</svg>
